<svg id="Layer_1" data-name="Layer 1" xmlns="http://www.w3.org/2000/svg" width="477" height="244.8" viewBox="0 0 477 244.8"><defs><style>.cls-1,.cls-30{fill:#fff;}.cls-2,.cls-29,.cls-31,.cls-41,.cls-42,.cls-60{fill:none;}.cls-2,.cls-41{stroke:#0078d7;}.cls-2,.cls-29,.cls-41,.cls-42{stroke-linecap:round;stroke-linejoin:round;}.cls-2,.cls-29,.cls-41,.cls-42,.cls-60{stroke-width:0.75px;}.cls-2,.cls-42{stroke-dasharray:2.25 2.25;}.cls-3{fill:#f2f2f2;}.cls-4,.cls-43,.cls-83,.cls-87,.cls-92{font-size:9px;}.cls-100,.cls-32,.cls-4,.cls-83,.cls-87,.cls-92{fill:#0078d7;}.cls-100,.cls-4,.cls-61,.cls-83,.cls-87{font-family:SegoeUI, Segoe UI;}.cls-5{letter-spacing:0.02em;}.cls-6{letter-spacing:-0.05em;}.cls-7{letter-spacing:0.01em;}.cls-8{letter-spacing:-0.01em;}.cls-9{letter-spacing:0.01em;}.cls-10{letter-spacing:-0.01em;}.cls-11{letter-spacing:0.05em;}.cls-12{letter-spacing:-0.04em;}.cls-13{letter-spacing:0em;}.cls-14{letter-spacing:0.01em;}.cls-15{letter-spacing:0.02em;}.cls-16{letter-spacing:-0.04em;}.cls-17{letter-spacing:0.02em;}.cls-18{letter-spacing:-0.05em;}.cls-19,.cls-87{letter-spacing:0.03em;}.cls-20{letter-spacing:-0.01em;}.cls-21{letter-spacing:-0.02em;}.cls-22{letter-spacing:0em;}.cls-23{letter-spacing:0.06em;}.cls-24{letter-spacing:-0.03em;}.cls-25{letter-spacing:0em;}.cls-26{letter-spacing:0.01em;}.cls-27{letter-spacing:-0.02em;}.cls-28{letter-spacing:0em;}.cls-29{stroke:#a5a5a5;}.cls-30,.cls-32,.cls-33{fill-rule:evenodd;}.cls-31{stroke:#fff;stroke-width:1.5px;}.cls-31,.cls-60{stroke-miterlimit:2;}.cls-33,.cls-43{fill:#7f7f7f;}.cls-34{letter-spacing:0em;}.cls-35{letter-spacing:0.01em;}.cls-36{letter-spacing:0.01em;}.cls-37{letter-spacing:-0.01em;}.cls-38{letter-spacing:-0.02em;}.cls-39{letter-spacing:0.01em;}.cls-40{letter-spacing:-0.01em;}.cls-42{stroke:#7f7f7f;}.cls-43{font-family:SegoeUI-Italic, Segoe UI;font-style:italic;}.cls-44{letter-spacing:-0.03em;}.cls-45{letter-spacing:0.04em;}.cls-46{letter-spacing:0.01em;}.cls-47{letter-spacing:-0.02em;}.cls-48{letter-spacing:0.04em;}.cls-49{letter-spacing:0.01em;}.cls-50{letter-spacing:0.01em;}.cls-51{letter-spacing:-0.04em;}.cls-52{letter-spacing:-0.01em;}.cls-53{letter-spacing:-0.02em;}.cls-54{letter-spacing:-0.01em;}.cls-55{letter-spacing:-0.02em;}.cls-56{letter-spacing:0.04em;}.cls-57{letter-spacing:0em;}.cls-58{letter-spacing:-0.06em;}.cls-59{letter-spacing:0.01em;}.cls-60{stroke:#3f3f3f;}.cls-100,.cls-61{font-size:9.02px;}.cls-61{fill:#3f3f3f;}.cls-62{letter-spacing:-0.03em;}.cls-63{letter-spacing:0.06em;}.cls-64{letter-spacing:-0.06em;}.cls-65{letter-spacing:0.05em;}.cls-66{letter-spacing:0.01em;}.cls-67{letter-spacing:0em;}.cls-68{letter-spacing:0.02em;}.cls-69{letter-spacing:-0.05em;}.cls-70{letter-spacing:0.04em;}.cls-71{letter-spacing:-0.01em;}.cls-72{letter-spacing:0.01em;}.cls-73{letter-spacing:0em;}.cls-74{letter-spacing:0.02em;}.cls-75{letter-spacing:0.01em;}.cls-76{letter-spacing:-0.05em;}.cls-77{letter-spacing:0.06em;}.cls-78{letter-spacing:-0.05em;}.cls-79{letter-spacing:0.02em;}.cls-80{letter-spacing:-0.05em;}.cls-81{letter-spacing:0.03em;}.cls-82{letter-spacing:-0.02em;}.cls-83{letter-spacing:0.03em;}.cls-84{letter-spacing:0.01em;}.cls-85{letter-spacing:-0.04em;}.cls-86{letter-spacing:0.04em;}.cls-88{letter-spacing:-0.04em;}.cls-89{letter-spacing:0.03em;}.cls-90{letter-spacing:0.01em;}.cls-91{letter-spacing:0.04em;}.cls-92{font-family:Calibri, Calibri;}.cls-93{letter-spacing:-0.01em;}.cls-94{letter-spacing:0.03em;}.cls-95{letter-spacing:-0.06em;}.cls-96{letter-spacing:0.01em;}.cls-97{letter-spacing:-0.01em;}.cls-98{letter-spacing:-0.03em;}.cls-99{letter-spacing:0.04em;}.cls-101{letter-spacing:0em;}.cls-102{letter-spacing:0.01em;}.cls-103{letter-spacing:-0.01em;}.cls-104{letter-spacing:0.02em;}.cls-105{letter-spacing:0.01em;}.cls-106{letter-spacing:-0.06em;}.cls-107{letter-spacing:-0.01em;}.cls-108{letter-spacing:0.01em;}</style></defs><title>app-service-reference-architectures</title><rect class="cls-1" x="180" y="15.6" width="283.5" height="218.4"/><rect class="cls-2" x="180" y="15.6" width="283.5" height="218.4"/><rect class="cls-1" x="180" y="15.6" width="283.5" height="218.4"/><rect class="cls-2" x="180" y="15.6" width="283.5" height="218.4"/><rect class="cls-3" x="193.5" y="24.6" width="99" height="146.72"/><text class="cls-4" transform="translate(209.98 36.98)"><tspan class="cls-5">A</tspan><tspan class="cls-6" x="5.99" y="0">p</tspan><tspan class="cls-7" x="10.79" y="0">p</tspan><tspan class="cls-8" x="16.18" y="0"> </tspan><tspan x="18.59" y="0">S</tspan><tspan class="cls-9" x="23.37" y="0">e</tspan><tspan class="cls-10" x="28.19" y="0">r</tspan><tspan class="cls-11" x="31.19" y="0">v</tspan><tspan class="cls-12" x="35.97" y="0">i</tspan><tspan class="cls-13" x="37.77" y="0">c</tspan><tspan class="cls-14" x="41.96" y="0">e</tspan><tspan class="cls-8" x="46.75" y="0"> </tspan><tspan class="cls-7" x="49.16" y="0">p</tspan><tspan class="cls-15" x="54.55" y="0">l</tspan><tspan class="cls-16" x="56.94" y="0">a</tspan><tspan x="61.15" y="0">n</tspan></text><rect class="cls-3" x="193.5" y="24.6" width="99" height="146.72"/><text class="cls-4" transform="translate(209.98 36.98)"><tspan class="cls-5">A</tspan><tspan class="cls-6" x="5.99" y="0">p</tspan><tspan class="cls-7" x="10.79" y="0">p</tspan><tspan class="cls-8" x="16.18" y="0"> </tspan><tspan x="18.59" y="0">S</tspan><tspan class="cls-9" x="23.37" y="0">e</tspan><tspan class="cls-10" x="28.19" y="0">r</tspan><tspan class="cls-11" x="31.19" y="0">v</tspan><tspan class="cls-12" x="35.97" y="0">i</tspan><tspan class="cls-13" x="37.77" y="0">c</tspan><tspan class="cls-14" x="41.96" y="0">e</tspan><tspan class="cls-8" x="46.75" y="0"> </tspan><tspan class="cls-7" x="49.16" y="0">p</tspan><tspan class="cls-15" x="54.55" y="0">l</tspan><tspan class="cls-16" x="56.94" y="0">a</tspan><tspan x="61.15" y="0">n</tspan></text><rect class="cls-3" x="319.5" y="24.6" width="135" height="146.72"/><text class="cls-4" transform="translate(347.08 36.98)"><tspan class="cls-17">A</tspan><tspan class="cls-18" x="5.99" y="0">z</tspan><tspan class="cls-19" x="9.59" y="0">u</tspan><tspan class="cls-10" x="14.98" y="0">r</tspan><tspan class="cls-14" x="17.98" y="0">e</tspan><tspan class="cls-20" x="22.77" y="0"> </tspan><tspan x="25.18" y="0">S</tspan><tspan class="cls-21" x="29.96" y="0">Q</tspan><tspan class="cls-22" x="36.59" y="0">L</tspan><tspan class="cls-23" x="40.8" y="0"> </tspan><tspan class="cls-24" x="43.79" y="0">D</tspan><tspan class="cls-15" x="49.79" y="0">a</tspan><tspan class="cls-25" x="54.58" y="0">t</tspan><tspan class="cls-16" x="57.58" y="0">a</tspan><tspan class="cls-26" x="61.79" y="0">b</tspan><tspan class="cls-15" x="67.18" y="0">a</tspan><tspan class="cls-27" x="71.97" y="0">s</tspan><tspan class="cls-28" x="75.57" y="0">e</tspan></text><rect class="cls-3" x="319.5" y="24.6" width="135" height="146.72"/><text class="cls-4" transform="translate(347.08 36.98)"><tspan class="cls-17">A</tspan><tspan class="cls-18" x="5.99" y="0">z</tspan><tspan class="cls-19" x="9.59" y="0">u</tspan><tspan class="cls-10" x="14.98" y="0">r</tspan><tspan class="cls-14" x="17.98" y="0">e</tspan><tspan class="cls-20" x="22.77" y="0"> </tspan><tspan x="25.18" y="0">S</tspan><tspan class="cls-21" x="29.96" y="0">Q</tspan><tspan class="cls-22" x="36.59" y="0">L</tspan><tspan class="cls-23" x="40.8" y="0"> </tspan><tspan class="cls-24" x="43.79" y="0">D</tspan><tspan class="cls-15" x="49.79" y="0">a</tspan><tspan class="cls-25" x="54.58" y="0">t</tspan><tspan class="cls-16" x="57.58" y="0">a</tspan><tspan class="cls-26" x="61.79" y="0">b</tspan><tspan class="cls-15" x="67.18" y="0">a</tspan><tspan class="cls-27" x="71.97" y="0">s</tspan><tspan class="cls-28" x="75.57" y="0">e</tspan></text><rect class="cls-1" x="333" y="61.07" width="108" height="96.75"/><rect class="cls-29" x="333" y="61.07" width="108" height="96.75"/><rect class="cls-1" x="333" y="61.07" width="108" height="96.75"/><rect class="cls-29" x="333" y="61.07" width="108" height="96.75"/><rect class="cls-1" width="144" height="216"/><rect class="cls-1" width="144" height="216"/><path class="cls-30" d="M383.4,45.67c-6,0-10.79,2-10.79,4.27V70.13c0,2.23,4.83,4.34,10.79,4.34s10.81-2,10.81-4.25V50.05C394.21,47.81,389.37,45.67,383.4,45.67Z"/><path class="cls-31" d="M383.4,45.67c-6,0-10.79,2-10.79,4.27V70.13c0,2.23,4.83,4.34,10.79,4.34s10.81-2,10.81-4.25V50.05C394.21,47.81,389.37,45.67,383.4,45.67Z"/><path class="cls-32" d="M384.33,60a.92.92,0,0,0-.32-.33.83.83,0,0,0-.46-.13,1,1,0,0,0-.5.13,1.19,1.19,0,0,0-.35.32,2,2,0,0,0-.19.49,2.65,2.65,0,0,0-.06.58,2.24,2.24,0,0,0,.09.68,1.58,1.58,0,0,0,.23.47.84.84,0,0,0,.34.26,1,1,0,0,0,.42.09.92.92,0,0,0,.39-.09.78.78,0,0,0,.33-.27,1.25,1.25,0,0,0,.25-.46,2.4,2.4,0,0,0,.08-.65,2.23,2.23,0,0,0-.06-.59A1.49,1.49,0,0,0,384.33,60Z"/><path class="cls-32" d="M383.4,51.93c-4.25,0-7.7-1-7.7-2.36s3.45-2.35,7.7-2.35,7.69,1,7.69,2.35S387.65,51.93,383.4,51.93Zm7.59,12h-3.74v-5.8H389v4.43h2Zm-6.43,1.47L383.28,64a3,3,0,0,1-1-.25,2.68,2.68,0,0,1-1.44-1.49,3.36,3.36,0,0,1-.2-1.18,3.47,3.47,0,0,1,.21-1.24,2.78,2.78,0,0,1,.62-1,2.62,2.62,0,0,1,.93-.64,3.38,3.38,0,0,1,1.21-.22,3.13,3.13,0,0,1,1.15.21,2.66,2.66,0,0,1,.9.59,2.91,2.91,0,0,1,.6.94,3.43,3.43,0,0,1,.21,1.24,3.12,3.12,0,0,1-.13.93,2.8,2.8,0,0,1-.33.77,2.73,2.73,0,0,1-1.15,1l1.95,1.66Zm-4.4-2.81A1.18,1.18,0,0,1,380,63a1.52,1.52,0,0,1-.29.39,2.17,2.17,0,0,1-.47.33,2.7,2.7,0,0,1-.66.21,3.48,3.48,0,0,1-.89.09,4.28,4.28,0,0,1-.52,0l-.46-.07a3,3,0,0,1-.38-.1c-.12,0-.22-.08-.31-.11V62.15c.1.06.21.14.34.21a3.71,3.71,0,0,0,.4.19,3.19,3.19,0,0,0,.44.13,1.37,1.37,0,0,0,.44.06.9.9,0,0,0,.31,0,.35.35,0,0,0,.18-.1.22.22,0,0,0,.09-.12.35.35,0,0,0,0-.14.48.48,0,0,0-.07-.24.59.59,0,0,0-.18-.17,2,2,0,0,0-.29-.15l-.37-.15a2.64,2.64,0,0,1-.65-.33,2.11,2.11,0,0,1-.43-.41,1.57,1.57,0,0,1-.25-.48,1.72,1.72,0,0,1-.07-.52,1.81,1.81,0,0,1,.17-.77,1.89,1.89,0,0,1,.48-.58,2.22,2.22,0,0,1,.74-.36,3.23,3.23,0,0,1,1-.13l.54,0a2.75,2.75,0,0,1,.44.06,1.81,1.81,0,0,1,.35.07l.27.07v1.48a1.46,1.46,0,0,0-.28-.14,2,2,0,0,0-.34-.13l-.39-.1a3,3,0,0,0-.42,0,.91.91,0,0,0-.47.1.36.36,0,0,0-.18.31.33.33,0,0,0,0,.17.75.75,0,0,0,.12.14l.23.14.35.15c.24.1.46.2.67.31a3.07,3.07,0,0,1,.52.39,1.46,1.46,0,0,1,.33.49,1.44,1.44,0,0,1,.13.64A1.18,1.18,0,0,1,380.16,62.6Zm3.24-16.93c-6,0-10.79,2-10.79,4.27V70.13c0,2.23,4.83,4.34,10.79,4.34s10.81-2,10.81-4.25V50.05C394.21,47.81,389.37,45.67,383.4,45.67Z"/><path class="cls-32" d="M384.33,60a.92.92,0,0,0-.32-.33.83.83,0,0,0-.46-.13,1,1,0,0,0-.5.13,1.19,1.19,0,0,0-.35.32,2,2,0,0,0-.19.49,2.65,2.65,0,0,0-.06.58,2.24,2.24,0,0,0,.09.68,1.58,1.58,0,0,0,.23.47.84.84,0,0,0,.34.26,1,1,0,0,0,.42.09.92.92,0,0,0,.39-.09.78.78,0,0,0,.33-.27,1.25,1.25,0,0,0,.25-.46,2.4,2.4,0,0,0,.08-.65,2.23,2.23,0,0,0-.06-.59A1.49,1.49,0,0,0,384.33,60Z"/><path class="cls-32" d="M383.4,51.93c-4.25,0-7.7-1-7.7-2.36s3.45-2.35,7.7-2.35,7.69,1,7.69,2.35S387.65,51.93,383.4,51.93Zm7.59,12h-3.74v-5.8H389v4.43h2Zm-6.43,1.47L383.28,64a3,3,0,0,1-1-.25,2.68,2.68,0,0,1-1.44-1.49,3.36,3.36,0,0,1-.2-1.18,3.47,3.47,0,0,1,.21-1.24,2.78,2.78,0,0,1,.62-1,2.62,2.62,0,0,1,.93-.64,3.38,3.38,0,0,1,1.21-.22,3.13,3.13,0,0,1,1.15.21,2.66,2.66,0,0,1,.9.59,2.91,2.91,0,0,1,.6.94,3.43,3.43,0,0,1,.21,1.24,3.12,3.12,0,0,1-.13.93,2.8,2.8,0,0,1-.33.77,2.73,2.73,0,0,1-1.15,1l1.95,1.66Zm-4.4-2.81A1.18,1.18,0,0,1,380,63a1.52,1.52,0,0,1-.29.39,2.17,2.17,0,0,1-.47.33,2.7,2.7,0,0,1-.66.21,3.48,3.48,0,0,1-.89.09,4.28,4.28,0,0,1-.52,0l-.46-.07a3,3,0,0,1-.38-.1c-.12,0-.22-.08-.31-.11V62.15c.1.06.21.14.34.21a3.71,3.71,0,0,0,.4.19,3.19,3.19,0,0,0,.44.13,1.37,1.37,0,0,0,.44.06.9.9,0,0,0,.31,0,.35.35,0,0,0,.18-.1.22.22,0,0,0,.09-.12.35.35,0,0,0,0-.14.48.48,0,0,0-.07-.24.59.59,0,0,0-.18-.17,2,2,0,0,0-.29-.15l-.37-.15a2.64,2.64,0,0,1-.65-.33,2.11,2.11,0,0,1-.43-.41,1.57,1.57,0,0,1-.25-.48,1.72,1.72,0,0,1-.07-.52,1.81,1.81,0,0,1,.17-.77,1.89,1.89,0,0,1,.48-.58,2.22,2.22,0,0,1,.74-.36,3.23,3.23,0,0,1,1-.13l.54,0a2.75,2.75,0,0,1,.44.06,1.81,1.81,0,0,1,.35.07l.27.07v1.48a1.46,1.46,0,0,0-.28-.14,2,2,0,0,0-.34-.13l-.39-.1a3,3,0,0,0-.42,0,.91.91,0,0,0-.47.1.36.36,0,0,0-.18.31.33.33,0,0,0,0,.17.75.75,0,0,0,.12.14l.23.14.35.15c.24.1.46.2.67.31a3.07,3.07,0,0,1,.52.39,1.46,1.46,0,0,1,.33.49,1.44,1.44,0,0,1,.13.64A1.18,1.18,0,0,1,380.16,62.6Zm3.24-16.93c-6,0-10.79,2-10.79,4.27V70.13c0,2.23,4.83,4.34,10.79,4.34s10.81-2,10.81-4.25V50.05C394.21,47.81,389.37,45.67,383.4,45.67Z"/><path class="cls-30" d="M383.4,45.67c-6,0-10.79,2-10.79,4.27V70.13c0,2.23,4.83,4.34,10.79,4.34s10.81-2,10.81-4.25V50.05C394.21,47.81,389.37,45.67,383.4,45.67Z"/><path class="cls-31" d="M383.4,45.67c-6,0-10.79,2-10.79,4.27V70.13c0,2.23,4.83,4.34,10.79,4.34s10.81-2,10.81-4.25V50.05C394.21,47.81,389.37,45.67,383.4,45.67Z"/><path class="cls-32" d="M384.33,60a.92.92,0,0,0-.32-.33.83.83,0,0,0-.46-.13,1,1,0,0,0-.5.13,1.19,1.19,0,0,0-.35.32,2,2,0,0,0-.19.49,2.65,2.65,0,0,0-.06.58,2.24,2.24,0,0,0,.09.68,1.58,1.58,0,0,0,.23.47.84.84,0,0,0,.34.26,1,1,0,0,0,.42.09.92.92,0,0,0,.39-.09.78.78,0,0,0,.33-.27,1.25,1.25,0,0,0,.25-.46,2.4,2.4,0,0,0,.08-.65,2.23,2.23,0,0,0-.06-.59A1.49,1.49,0,0,0,384.33,60Z"/><path class="cls-32" d="M383.4,51.93c-4.25,0-7.7-1-7.7-2.36s3.45-2.35,7.7-2.35,7.69,1,7.69,2.35S387.65,51.93,383.4,51.93Zm7.59,12h-3.74v-5.8H389v4.43h2Zm-6.43,1.47L383.28,64a3,3,0,0,1-1-.25,2.68,2.68,0,0,1-1.44-1.49,3.36,3.36,0,0,1-.2-1.18,3.47,3.47,0,0,1,.21-1.24,2.78,2.78,0,0,1,.62-1,2.62,2.62,0,0,1,.93-.64,3.38,3.38,0,0,1,1.21-.22,3.13,3.13,0,0,1,1.15.21,2.66,2.66,0,0,1,.9.59,2.91,2.91,0,0,1,.6.94,3.43,3.43,0,0,1,.21,1.24,3.12,3.12,0,0,1-.13.93,2.8,2.8,0,0,1-.33.77,2.73,2.73,0,0,1-1.15,1l1.95,1.66Zm-4.4-2.81A1.18,1.18,0,0,1,380,63a1.52,1.52,0,0,1-.29.39,2.17,2.17,0,0,1-.47.33,2.7,2.7,0,0,1-.66.21,3.48,3.48,0,0,1-.89.09,4.28,4.28,0,0,1-.52,0l-.46-.07a3,3,0,0,1-.38-.1c-.12,0-.22-.08-.31-.11V62.15c.1.06.21.14.34.21a3.71,3.71,0,0,0,.4.19,3.19,3.19,0,0,0,.44.13,1.37,1.37,0,0,0,.44.06.9.9,0,0,0,.31,0,.35.35,0,0,0,.18-.1.22.22,0,0,0,.09-.12.35.35,0,0,0,0-.14.48.48,0,0,0-.07-.24.59.59,0,0,0-.18-.17,2,2,0,0,0-.29-.15l-.37-.15a2.64,2.64,0,0,1-.65-.33,2.11,2.11,0,0,1-.43-.41,1.57,1.57,0,0,1-.25-.48,1.72,1.72,0,0,1-.07-.52,1.81,1.81,0,0,1,.17-.77,1.89,1.89,0,0,1,.48-.58,2.22,2.22,0,0,1,.74-.36,3.23,3.23,0,0,1,1-.13l.54,0a2.75,2.75,0,0,1,.44.06,1.81,1.81,0,0,1,.35.07l.27.07v1.48a1.46,1.46,0,0,0-.28-.14,2,2,0,0,0-.34-.13l-.39-.1a3,3,0,0,0-.42,0,.91.91,0,0,0-.47.1.36.36,0,0,0-.18.31.33.33,0,0,0,0,.17.75.75,0,0,0,.12.14l.23.14.35.15c.24.1.46.2.67.31a3.07,3.07,0,0,1,.52.39,1.46,1.46,0,0,1,.33.49,1.44,1.44,0,0,1,.13.64A1.18,1.18,0,0,1,380.16,62.6Zm3.24-16.93c-6,0-10.79,2-10.79,4.27V70.13c0,2.23,4.83,4.34,10.79,4.34s10.81-2,10.81-4.25V50.05C394.21,47.81,389.37,45.67,383.4,45.67Z"/><path class="cls-33" d="M399.23,63.3l-1.34.66-.81-.32-.51-1.4H395.4l-.46,1.4-.82.32-1.37-.62-.83.81.68,1.3-.34.78-1.43.51v1.14l1.42.45.35.8L392,70.46l.84.81,1.33-.66.81.33.52,1.38h1.17l.46-1.38.81-.33,1.37.63.83-.81-.67-1.3.33-.8,1.42-.5V66.69l-1.42-.46-.33-.78.65-1.33ZM396,68.9a1.61,1.61,0,1,1,0-3.22,1.61,1.61,0,1,1,0,3.22Z"/><path class="cls-33" d="M399.23,63.3l-1.34.66-.81-.32-.51-1.4H395.4l-.46,1.4-.82.32-1.37-.62-.83.81.68,1.3-.34.78-1.43.51v1.14l1.42.45.35.8L392,70.46l.84.81,1.33-.66.81.33.52,1.38h1.17l.46-1.38.81-.33,1.37.63.83-.81-.67-1.3.33-.8,1.42-.5V66.69l-1.42-.46-.33-.78.65-1.33ZM396,68.9a1.61,1.61,0,1,1,0-3.22,1.61,1.61,0,1,1,0,3.22Z"/><text class="cls-4" transform="translate(360.23 88.52)"><tspan class="cls-34">L</tspan><tspan class="cls-35" x="4.21" y="0">o</tspan><tspan class="cls-36" x="9.6" y="0">g</tspan><tspan class="cls-12" x="14.99" y="0">i</tspan><tspan class="cls-13" x="16.79" y="0">c</tspan><tspan class="cls-15" x="20.98" y="0">al</tspan><tspan class="cls-37" x="28.16" y="0"> </tspan><tspan class="cls-38" x="30.57" y="0">s</tspan><tspan class="cls-39" x="34.17" y="0">e</tspan><tspan class="cls-10" x="38.96" y="0">r</tspan><tspan class="cls-40" x="41.96" y="0">v</tspan><tspan class="cls-39" x="46.17" y="0">e</tspan><tspan x="50.95" y="0">r</tspan></text><path class="cls-30" d="M383.4,45.67c-6,0-10.79,2-10.79,4.27V70.13c0,2.23,4.83,4.34,10.79,4.34s10.81-2,10.81-4.25V50.05C394.21,47.81,389.37,45.67,383.4,45.67Z"/><path class="cls-31" d="M383.4,45.67c-6,0-10.79,2-10.79,4.27V70.13c0,2.23,4.83,4.34,10.79,4.34s10.81-2,10.81-4.25V50.05C394.21,47.81,389.37,45.67,383.4,45.67Z"/><path class="cls-32" d="M384.33,60a.92.92,0,0,0-.32-.33.83.83,0,0,0-.46-.13,1,1,0,0,0-.5.13,1.19,1.19,0,0,0-.35.32,2,2,0,0,0-.19.49,2.65,2.65,0,0,0-.06.58,2.24,2.24,0,0,0,.09.68,1.58,1.58,0,0,0,.23.47.84.84,0,0,0,.34.26,1,1,0,0,0,.42.09.92.92,0,0,0,.39-.09.78.78,0,0,0,.33-.27,1.25,1.25,0,0,0,.25-.46,2.4,2.4,0,0,0,.08-.65,2.23,2.23,0,0,0-.06-.59A1.49,1.49,0,0,0,384.33,60Z"/><path class="cls-32" d="M383.4,51.93c-4.25,0-7.7-1-7.7-2.36s3.45-2.35,7.7-2.35,7.69,1,7.69,2.35S387.65,51.93,383.4,51.93Zm7.59,12h-3.74v-5.8H389v4.43h2Zm-6.43,1.47L383.28,64a3,3,0,0,1-1-.25,2.68,2.68,0,0,1-1.44-1.49,3.36,3.36,0,0,1-.2-1.18,3.47,3.47,0,0,1,.21-1.24,2.78,2.78,0,0,1,.62-1,2.62,2.62,0,0,1,.93-.64,3.38,3.38,0,0,1,1.21-.22,3.13,3.13,0,0,1,1.15.21,2.66,2.66,0,0,1,.9.59,2.91,2.91,0,0,1,.6.94,3.43,3.43,0,0,1,.21,1.24,3.12,3.12,0,0,1-.13.93,2.8,2.8,0,0,1-.33.77,2.73,2.73,0,0,1-1.15,1l1.95,1.66Zm-4.4-2.81A1.18,1.18,0,0,1,380,63a1.52,1.52,0,0,1-.29.39,2.17,2.17,0,0,1-.47.33,2.7,2.7,0,0,1-.66.21,3.48,3.48,0,0,1-.89.09,4.28,4.28,0,0,1-.52,0l-.46-.07a3,3,0,0,1-.38-.1c-.12,0-.22-.08-.31-.11V62.15c.1.06.21.14.34.21a3.71,3.71,0,0,0,.4.19,3.19,3.19,0,0,0,.44.13,1.37,1.37,0,0,0,.44.06.9.9,0,0,0,.31,0,.35.35,0,0,0,.18-.1.22.22,0,0,0,.09-.12.35.35,0,0,0,0-.14.48.48,0,0,0-.07-.24.59.59,0,0,0-.18-.17,2,2,0,0,0-.29-.15l-.37-.15a2.64,2.64,0,0,1-.65-.33,2.11,2.11,0,0,1-.43-.41,1.57,1.57,0,0,1-.25-.48,1.72,1.72,0,0,1-.07-.52,1.81,1.81,0,0,1,.17-.77,1.89,1.89,0,0,1,.48-.58,2.22,2.22,0,0,1,.74-.36,3.23,3.23,0,0,1,1-.13l.54,0a2.75,2.75,0,0,1,.44.06,1.81,1.81,0,0,1,.35.07l.27.07v1.48a1.46,1.46,0,0,0-.28-.14,2,2,0,0,0-.34-.13l-.39-.1a3,3,0,0,0-.42,0,.91.91,0,0,0-.47.1.36.36,0,0,0-.18.31.33.33,0,0,0,0,.17.75.75,0,0,0,.12.14l.23.14.35.15c.24.1.46.2.67.31a3.07,3.07,0,0,1,.52.39,1.46,1.46,0,0,1,.33.49,1.44,1.44,0,0,1,.13.64A1.18,1.18,0,0,1,380.16,62.6Zm3.24-16.93c-6,0-10.79,2-10.79,4.27V70.13c0,2.23,4.83,4.34,10.79,4.34s10.81-2,10.81-4.25V50.05C394.21,47.81,389.37,45.67,383.4,45.67Z"/><path class="cls-33" d="M399.23,63.3l-1.34.66-.81-.32-.51-1.4H395.4l-.46,1.4-.82.32-1.37-.62-.83.81.68,1.3-.34.78-1.43.51v1.14l1.42.45.35.8L392,70.46l.84.81,1.33-.66.81.33.52,1.38h1.17l.46-1.38.81-.33,1.37.63.83-.81-.67-1.3.33-.8,1.42-.5V66.69l-1.42-.46-.33-.78.65-1.33ZM396,68.9a1.61,1.61,0,1,1,0-3.22,1.61,1.61,0,1,1,0,3.22Z"/><text class="cls-4" transform="translate(360.23 88.52)"><tspan class="cls-34">L</tspan><tspan class="cls-35" x="4.21" y="0">o</tspan><tspan class="cls-36" x="9.6" y="0">g</tspan><tspan class="cls-12" x="14.99" y="0">i</tspan><tspan class="cls-13" x="16.79" y="0">c</tspan><tspan class="cls-15" x="20.98" y="0">al</tspan><tspan class="cls-37" x="28.16" y="0"> </tspan><tspan class="cls-38" x="30.57" y="0">s</tspan><tspan class="cls-39" x="34.17" y="0">e</tspan><tspan class="cls-10" x="38.96" y="0">r</tspan><tspan class="cls-40" x="41.96" y="0">v</tspan><tspan class="cls-39" x="46.17" y="0">e</tspan><tspan x="50.95" y="0">r</tspan></text><path class="cls-30" d="M254.39,109.07a14.32,14.32,0,0,0-20.11-2.68,14.44,14.44,0,0,0-2.66,20.19,14.29,14.29,0,0,0,20.1,2.68A14.45,14.45,0,0,0,254.39,109.07Z"/><path class="cls-31" d="M254.39,109.07a14.32,14.32,0,0,0-20.11-2.68,14.44,14.44,0,0,0-2.66,20.19,14.29,14.29,0,0,0,20.1,2.68A14.45,14.45,0,0,0,254.39,109.07Z"/><path class="cls-32" d="M254.39,109.07a14.32,14.32,0,0,0-20.11-2.68,14.44,14.44,0,0,0-2.66,20.19,14.29,14.29,0,0,0,20.1,2.68A14.45,14.45,0,0,0,254.39,109.07Zm-3.81,18.7a12.43,12.43,0,0,1-17.49-2.32,12.55,12.55,0,0,1,2.33-17.57,12.43,12.43,0,0,1,17.49,2.34A12.54,12.54,0,0,1,250.58,127.77Z"/><path class="cls-32" d="M254.39,109.07a14.32,14.32,0,0,0-20.11-2.68,14.44,14.44,0,0,0-2.66,20.19,14.29,14.29,0,0,0,20.1,2.68A14.45,14.45,0,0,0,254.39,109.07Zm-3.81,18.7a12.43,12.43,0,0,1-17.49-2.32,12.55,12.55,0,0,1,2.33-17.57,12.43,12.43,0,0,1,17.49,2.34A12.54,12.54,0,0,1,250.58,127.77Z"/><path class="cls-32" d="M236.52,120.44a16.64,16.64,0,0,1-2-2.38,17.88,17.88,0,0,0-1.73,7c.12.16.12.29.24.45a13.2,13.2,0,0,0,2.08,2.08A14.06,14.06,0,0,1,236.52,120.44Z"/><path class="cls-32" d="M236.52,120.44a16.64,16.64,0,0,1-2-2.38,17.88,17.88,0,0,0-1.73,7c.12.16.12.29.24.45a13.2,13.2,0,0,0,2.08,2.08A14.06,14.06,0,0,1,236.52,120.44Z"/><path class="cls-32" d="M240.86,110.85a21.44,21.44,0,0,0-3.46,3,17.29,17.29,0,0,0-1.67,2.08,15.8,15.8,0,0,0,2,2.51,17.81,17.81,0,0,1,2.28-2.61,28.24,28.24,0,0,1,3.26-2.64C242.4,112.43,241.6,111.65,240.86,110.85Z"/><path class="cls-32" d="M252.78,110a12.21,12.21,0,0,0-1.8-1.86,13.32,13.32,0,0,0-8.35,1.57c.79.85,1.56,1.64,2.33,2.39C249.53,109.67,252.78,110,252.78,110Z"/><path class="cls-32" d="M252.78,110a12.21,12.21,0,0,0-1.8-1.86,13.32,13.32,0,0,0-8.35,1.57c.79.85,1.56,1.64,2.33,2.39C249.53,109.67,252.78,110,252.78,110Z"/><path class="cls-32" d="M234.49,118.05a19.08,19.08,0,0,1,1.23-2.1,9.74,9.74,0,0,1-1.65-6.9,13.73,13.73,0,0,0-1.35,1.63C232.32,112.32,232.3,114.92,234.49,118.05Z"/><path class="cls-32" d="M234.49,118.05a19.08,19.08,0,0,1,1.23-2.1,9.74,9.74,0,0,1-1.65-6.9,13.73,13.73,0,0,0-1.35,1.63C232.32,112.32,232.3,114.92,234.49,118.05Z"/><path class="cls-32" d="M240.06,120.62a24.36,24.36,0,0,1-2.36-2.16,14.84,14.84,0,0,0-1.19,2,27.06,27.06,0,0,0,2.17,1.94,20.23,20.23,0,0,0,13.06,4.45,9.75,9.75,0,0,0,1.6-2C252.06,125.12,246.6,125.82,240.06,120.62Z"/><path class="cls-32" d="M240.06,120.62a24.36,24.36,0,0,1-2.36-2.16,14.84,14.84,0,0,0-1.19,2,27.06,27.06,0,0,0,2.17,1.94,20.23,20.23,0,0,0,13.06,4.45,9.75,9.75,0,0,0,1.6-2C252.06,125.12,246.6,125.82,240.06,120.62Z"/><path class="cls-32" d="M234.49,118.05a17.12,17.12,0,0,0,2,2.39,14.84,14.84,0,0,1,1.19-2,15.8,15.8,0,0,1-2-2.51A16.46,16.46,0,0,0,234.49,118.05Z"/><path class="cls-32" d="M234.49,118.05a17.12,17.12,0,0,0,2,2.39,14.84,14.84,0,0,1,1.19-2,15.8,15.8,0,0,1-2-2.51A16.46,16.46,0,0,0,234.49,118.05Z"/><path class="cls-32" d="M243.24,113.21a100.85,100.85,0,0,0,11.59,9,9.48,9.48,0,0,0,.33-1.07A98.76,98.76,0,0,1,245,112.15,16.67,16.67,0,0,0,243.24,113.21Z"/><path class="cls-32" d="M243.24,113.21a100.85,100.85,0,0,0,11.59,9,9.48,9.48,0,0,0,.33-1.07A98.76,98.76,0,0,1,245,112.15,16.67,16.67,0,0,0,243.24,113.21Z"/><path class="cls-32" d="M242.63,109.74c-1.15-1.2-2.31-2.48-3.49-3.86a11.87,11.87,0,0,0-1.65.67,26.73,26.73,0,0,0,3.37,4.3A16.56,16.56,0,0,1,242.63,109.74Z"/><path class="cls-32" d="M242.63,109.74c-1.15-1.2-2.31-2.48-3.49-3.86a11.87,11.87,0,0,0-1.65.67,26.73,26.73,0,0,0,3.37,4.3A16.56,16.56,0,0,1,242.63,109.74Z"/><path class="cls-32" d="M242.7,109.71a19.65,19.65,0,0,0-1.94,1.2c.75.8,1.5,1.62,2.33,2.4.6-.41,1.4-.91,1.95-1.21C244.28,111.36,243.49,110.56,242.7,109.71Z"/><path class="cls-32" d="M242.49,109.6a16.58,16.58,0,0,0-1.73,1.14c.74.8,1.8,1.84,2.63,2.61.61-.4,1.1-.82,1.65-1.12C244.28,111.49,243.28,110.45,242.49,109.6Z"/><path class="cls-32" d="M236.52,120.44a16.64,16.64,0,0,1-2-2.38,17.88,17.88,0,0,0-1.73,7c.12.16.12.29.24.45a13.2,13.2,0,0,0,2.08,2.08A14.06,14.06,0,0,1,236.52,120.44Z"/><path class="cls-32" d="M240.86,110.85a21.44,21.44,0,0,0-3.46,3,17.29,17.29,0,0,0-1.67,2.08,15.8,15.8,0,0,0,2,2.51,17.81,17.81,0,0,1,2.28-2.61,28.24,28.24,0,0,1,3.26-2.64C242.4,112.43,241.6,111.65,240.86,110.85Z"/><path class="cls-32" d="M252.78,110a12.21,12.21,0,0,0-1.8-1.86,13.32,13.32,0,0,0-8.35,1.57c.79.85,1.56,1.64,2.33,2.39C249.53,109.67,252.78,110,252.78,110Z"/><path class="cls-32" d="M234.49,118.05a19.08,19.08,0,0,1,1.23-2.1,9.74,9.74,0,0,1-1.65-6.9,13.73,13.73,0,0,0-1.35,1.63C232.32,112.32,232.3,114.92,234.49,118.05Z"/><path class="cls-32" d="M240.06,120.62a24.36,24.36,0,0,1-2.36-2.16,14.84,14.84,0,0,0-1.19,2,27.06,27.06,0,0,0,2.17,1.94,20.23,20.23,0,0,0,13.06,4.45,9.75,9.75,0,0,0,1.6-2C252.06,125.12,246.6,125.82,240.06,120.62Z"/><path class="cls-32" d="M234.49,118.05a17.12,17.12,0,0,0,2,2.39,14.84,14.84,0,0,1,1.19-2,15.8,15.8,0,0,1-2-2.51A16.46,16.46,0,0,0,234.49,118.05Z"/><path class="cls-32" d="M243.24,113.21a100.85,100.85,0,0,0,11.59,9,9.48,9.48,0,0,0,.33-1.07A98.76,98.76,0,0,1,245,112.15,16.67,16.67,0,0,0,243.24,113.21Z"/><path class="cls-32" d="M242.63,109.74c-1.15-1.2-2.31-2.48-3.49-3.86a11.87,11.87,0,0,0-1.65.67,26.73,26.73,0,0,0,3.37,4.3A16.56,16.56,0,0,1,242.63,109.74Z"/><path class="cls-32" d="M242.7,109.71a19.65,19.65,0,0,0-1.94,1.2c.75.8,1.5,1.62,2.33,2.4.6-.41,1.4-.91,1.95-1.21C244.28,111.36,243.49,110.56,242.7,109.71Z"/><path class="cls-32" d="M242.49,109.6a16.58,16.58,0,0,0-1.73,1.14c.74.8,1.8,1.84,2.63,2.61.61-.4,1.1-.82,1.65-1.12C244.28,111.49,243.28,110.45,242.49,109.6Z"/><path class="cls-32" d="M248.79,116.26a2.69,2.69,0,0,0,3.27,4.27,2.69,2.69,0,1,0-3.27-4.27Z"/><path class="cls-32" d="M248.79,116.26a2.69,2.69,0,0,0,3.27,4.27,2.69,2.69,0,1,0-3.27-4.27Z"/><path class="cls-32" d="M243.26,123a2.49,2.49,0,1,0,3.48.46A2.47,2.47,0,0,0,243.26,123Z"/><path class="cls-32" d="M243.26,123a2.49,2.49,0,1,0,3.48.46A2.47,2.47,0,0,0,243.26,123Z"/><path class="cls-32" d="M233.91,115a3.78,3.78,0,1,0,5.29.68A3.78,3.78,0,0,0,233.91,115Z"/><path class="cls-32" d="M233.91,115a3.78,3.78,0,1,0,5.29.68A3.78,3.78,0,0,0,233.91,115Z"/><path class="cls-32" d="M236.52,120.44a16.64,16.64,0,0,1-2-2.38,17.88,17.88,0,0,0-1.73,7c.12.16.12.29.24.45a13.2,13.2,0,0,0,2.08,2.08A14.06,14.06,0,0,1,236.52,120.44Z"/><path class="cls-32" d="M240.86,110.85a21.44,21.44,0,0,0-3.46,3,17.29,17.29,0,0,0-1.67,2.08,15.8,15.8,0,0,0,2,2.51,17.81,17.81,0,0,1,2.28-2.61,28.24,28.24,0,0,1,3.26-2.64C242.4,112.43,241.6,111.65,240.86,110.85Z"/><path class="cls-32" d="M252.78,110a12.21,12.21,0,0,0-1.8-1.86,13.32,13.32,0,0,0-8.35,1.57c.79.85,1.56,1.64,2.33,2.39C249.53,109.67,252.78,110,252.78,110Z"/><path class="cls-32" d="M234.49,118.05a19.08,19.08,0,0,1,1.23-2.1,9.74,9.74,0,0,1-1.65-6.9,13.73,13.73,0,0,0-1.35,1.63C232.32,112.32,232.3,114.92,234.49,118.05Z"/><path class="cls-32" d="M240.06,120.62a24.36,24.36,0,0,1-2.36-2.16,14.84,14.84,0,0,0-1.19,2,27.06,27.06,0,0,0,2.17,1.94,20.23,20.23,0,0,0,13.06,4.45,9.75,9.75,0,0,0,1.6-2C252.06,125.12,246.6,125.82,240.06,120.62Z"/><path class="cls-32" d="M234.49,118.05a17.12,17.12,0,0,0,2,2.39,14.84,14.84,0,0,1,1.19-2,15.8,15.8,0,0,1-2-2.51A16.46,16.46,0,0,0,234.49,118.05Z"/><path class="cls-32" d="M243.24,113.21a100.85,100.85,0,0,0,11.59,9,9.48,9.48,0,0,0,.33-1.07A98.76,98.76,0,0,1,245,112.15,16.67,16.67,0,0,0,243.24,113.21Z"/><path class="cls-32" d="M242.63,109.74c-1.15-1.2-2.31-2.48-3.49-3.86a11.87,11.87,0,0,0-1.65.67,26.73,26.73,0,0,0,3.37,4.3A16.56,16.56,0,0,1,242.63,109.74Z"/><path class="cls-32" d="M242.7,109.71a19.65,19.65,0,0,0-1.94,1.2c.75.8,1.5,1.62,2.33,2.4.6-.41,1.4-.91,1.95-1.21C244.28,111.36,243.49,110.56,242.7,109.71Z"/><path class="cls-32" d="M242.49,109.6a16.58,16.58,0,0,0-1.73,1.14c.74.8,1.8,1.84,2.63,2.61.61-.4,1.1-.82,1.65-1.12C244.28,111.49,243.28,110.45,242.49,109.6Z"/><path class="cls-32" d="M248.79,116.26a2.69,2.69,0,0,0,3.27,4.27,2.69,2.69,0,1,0-3.27-4.27Z"/><path class="cls-32" d="M243.26,123a2.49,2.49,0,1,0,3.48.46A2.47,2.47,0,0,0,243.26,123Z"/><path class="cls-32" d="M233.91,115a3.78,3.78,0,1,0,5.29.68A3.78,3.78,0,0,0,233.91,115Z"/><path class="cls-32" d="M254.39,109.07a14.32,14.32,0,0,0-20.11-2.68,14.44,14.44,0,0,0-2.66,20.19,14.29,14.29,0,0,0,20.1,2.68A14.45,14.45,0,0,0,254.39,109.07Zm-3.81,18.7a12.43,12.43,0,0,1-17.49-2.32,12.55,12.55,0,0,1,2.33-17.57,12.43,12.43,0,0,1,17.49,2.34A12.54,12.54,0,0,1,250.58,127.77Z"/><path class="cls-32" d="M236.52,120.44a16.64,16.64,0,0,1-2-2.38,17.88,17.88,0,0,0-1.73,7c.12.16.12.29.24.45a13.2,13.2,0,0,0,2.08,2.08A14.06,14.06,0,0,1,236.52,120.44Z"/><path class="cls-32" d="M240.86,110.85a21.44,21.44,0,0,0-3.46,3,17.29,17.29,0,0,0-1.67,2.08,15.8,15.8,0,0,0,2,2.51,17.81,17.81,0,0,1,2.28-2.61,28.24,28.24,0,0,1,3.26-2.64C242.4,112.43,241.6,111.65,240.86,110.85Z"/><path class="cls-32" d="M252.78,110a12.21,12.21,0,0,0-1.8-1.86,13.32,13.32,0,0,0-8.35,1.57c.79.85,1.56,1.64,2.33,2.39C249.53,109.67,252.78,110,252.78,110Z"/><path class="cls-32" d="M234.49,118.05a19.08,19.08,0,0,1,1.23-2.1,9.74,9.74,0,0,1-1.65-6.9,13.73,13.73,0,0,0-1.35,1.63C232.32,112.32,232.3,114.92,234.49,118.05Z"/><path class="cls-32" d="M240.06,120.62a24.36,24.36,0,0,1-2.36-2.16,14.84,14.84,0,0,0-1.19,2,27.06,27.06,0,0,0,2.17,1.94,20.23,20.23,0,0,0,13.06,4.45,9.75,9.75,0,0,0,1.6-2C252.06,125.12,246.6,125.82,240.06,120.62Z"/><path class="cls-32" d="M234.49,118.05a17.12,17.12,0,0,0,2,2.39,14.84,14.84,0,0,1,1.19-2,15.8,15.8,0,0,1-2-2.51A16.46,16.46,0,0,0,234.49,118.05Z"/><path class="cls-32" d="M243.24,113.21a100.85,100.85,0,0,0,11.59,9,9.48,9.48,0,0,0,.33-1.07A98.76,98.76,0,0,1,245,112.15,16.67,16.67,0,0,0,243.24,113.21Z"/><path class="cls-32" d="M242.63,109.74c-1.15-1.2-2.31-2.48-3.49-3.86a11.87,11.87,0,0,0-1.65.67,26.73,26.73,0,0,0,3.37,4.3A16.56,16.56,0,0,1,242.63,109.74Z"/><path class="cls-32" d="M242.7,109.71a19.65,19.65,0,0,0-1.94,1.2c.75.8,1.5,1.62,2.33,2.4.6-.41,1.4-.91,1.95-1.21C244.28,111.36,243.49,110.56,242.7,109.71Z"/><path class="cls-32" d="M242.49,109.6a16.58,16.58,0,0,0-1.73,1.14c.74.8,1.8,1.84,2.63,2.61.61-.4,1.1-.82,1.65-1.12C244.28,111.49,243.28,110.45,242.49,109.6Z"/><path class="cls-32" d="M248.79,116.26a2.69,2.69,0,0,0,3.27,4.27,2.69,2.69,0,1,0-3.27-4.27Z"/><path class="cls-32" d="M243.26,123a2.49,2.49,0,1,0,3.48.46A2.47,2.47,0,0,0,243.26,123Z"/><path class="cls-32" d="M233.91,115a3.78,3.78,0,1,0,5.29.68A3.78,3.78,0,0,0,233.91,115Z"/><text class="cls-4" transform="translate(219.8 142.8)"><tspan class="cls-5">A</tspan><tspan class="cls-6" x="5.99" y="0">p</tspan><tspan class="cls-7" x="10.79" y="0">p</tspan><tspan class="cls-8" x="16.18" y="0"> </tspan><tspan x="18.59" y="0">S</tspan><tspan class="cls-9" x="23.37" y="0">e</tspan><tspan class="cls-10" x="28.19" y="0">r</tspan><tspan class="cls-11" x="31.19" y="0">v</tspan><tspan class="cls-12" x="35.97" y="0">i</tspan><tspan class="cls-13" x="37.77" y="0">c</tspan><tspan x="41.96" y="0">e</tspan></text><text class="cls-4" transform="translate(226.15 153.6)"><tspan class="cls-14">we</tspan><tspan class="cls-7" x="11.37" y="0">b</tspan><tspan class="cls-8" x="16.76" y="0"> </tspan><tspan class="cls-16" x="19.17" y="0">a</tspan><tspan class="cls-7" x="23.38" y="0">p</tspan><tspan x="28.77" y="0">p</tspan></text><path class="cls-30" d="M254.39,109.07a14.32,14.32,0,0,0-20.11-2.68,14.44,14.44,0,0,0-2.66,20.19,14.29,14.29,0,0,0,20.1,2.68A14.45,14.45,0,0,0,254.39,109.07Z"/><path class="cls-31" d="M254.39,109.07a14.32,14.32,0,0,0-20.11-2.68,14.44,14.44,0,0,0-2.66,20.19,14.29,14.29,0,0,0,20.1,2.68A14.45,14.45,0,0,0,254.39,109.07Z"/><path class="cls-32" d="M254.39,109.07a14.32,14.32,0,0,0-20.11-2.68,14.44,14.44,0,0,0-2.66,20.19,14.29,14.29,0,0,0,20.1,2.68A14.45,14.45,0,0,0,254.39,109.07Zm-3.81,18.7a12.43,12.43,0,0,1-17.49-2.32,12.55,12.55,0,0,1,2.33-17.57,12.43,12.43,0,0,1,17.49,2.34A12.54,12.54,0,0,1,250.58,127.77Z"/><path class="cls-32" d="M236.52,120.44a16.64,16.64,0,0,1-2-2.38,17.88,17.88,0,0,0-1.73,7c.12.16.12.29.24.45a13.2,13.2,0,0,0,2.08,2.08A14.06,14.06,0,0,1,236.52,120.44Z"/><path class="cls-32" d="M240.86,110.85a21.44,21.44,0,0,0-3.46,3,17.29,17.29,0,0,0-1.67,2.08,15.8,15.8,0,0,0,2,2.51,17.81,17.81,0,0,1,2.28-2.61,28.24,28.24,0,0,1,3.26-2.64C242.4,112.43,241.6,111.65,240.86,110.85Z"/><path class="cls-32" d="M252.78,110a12.21,12.21,0,0,0-1.8-1.86,13.32,13.32,0,0,0-8.35,1.57c.79.85,1.56,1.64,2.33,2.39C249.53,109.67,252.78,110,252.78,110Z"/><path class="cls-32" d="M234.49,118.05a19.08,19.08,0,0,1,1.23-2.1,9.74,9.74,0,0,1-1.65-6.9,13.73,13.73,0,0,0-1.35,1.63C232.32,112.32,232.3,114.92,234.49,118.05Z"/><path class="cls-32" d="M240.06,120.62a24.36,24.36,0,0,1-2.36-2.16,14.84,14.84,0,0,0-1.19,2,27.06,27.06,0,0,0,2.17,1.94,20.23,20.23,0,0,0,13.06,4.45,9.75,9.75,0,0,0,1.6-2C252.06,125.12,246.6,125.82,240.06,120.62Z"/><path class="cls-32" d="M234.49,118.05a17.12,17.12,0,0,0,2,2.39,14.84,14.84,0,0,1,1.19-2,15.8,15.8,0,0,1-2-2.51A16.46,16.46,0,0,0,234.49,118.05Z"/><path class="cls-32" d="M243.24,113.21a100.85,100.85,0,0,0,11.59,9,9.48,9.48,0,0,0,.33-1.07A98.76,98.76,0,0,1,245,112.15,16.67,16.67,0,0,0,243.24,113.21Z"/><path class="cls-32" d="M242.63,109.74c-1.15-1.2-2.31-2.48-3.49-3.86a11.87,11.87,0,0,0-1.65.67,26.73,26.73,0,0,0,3.37,4.3A16.56,16.56,0,0,1,242.63,109.74Z"/><path class="cls-32" d="M242.7,109.71a19.65,19.65,0,0,0-1.94,1.2c.75.8,1.5,1.62,2.33,2.4.6-.41,1.4-.91,1.95-1.21C244.28,111.36,243.49,110.56,242.7,109.71Z"/><path class="cls-32" d="M242.49,109.6a16.58,16.58,0,0,0-1.73,1.14c.74.8,1.8,1.84,2.63,2.61.61-.4,1.1-.82,1.65-1.12C244.28,111.49,243.28,110.45,242.49,109.6Z"/><path class="cls-32" d="M248.79,116.26a2.69,2.69,0,0,0,3.27,4.27,2.69,2.69,0,1,0-3.27-4.27Z"/><path class="cls-32" d="M243.26,123a2.49,2.49,0,1,0,3.48.46A2.47,2.47,0,0,0,243.26,123Z"/><path class="cls-32" d="M233.91,115a3.78,3.78,0,1,0,5.29.68A3.78,3.78,0,0,0,233.91,115Z"/><text class="cls-4" transform="translate(219.8 142.8)"><tspan class="cls-5">A</tspan><tspan class="cls-6" x="5.99" y="0">p</tspan><tspan class="cls-7" x="10.79" y="0">p</tspan><tspan class="cls-8" x="16.18" y="0"> </tspan><tspan x="18.59" y="0">S</tspan><tspan class="cls-9" x="23.37" y="0">e</tspan><tspan class="cls-10" x="28.19" y="0">r</tspan><tspan class="cls-11" x="31.19" y="0">v</tspan><tspan class="cls-12" x="35.97" y="0">i</tspan><tspan class="cls-13" x="37.77" y="0">c</tspan><tspan x="41.96" y="0">e</tspan></text><text class="cls-4" transform="translate(226.15 153.6)"><tspan class="cls-14">we</tspan><tspan class="cls-7" x="11.37" y="0">b</tspan><tspan class="cls-8" x="16.76" y="0"> </tspan><tspan class="cls-16" x="19.17" y="0">a</tspan><tspan class="cls-7" x="23.38" y="0">p</tspan><tspan x="28.77" y="0">p</tspan></text><line class="cls-41" x1="95.66" y1="117.83" x2="221.92" y2="117.83"/><polygon class="cls-32" points="221.1 114.56 227.64 117.83 221.1 121.1 221.1 114.56"/><path class="cls-42" d="M75.74,102.64V69.55"/><polygon class="cls-33" points="72.47 70.37 75.74 63.83 79.01 70.37 72.47 70.37"/><rect class="cls-1" x="82.99" y="76.43" width="57.23" height="10.8"/><text class="cls-43" transform="translate(83.1 84.82)"><tspan class="cls-44">A</tspan><tspan class="cls-45" x="5.41" y="0">u</tspan><tspan class="cls-46" x="10.79" y="0">t</tspan><tspan class="cls-27" x="13.77" y="0">h</tspan><tspan class="cls-47" x="18.57" y="0">e</tspan><tspan class="cls-48" x="22.78" y="0">n</tspan><tspan class="cls-49" x="28.16" y="0">t</tspan><tspan class="cls-50" x="31.14" y="0">i</tspan><tspan class="cls-51" x="33.54" y="0">c</tspan><tspan class="cls-52" x="37.14" y="0">a</tspan><tspan class="cls-46" x="41.94" y="0">t</tspan><tspan class="cls-50" x="44.92" y="0">i</tspan><tspan x="47.31" y="0">on</tspan></text><path class="cls-42" d="M75.74,132.77v33.09"/><polygon class="cls-33" points="79.01 165.04 75.74 171.58 72.47 165.04 79.01 165.04"/><rect class="cls-1" x="86.33" y="138.63" width="38.41" height="21.6"/><text class="cls-43" transform="translate(93.77 147.05)"><tspan class="cls-53">N</tspan><tspan class="cls-54" x="6.61" y="0">a</tspan><tspan class="cls-49" x="11.41" y="0">m</tspan><tspan x="19.21" y="0">e</tspan></text><text class="cls-43" transform="translate(86.43 157.85)"><tspan class="cls-55">r</tspan><tspan class="cls-56" x="3.01" y="0">e</tspan><tspan class="cls-57" x="7.79" y="0">s</tspan><tspan x="11.37" y="0">o</tspan><tspan class="cls-58" x="16.19" y="0">l</tspan><tspan class="cls-45" x="17.98" y="0">u</tspan><tspan class="cls-46" x="23.36" y="0">t</tspan><tspan class="cls-59" x="26.34" y="0">i</tspan><tspan x="28.74" y="0">on</tspan></text><path class="cls-30" d="M93.12,132.23H59.32c-3.92,0-7.12-3.61-7.12-8s3.2-8,7.12-8a4.84,4.84,0,0,1,.84.07,6.25,6.25,0,0,1,5.4-3.38,5.56,5.56,0,0,1,1.79.3v-.28c0-5.2,3.74-9.43,8.35-9.43a8.3,8.3,0,0,1,7.5,5.46,7.25,7.25,0,0,1,3.93-1.17c4.44,0,8,4.07,8,9.07a10.9,10.9,0,0,1-.11,1.49A7.3,7.3,0,0,1,99,125,7.19,7.19,0,0,1,94.09,132Z"/><path class="cls-60" d="M93.12,132.23H59.32c-3.92,0-7.12-3.61-7.12-8s3.2-8,7.12-8a4.84,4.84,0,0,1,.84.07,6.25,6.25,0,0,1,5.4-3.38,5.56,5.56,0,0,1,1.79.3v-.28c0-5.2,3.74-9.43,8.35-9.43a8.3,8.3,0,0,1,7.5,5.46,7.25,7.25,0,0,1,3.93-1.17c4.44,0,8,4.07,8,9.07a10.9,10.9,0,0,1-.11,1.49A7.3,7.3,0,0,1,99,125,7.19,7.19,0,0,1,94.09,132Z"/><text class="cls-61" transform="translate(61.23 127.73)">I<tspan class="cls-62" x="2.4" y="0">n</tspan><tspan class="cls-63" x="7.21" y="0">t</tspan><tspan class="cls-64" x="10.8" y="0">e</tspan><tspan class="cls-65" x="15.01" y="0">r</tspan><tspan class="cls-62" x="18.6" y="0">n</tspan><tspan class="cls-66" x="23.41" y="0">e</tspan><tspan class="cls-67" x="28.2" y="0">t</tspan></text><polygon class="cls-30" points="75.77 33.37 61.34 50.48 75.69 62.17 90.14 50.54 75.77 33.37"/><polygon class="cls-31" points="75.77 33.37 61.34 50.48 75.69 62.17 90.14 50.54 75.77 33.37"/><path class="cls-32" d="M74.7,44.37l-4.8,4.4a2.24,2.24,0,0,1,.34,1.17,2.17,2.17,0,0,1-.1.62l5,3V44.92C75,44.9,74.75,44.4,74.7,44.37Z"/><path class="cls-32" d="M74.7,44.37l-4.8,4.4a2.24,2.24,0,0,1,.34,1.17,2.17,2.17,0,0,1-.1.62l5,3V44.92C75,44.9,74.75,44.4,74.7,44.37Z"/><path class="cls-32" d="M77.12,44.28c-.08,0-.87.64-1,.69v8.59L81.1,50.4a2.09,2.09,0,0,1,0-.49,2.73,2.73,0,0,1,.14-.83Z"/><path class="cls-32" d="M77.12,44.28c-.08,0-.87.64-1,.69v8.59L81.1,50.4a2.09,2.09,0,0,1,0-.49,2.73,2.73,0,0,1,.14-.83Z"/><path class="cls-32" d="M83.35,52.22a2.3,2.3,0,0,1-1.66-.71l-4,2.81a2.16,2.16,0,0,1,.39,1.26,2.31,2.31,0,1,1-4.62,0,2.25,2.25,0,0,1,.56-1.5l-4.57-2.45a2.26,2.26,0,0,1-1.56.62,2.31,2.31,0,0,1,0-4.62,2.23,2.23,0,0,1,1.08.28l4.78-4.42A2.52,2.52,0,0,1,73.27,42a2.55,2.55,0,0,1,5.09,0A2.44,2.44,0,0,1,78,43.3l4,4.76a2.27,2.27,0,0,1,1.38-.46,2.31,2.31,0,0,1,2.31,2.31A2.35,2.35,0,0,1,83.35,52.22ZM75.77,33.37,61.34,50.48,75.69,62.17,90.14,50.54Z"/><path class="cls-32" d="M74.7,44.37l-4.8,4.4a2.24,2.24,0,0,1,.34,1.17,2.17,2.17,0,0,1-.1.62l5,3V44.92C75,44.9,74.75,44.4,74.7,44.37Z"/><path class="cls-32" d="M77.12,44.28c-.08,0-.87.64-1,.69v8.59L81.1,50.4a2.09,2.09,0,0,1,0-.49,2.73,2.73,0,0,1,.14-.83Z"/><path class="cls-32" d="M83.35,52.22a2.3,2.3,0,0,1-1.66-.71l-4,2.81a2.16,2.16,0,0,1,.39,1.26,2.31,2.31,0,1,1-4.62,0,2.25,2.25,0,0,1,.56-1.5l-4.57-2.45a2.26,2.26,0,0,1-1.56.62,2.31,2.31,0,0,1,0-4.62,2.23,2.23,0,0,1,1.08.28l4.78-4.42A2.52,2.52,0,0,1,73.27,42a2.55,2.55,0,0,1,5.09,0A2.44,2.44,0,0,1,78,43.3l4,4.76a2.27,2.27,0,0,1,1.38-.46,2.31,2.31,0,0,1,2.31,2.31A2.35,2.35,0,0,1,83.35,52.22ZM75.77,33.37,61.34,50.48,75.69,62.17,90.14,50.54Z"/><text class="cls-4" transform="translate(51.25 19.22)"><tspan class="cls-68">A</tspan><tspan class="cls-69" x="6" y="0">z</tspan><tspan class="cls-70" x="9.63" y="0">u</tspan><tspan class="cls-71" x="15.05" y="0">r</tspan><tspan class="cls-72" x="18.08" y="0">e</tspan><tspan class="cls-73" x="22.89" y="0"> </tspan><tspan class="cls-74" x="25.32" y="0">A</tspan><tspan class="cls-75" x="31.33" y="0">c</tspan><tspan x="35.54" y="0">t</tspan><tspan class="cls-76" x="38.59" y="0">i</tspan><tspan class="cls-77" x="40.36" y="0">v</tspan><tspan class="cls-78" x="45.17" y="0">e</tspan><tspan x="49.4" y="0"> </tspan></text><text class="cls-4" transform="translate(57.85 30.02)"><tspan class="cls-19">D</tspan><tspan class="cls-12" x="6.61" y="0">i</tspan><tspan class="cls-10" x="8.41" y="0">r</tspan><tspan class="cls-72" x="11.41" y="0">e</tspan><tspan class="cls-75" x="16.23" y="0">c</tspan><tspan class="cls-25" x="20.44" y="0">t</tspan><tspan class="cls-79" x="23.44" y="0">o</tspan><tspan class="cls-10" x="28.86" y="0">r</tspan><tspan x="31.86" y="0">y</tspan></text><polygon class="cls-30" points="75.77 33.37 61.34 50.48 75.69 62.17 90.14 50.54 75.77 33.37"/><polygon class="cls-31" points="75.77 33.37 61.34 50.48 75.69 62.17 90.14 50.54 75.77 33.37"/><path class="cls-32" d="M74.7,44.37l-4.8,4.4a2.24,2.24,0,0,1,.34,1.17,2.17,2.17,0,0,1-.1.62l5,3V44.92C75,44.9,74.75,44.4,74.7,44.37Z"/><path class="cls-32" d="M77.12,44.28c-.08,0-.87.64-1,.69v8.59L81.1,50.4a2.09,2.09,0,0,1,0-.49,2.73,2.73,0,0,1,.14-.83Z"/><path class="cls-32" d="M83.35,52.22a2.3,2.3,0,0,1-1.66-.71l-4,2.81a2.16,2.16,0,0,1,.39,1.26,2.31,2.31,0,1,1-4.62,0,2.25,2.25,0,0,1,.56-1.5l-4.57-2.45a2.26,2.26,0,0,1-1.56.62,2.31,2.31,0,0,1,0-4.62,2.23,2.23,0,0,1,1.08.28l4.78-4.42A2.52,2.52,0,0,1,73.27,42a2.55,2.55,0,0,1,5.09,0A2.44,2.44,0,0,1,78,43.3l4,4.76a2.27,2.27,0,0,1,1.38-.46,2.31,2.31,0,0,1,2.31,2.31A2.35,2.35,0,0,1,83.35,52.22ZM75.77,33.37,61.34,50.48,75.69,62.17,90.14,50.54Z"/><text class="cls-4" transform="translate(51.25 19.22)"><tspan class="cls-68">A</tspan><tspan class="cls-69" x="6" y="0">z</tspan><tspan class="cls-70" x="9.63" y="0">u</tspan><tspan class="cls-71" x="15.05" y="0">r</tspan><tspan class="cls-72" x="18.08" y="0">e</tspan><tspan class="cls-73" x="22.89" y="0"> </tspan><tspan class="cls-74" x="25.32" y="0">A</tspan><tspan class="cls-75" x="31.33" y="0">c</tspan><tspan x="35.54" y="0">t</tspan><tspan class="cls-76" x="38.59" y="0">i</tspan><tspan class="cls-77" x="40.36" y="0">v</tspan><tspan class="cls-78" x="45.17" y="0">e</tspan><tspan x="49.4" y="0"> </tspan></text><text class="cls-4" transform="translate(57.85 30.02)"><tspan class="cls-19">D</tspan><tspan class="cls-12" x="6.61" y="0">i</tspan><tspan class="cls-10" x="8.41" y="0">r</tspan><tspan class="cls-72" x="11.41" y="0">e</tspan><tspan class="cls-75" x="16.23" y="0">c</tspan><tspan class="cls-25" x="20.44" y="0">t</tspan><tspan class="cls-79" x="23.44" y="0">o</tspan><tspan class="cls-10" x="28.86" y="0">r</tspan><tspan x="31.86" y="0">y</tspan></text><path class="cls-30" d="M75.74,200.63h-.12a14.29,14.29,0,0,1-10-4.19l-.87-.94c-.07-.06-.13-.12-.13-.18l-.12-.13a14.33,14.33,0,0,1-3.12-8.87,14.56,14.56,0,0,1,3.06-8.93l.06-.13.06-.06c0-.06.06-.06.12-.13l.94-1a14.3,14.3,0,0,1,10-4.24h.12a14.19,14.19,0,0,1,10.16,4.24l.87.94a.31.31,0,0,1,.13.19l.12.12a14.35,14.35,0,0,1,3.12,8.88A13.76,13.76,0,0,1,87,195l-.12.13c0,.06-.06.12-.13.19l-.87.93A13.89,13.89,0,0,1,75.74,200.63Z"/><path class="cls-32" d="M85.15,194.07a1.18,1.18,0,0,1-.43-.13c-.19-.06-.38-.19-.56-.25s-.13-.06-.19-.06c-.69-.25-1.37-.44-2.12-.69.19-.68.31-1.31.44-2H80.67c-.13.63-.25,1.19-.38,1.63a26.77,26.77,0,0,0-4.55-.38,28.13,28.13,0,0,0-4.67.44,16.48,16.48,0,0,1-.38-1.69H69.07c.13.69.25,1.38.44,2.06a18.36,18.36,0,0,0-1.94.63c-.06.06-.18.06-.24.12s-.38.19-.57.25a.91.91,0,0,0-.37.13,12.48,12.48,0,0,1-2.74-7H65v-1.62H63.65a12.25,12.25,0,0,1,2.68-6.87l.06-.07.37.19a2.36,2.36,0,0,0,.63.25c.06,0,.12.06.18.06a15.71,15.71,0,0,0,2,.63,16.6,16.6,0,0,0-.37,1.81h1.62c.12-.5.25-1.06.31-1.5a28.13,28.13,0,0,0,4.67.44,33.88,33.88,0,0,0,4.55-.38,9.36,9.36,0,0,1,.32,1.5h1.62c-.13-.62-.25-1.18-.38-1.81a12.78,12.78,0,0,0,2.06-.69c.06,0,.19-.06.25-.06.25-.06.37-.19.62-.25l.38-.19A12.54,12.54,0,0,1,88,185.51H86.34v1.62H88A13.48,13.48,0,0,1,85.15,194.07Zm-5.54,3.81a13.39,13.39,0,0,0,1.8-3.38c.07,0,.19.07.25.07a9.56,9.56,0,0,0,.94.25c.06,0,.12.06.19.06a3.4,3.4,0,0,0,.74.25c.13.06.19.06.25.12s.13.07.25.13A13.79,13.79,0,0,1,79.61,197.88Zm-3.93.68c-1.56-.06-3.06-1.62-4.12-4.31a22.72,22.72,0,0,1,4.18-.31,29.18,29.18,0,0,1,4.05.31C78.73,196.94,77.17,198.56,75.68,198.56Zm-8.17-3.18c.06,0,.13-.06.19-.06s.19-.07.25-.13a3.67,3.67,0,0,1,.75-.25c.06,0,.12-.06.18-.06a4.86,4.86,0,0,1,.94-.25h.12a16.47,16.47,0,0,0,1.75,3.31A15.93,15.93,0,0,1,67.51,195.38Zm4.18-20.49a12.53,12.53,0,0,0-1.75,3.31h-.12a6,6,0,0,0-.94-.25c-.06,0-.12-.06-.18-.06a6.57,6.57,0,0,0-.69-.32c-.12-.06-.19-.06-.25-.12s-.12-.06-.25-.13A14.86,14.86,0,0,1,71.69,174.89Zm3.93-.69c1.55,0,3,1.62,4.17,4.37a20.85,20.85,0,0,1-4.05.32,29.52,29.52,0,0,1-4.18-.32C72.62,175.82,74.12,174.26,75.62,174.2Zm8.29,3.19c-.07,0-.13.06-.19.06l-.25.12a3.15,3.15,0,0,1-.75.25c-.06,0-.12.07-.18.07a6.9,6.9,0,0,1-.94.25c-.06,0-.19.06-.25.06a13,13,0,0,0-1.81-3.37A12.72,12.72,0,0,1,83.91,177.39Zm5.61,9a13.69,13.69,0,0,0-3-8.49l-.13-.13c-.06-.06-.06-.12-.12-.19l-.88-.93a13.32,13.32,0,0,0-9.66-4.06h-.12a13.87,13.87,0,0,0-9.6,4l-.94,1c-.06.07-.06.13-.12.19l-.13.06a14.09,14.09,0,0,0-2.93,8.56,13.74,13.74,0,0,0,3,8.5L65,195c.06.07.06.13.12.19l.88.94a13.41,13.41,0,0,0,9.6,4h.12a13.65,13.65,0,0,0,9.66-4l.88-1c.06-.06.06-.13.12-.19l.13-.12A13.3,13.3,0,0,0,89.52,186.38Z"/><path class="cls-32" d="M70.75,186.32a4.47,4.47,0,0,0-.12-.94,2.91,2.91,0,0,0-.37-.75,1.67,1.67,0,0,0-.69-.5,2.68,2.68,0,0,0-1.12-.18h-.63v4.87h.75a2.43,2.43,0,0,0,1.69-.63,1.71,1.71,0,0,0,.37-.75A3.54,3.54,0,0,0,70.75,186.32Zm1.5-.06a5.35,5.35,0,0,1-.25,1.62,7.71,7.71,0,0,1-.69,1.19,4.22,4.22,0,0,1-1.18.69,6.13,6.13,0,0,1-1.62.25H66.83a.52.52,0,0,1-.32-.13c-.06-.06-.06-.25-.06-.37v-6.25a.34.34,0,0,1,.13-.31.43.43,0,0,1,.31-.13H68.7a4,4,0,0,1,1.62.25,3.52,3.52,0,0,1,1.12.69,2.71,2.71,0,0,1,.69,1.12A7.83,7.83,0,0,1,72.25,186.26Z"/><path class="cls-32" d="M79.29,189.38c0,.13,0,.19-.06.25s-.06.13-.12.19-.13.06-.19.12-.12.07-.25.07h-.62c-.13,0-.25,0-.31-.07s-.19-.06-.25-.18l-.25-.25a2.22,2.22,0,0,1-.25-.44l-1.75-3.31a2.42,2.42,0,0,1-.31-.69,1.61,1.61,0,0,1-.25-.69,2.89,2.89,0,0,0,.06.75v4.56l-.06.13c0,.06-.06.06-.12.06s-.13.06-.25.06h-.69c-.12,0-.19,0-.25-.06s-.06-.06-.12-.06v-6.5a.43.43,0,0,1,.18-.37.46.46,0,0,1,.38-.13h.75c.18,0,.25,0,.31.06a.34.34,0,0,1,.25.13,1,1,0,0,1,.25.25,1.15,1.15,0,0,0,.25.37L77,186.2a2.12,2.12,0,0,0,.25.43,2,2,0,0,0,.25.44c.06.19.18.25.25.44a1.37,1.37,0,0,0,.25.43V183l.06-.13c0-.06.06-.06.12-.06s.13-.06.25-.06h.69c.12,0,.18,0,.25.06s.06.06.12.06v6.5Z"/><path class="cls-32" d="M85.09,187.82a1.82,1.82,0,0,1-.25,1,2,2,0,0,1-.56.69,3.47,3.47,0,0,1-.81.43,2.78,2.78,0,0,1-1.06.19,2.36,2.36,0,0,1-.68-.06l-.57-.19a1.58,1.58,0,0,1-.37-.19.9.9,0,0,1-.25-.18,1.17,1.17,0,0,1-.12-.25c0-.13-.07-.25-.07-.38v-.25c0-.06,0-.19.07-.19s.06-.06.06-.12a.21.21,0,0,1,.12-.06c.07,0,.13.06.25.12a1.38,1.38,0,0,1,.38.25,4.37,4.37,0,0,0,.56.25,2.72,2.72,0,0,0,.68.13,1.21,1.21,0,0,0,.5-.07.63.63,0,0,0,.31-.18,1,1,0,0,0,.25-.25.74.74,0,0,0,.07-.38c0-.19-.07-.25-.13-.44l-.31-.31a1.31,1.31,0,0,0-.5-.25c-.19-.06-.37-.18-.56-.25a2.75,2.75,0,0,0-.56-.25c-.19-.12-.31-.25-.5-.37a1,1,0,0,1-.31-.56,1.42,1.42,0,0,1-.13-.75,1.88,1.88,0,0,1,.19-.88,1.75,1.75,0,0,1,.5-.69A2.91,2.91,0,0,1,82,183a2.17,2.17,0,0,1,.93-.13,1.24,1.24,0,0,1,.5.07,1.52,1.52,0,0,1,.5.12,1.79,1.79,0,0,1,.37.19c.13.06.19.12.25.12l.07.13a.19.19,0,0,0,.06.12v.82c0,.06-.06.06-.06.12a.26.26,0,0,1-.13.06.25.25,0,0,1-.19-.06l-.31-.19a3.11,3.11,0,0,0-.43-.18,1.44,1.44,0,0,0-.57-.07.62.62,0,0,0-.37.07c-.12.06-.25.12-.25.18a2.35,2.35,0,0,1-.19.25.66.66,0,0,0-.06.25.64.64,0,0,0,.13.38l.31.31a1.67,1.67,0,0,0,.5.25c.18.06.37.19.56.25a1.86,1.86,0,0,0,.56.25c.19.13.31.25.5.38a1,1,0,0,1,.31.56A2.67,2.67,0,0,1,85.09,187.82Z"/><path class="cls-32" d="M85.15,194.07a1.18,1.18,0,0,1-.43-.13c-.19-.06-.38-.19-.56-.25s-.13-.06-.19-.06c-.69-.25-1.37-.44-2.12-.69.19-.68.31-1.31.44-2H80.67c-.13.63-.25,1.19-.38,1.63a26.77,26.77,0,0,0-4.55-.38,28.13,28.13,0,0,0-4.67.44,16.48,16.48,0,0,1-.38-1.69H69.07c.13.69.25,1.38.44,2.06a18.36,18.36,0,0,0-1.94.63c-.06.06-.18.06-.24.12s-.38.19-.57.25a.91.91,0,0,0-.37.13,12.48,12.48,0,0,1-2.74-7H65v-1.62H63.65a12.25,12.25,0,0,1,2.68-6.87l.06-.07.37.19a2.36,2.36,0,0,0,.63.25c.06,0,.12.06.18.06a15.71,15.71,0,0,0,2,.63,16.6,16.6,0,0,0-.37,1.81h1.62c.12-.5.25-1.06.31-1.5a28.13,28.13,0,0,0,4.67.44,33.88,33.88,0,0,0,4.55-.38,9.36,9.36,0,0,1,.32,1.5h1.62c-.13-.62-.25-1.18-.38-1.81a12.78,12.78,0,0,0,2.06-.69c.06,0,.19-.06.25-.06.25-.06.37-.19.62-.25l.38-.19A12.54,12.54,0,0,1,88,185.51H86.34v1.62H88A13.48,13.48,0,0,1,85.15,194.07Zm-5.54,3.81a13.39,13.39,0,0,0,1.8-3.38c.07,0,.19.07.25.07a9.56,9.56,0,0,0,.94.25c.06,0,.12.06.19.06a3.4,3.4,0,0,0,.74.25c.13.06.19.06.25.12s.13.07.25.13A13.79,13.79,0,0,1,79.61,197.88Zm-3.93.68c-1.56-.06-3.06-1.62-4.12-4.31a22.72,22.72,0,0,1,4.18-.31,29.18,29.18,0,0,1,4.05.31C78.73,196.94,77.17,198.56,75.68,198.56Zm-8.17-3.18c.06,0,.13-.06.19-.06s.19-.07.25-.13a3.67,3.67,0,0,1,.75-.25c.06,0,.12-.06.18-.06a4.86,4.86,0,0,1,.94-.25h.12a16.47,16.47,0,0,0,1.75,3.31A15.93,15.93,0,0,1,67.51,195.38Zm4.18-20.49a12.53,12.53,0,0,0-1.75,3.31h-.12a6,6,0,0,0-.94-.25c-.06,0-.12-.06-.18-.06a6.57,6.57,0,0,0-.69-.32c-.12-.06-.19-.06-.25-.12s-.12-.06-.25-.13A14.86,14.86,0,0,1,71.69,174.89Zm3.93-.69c1.55,0,3,1.62,4.17,4.37a20.85,20.85,0,0,1-4.05.32,29.52,29.52,0,0,1-4.18-.32C72.62,175.82,74.12,174.26,75.62,174.2Zm8.29,3.19c-.07,0-.13.06-.19.06l-.25.12a3.15,3.15,0,0,1-.75.25c-.06,0-.12.07-.18.07a6.9,6.9,0,0,1-.94.25c-.06,0-.19.06-.25.06a13,13,0,0,0-1.81-3.37A12.72,12.72,0,0,1,83.91,177.39Zm5.61,9a13.69,13.69,0,0,0-3-8.49l-.13-.13c-.06-.06-.06-.12-.12-.19l-.88-.93a13.32,13.32,0,0,0-9.66-4.06h-.12a13.87,13.87,0,0,0-9.6,4l-.94,1c-.06.07-.06.13-.12.19l-.13.06a14.09,14.09,0,0,0-2.93,8.56,13.74,13.74,0,0,0,3,8.5L65,195c.06.07.06.13.12.19l.88.94a13.41,13.41,0,0,0,9.6,4h.12a13.65,13.65,0,0,0,9.66-4l.88-1c.06-.06.06-.13.12-.19l.13-.12A13.3,13.3,0,0,0,89.52,186.38Z"/><path class="cls-32" d="M70.75,186.32a4.47,4.47,0,0,0-.12-.94,2.91,2.91,0,0,0-.37-.75,1.67,1.67,0,0,0-.69-.5,2.68,2.68,0,0,0-1.12-.18h-.63v4.87h.75a2.43,2.43,0,0,0,1.69-.63,1.71,1.71,0,0,0,.37-.75A3.54,3.54,0,0,0,70.75,186.32Zm1.5-.06a5.35,5.35,0,0,1-.25,1.62,7.71,7.71,0,0,1-.69,1.19,4.22,4.22,0,0,1-1.18.69,6.13,6.13,0,0,1-1.62.25H66.83a.52.52,0,0,1-.32-.13c-.06-.06-.06-.25-.06-.37v-6.25a.34.34,0,0,1,.13-.31.43.43,0,0,1,.31-.13H68.7a4,4,0,0,1,1.62.25,3.52,3.52,0,0,1,1.12.69,2.71,2.71,0,0,1,.69,1.12A7.83,7.83,0,0,1,72.25,186.26Z"/><path class="cls-32" d="M79.29,189.38c0,.13,0,.19-.06.25s-.06.13-.12.19-.13.06-.19.12-.12.07-.25.07h-.62c-.13,0-.25,0-.31-.07s-.19-.06-.25-.18l-.25-.25a2.22,2.22,0,0,1-.25-.44l-1.75-3.31a2.42,2.42,0,0,1-.31-.69,1.61,1.61,0,0,1-.25-.69,2.89,2.89,0,0,0,.06.75v4.56l-.06.13c0,.06-.06.06-.12.06s-.13.06-.25.06h-.69c-.12,0-.19,0-.25-.06s-.06-.06-.12-.06v-6.5a.43.43,0,0,1,.18-.37.46.46,0,0,1,.38-.13h.75c.18,0,.25,0,.31.06a.34.34,0,0,1,.25.13,1,1,0,0,1,.25.25,1.15,1.15,0,0,0,.25.37L77,186.2a2.12,2.12,0,0,0,.25.43,2,2,0,0,0,.25.44c.06.19.18.25.25.44a1.37,1.37,0,0,0,.25.43V183l.06-.13c0-.06.06-.06.12-.06s.13-.06.25-.06h.69c.12,0,.18,0,.25.06s.06.06.12.06v6.5Z"/><path class="cls-32" d="M85.09,187.82a1.82,1.82,0,0,1-.25,1,2,2,0,0,1-.56.69,3.47,3.47,0,0,1-.81.43,2.78,2.78,0,0,1-1.06.19,2.36,2.36,0,0,1-.68-.06l-.57-.19a1.58,1.58,0,0,1-.37-.19.9.9,0,0,1-.25-.18,1.17,1.17,0,0,1-.12-.25c0-.13-.07-.25-.07-.38v-.25c0-.06,0-.19.07-.19s.06-.06.06-.12a.21.21,0,0,1,.12-.06c.07,0,.13.06.25.12a1.38,1.38,0,0,1,.38.25,4.37,4.37,0,0,0,.56.25,2.72,2.72,0,0,0,.68.13,1.21,1.21,0,0,0,.5-.07.63.63,0,0,0,.31-.18,1,1,0,0,0,.25-.25.74.74,0,0,0,.07-.38c0-.19-.07-.25-.13-.44l-.31-.31a1.31,1.31,0,0,0-.5-.25c-.19-.06-.37-.18-.56-.25a2.75,2.75,0,0,0-.56-.25c-.19-.12-.31-.25-.5-.37a1,1,0,0,1-.31-.56,1.42,1.42,0,0,1-.13-.75,1.88,1.88,0,0,1,.19-.88,1.75,1.75,0,0,1,.5-.69A2.91,2.91,0,0,1,82,183a2.17,2.17,0,0,1,.93-.13,1.24,1.24,0,0,1,.5.07,1.52,1.52,0,0,1,.5.12,1.79,1.79,0,0,1,.37.19c.13.06.19.12.25.12l.07.13a.19.19,0,0,0,.06.12v.82c0,.06-.06.06-.06.12a.26.26,0,0,1-.13.06.25.25,0,0,1-.19-.06l-.31-.19a3.11,3.11,0,0,0-.43-.18,1.44,1.44,0,0,0-.57-.07.62.62,0,0,0-.37.07c-.12.06-.25.12-.25.18a2.35,2.35,0,0,1-.19.25.66.66,0,0,0-.06.25.64.64,0,0,0,.13.38l.31.31a1.67,1.67,0,0,0,.5.25c.18.06.37.19.56.25a1.86,1.86,0,0,0,.56.25c.19.13.31.25.5.38a1,1,0,0,1,.31.56A2.67,2.67,0,0,1,85.09,187.82Z"/><text class="cls-4" transform="translate(54.27 209.07)"><tspan class="cls-5">A</tspan><tspan class="cls-80" x="5.99" y="0">z</tspan><tspan class="cls-19" x="9.59" y="0">u</tspan><tspan class="cls-10" x="14.98" y="0">r</tspan><tspan class="cls-14" x="17.98" y="0">e</tspan><tspan class="cls-20" x="22.77" y="0"> </tspan><tspan class="cls-81" x="25.18" y="0">D</tspan><tspan class="cls-82" x="31.76" y="0">N</tspan><tspan x="38.36" y="0">S</tspan></text><path class="cls-30" d="M355.83,107.42c-5.25,0-9.51,1.8-9.51,3.77V129c0,2,4.26,3.83,9.51,3.83s9.53-1.77,9.53-3.74V111.29C365.36,109.31,361.1,107.42,355.83,107.42Z"/><path class="cls-31" d="M355.83,107.42c-5.25,0-9.51,1.8-9.51,3.77V129c0,2,4.26,3.83,9.51,3.83s9.53-1.77,9.53-3.74V111.29C365.36,109.31,361.1,107.42,355.83,107.42Z"/><path class="cls-30" d="M373.68,133.8a2.43,2.43,0,0,0-2.25-2.42,6.29,6.29,0,0,0,.11-1.14,5.9,5.9,0,0,0-11.39-2.18,4.15,4.15,0,0,0-5.18,4,4.16,4.16,0,0,0,4.07,4.15h12.85A2.51,2.51,0,0,0,373.68,133.8Z"/><path class="cls-31" d="M373.68,133.8a2.43,2.43,0,0,0-2.25-2.42,6.29,6.29,0,0,0,.11-1.14,5.9,5.9,0,0,0-11.39-2.18,4.15,4.15,0,0,0-5.18,4,4.16,4.16,0,0,0,4.07,4.15h12.85A2.51,2.51,0,0,0,373.68,133.8Z"/><path class="cls-30" d="M355.83,107.42c-5.25,0-9.51,1.8-9.51,3.77V129c0,2,4.26,3.83,9.51,3.83s9.53-1.77,9.53-3.74V111.29C365.36,109.31,361.1,107.42,355.83,107.42Z"/><path class="cls-31" d="M355.83,107.42c-5.25,0-9.51,1.8-9.51,3.77V129c0,2,4.26,3.83,9.51,3.83s9.53-1.77,9.53-3.74V111.29C365.36,109.31,361.1,107.42,355.83,107.42Z"/><path class="cls-30" d="M373.68,133.8a2.43,2.43,0,0,0-2.25-2.42,6.29,6.29,0,0,0,.11-1.14,5.9,5.9,0,0,0-11.39-2.18,4.15,4.15,0,0,0-5.18,4,4.16,4.16,0,0,0,4.07,4.15h12.85A2.51,2.51,0,0,0,373.68,133.8Z"/><path class="cls-31" d="M373.68,133.8a2.43,2.43,0,0,0-2.25-2.42,6.29,6.29,0,0,0,.11-1.14,5.9,5.9,0,0,0-11.39-2.18,4.15,4.15,0,0,0-5.18,4,4.16,4.16,0,0,0,4.07,4.15h12.85A2.51,2.51,0,0,0,373.68,133.8Z"/><path class="cls-32" d="M355.28,122.05a.61.61,0,0,0,.3.23.73.73,0,0,0,.36.08.72.72,0,0,0,.35-.08.71.71,0,0,0,.29-.23,1.06,1.06,0,0,0,.22-.41,2.36,2.36,0,0,0,.07-.58,2.19,2.19,0,0,0-.05-.52,1.44,1.44,0,0,0-.17-.44.86.86,0,0,0-.28-.29.72.72,0,0,0-.4-.11.91.91,0,0,0-.45.11.83.83,0,0,0-.3.29,1.32,1.32,0,0,0-.17.42,2.19,2.19,0,0,0-.05.52,2.1,2.1,0,0,0,.07.6A1.21,1.21,0,0,0,355.28,122.05Z"/><path class="cls-32" d="M353.54,122.14a2.8,2.8,0,0,1-.18-1,3,3,0,0,1,.19-1.1,2.52,2.52,0,0,1,.54-.86,2.36,2.36,0,0,1,.83-.55,2.94,2.94,0,0,1,2.08,0,2.24,2.24,0,0,1,.79.53,2.42,2.42,0,0,1,.53.83,3.08,3.08,0,0,1,.18,1.09,2.71,2.71,0,0,1-.11.82,2.47,2.47,0,0,1-.3.68,2.26,2.26,0,0,1-.44.53,2,2,0,0,1-.56.37l1.72,1.47h-2l-1.12-1.21a2.82,2.82,0,0,1-.92-.22,2.42,2.42,0,0,1-1.27-1.32Zm-.56.26a1.09,1.09,0,0,1-.14.38,1.19,1.19,0,0,1-.26.34,1.3,1.3,0,0,1-.41.29,1.88,1.88,0,0,1-.58.19,3.15,3.15,0,0,1-.79.08,3.19,3.19,0,0,1-.45,0,2.52,2.52,0,0,1-.41-.06l-.33-.08a2.64,2.64,0,0,1-.27-.1V122a2,2,0,0,0,.3.19c.1.06.23.11.35.17l.39.11a1.31,1.31,0,0,0,.39,0,1,1,0,0,0,.26,0,.31.31,0,0,0,.16-.09.31.31,0,0,0,.09-.11.51.51,0,0,0,0-.13.36.36,0,0,0-.06-.2.46.46,0,0,0-.16-.15,1.19,1.19,0,0,0-.25-.13l-.33-.14a2.53,2.53,0,0,1-.57-.29,2,2,0,0,1-.39-.36,1.5,1.5,0,0,1-.21-.42,1.43,1.43,0,0,1-.07-.46,1.51,1.51,0,0,1,.15-.68,1.75,1.75,0,0,1,.42-.52,2.25,2.25,0,0,1,.66-.32,3.13,3.13,0,0,1,.85-.11h.47c.14,0,.27,0,.39.06a2.27,2.27,0,0,1,.3.06,1.26,1.26,0,0,1,.25.07v1.3a1.45,1.45,0,0,0-.25-.12,1.57,1.57,0,0,0-.3-.12,1.87,1.87,0,0,0-.34-.08,1.63,1.63,0,0,0-.38,0,.83.83,0,0,0-.41.09.3.3,0,0,0-.16.27.28.28,0,0,0,0,.15.38.38,0,0,0,.1.12,1.05,1.05,0,0,0,.21.12,1.4,1.4,0,0,0,.3.14,4,4,0,0,1,.59.28,2,2,0,0,1,.46.34,1.28,1.28,0,0,1,.3.43,1.4,1.4,0,0,1,.11.56A1.11,1.11,0,0,1,353,122.4Zm2.85-13.58c3.75,0,6.79.92,6.79,2.08s-3,2.08-6.79,2.08-6.78-.93-6.78-2.08S352.09,108.82,355.83,108.82Zm6.69,14.77h-3.29v-5.12h1.54v3.91h1.75Zm-3.41,3.68a4.82,4.82,0,0,1,.65,0,6.55,6.55,0,0,1,5.6-3.62V111.32c0-2-4.26-3.87-9.53-3.87s-9.51,1.79-9.51,3.77v17.84c0,1.78,3.5,3.47,8.05,3.78a4.9,4.9,0,0,1-.06-.77A4.8,4.8,0,0,1,359.11,127.27Z"/><path class="cls-32" d="M371.4,135.55H359.11a3.49,3.49,0,0,1,0-7,3.39,3.39,0,0,1,1.13.19l.32.11.1-.31a5.24,5.24,0,0,1,10.22,1.66,5.42,5.42,0,0,1-.19,1.39l-.13.48.49-.06.21,0a1.76,1.76,0,0,1,.14,3.52Zm2.28-1.75a2.43,2.43,0,0,0-2.25-2.42,6.29,6.29,0,0,0,.11-1.14,5.9,5.9,0,0,0-11.39-2.18,4.15,4.15,0,0,0-5.18,4,4.16,4.16,0,0,0,4.07,4.15h12.83A2.53,2.53,0,0,0,373.68,133.8Z"/><path class="cls-32" d="M355.28,122.05a.61.61,0,0,0,.3.23.73.73,0,0,0,.36.08.72.72,0,0,0,.35-.08.71.71,0,0,0,.29-.23,1.06,1.06,0,0,0,.22-.41,2.36,2.36,0,0,0,.07-.58,2.19,2.19,0,0,0-.05-.52,1.44,1.44,0,0,0-.17-.44.86.86,0,0,0-.28-.29.72.72,0,0,0-.4-.11.91.91,0,0,0-.45.11.83.83,0,0,0-.3.29,1.32,1.32,0,0,0-.17.42,2.19,2.19,0,0,0-.05.52,2.1,2.1,0,0,0,.07.6A1.21,1.21,0,0,0,355.28,122.05Z"/><path class="cls-32" d="M353.54,122.14a2.8,2.8,0,0,1-.18-1,3,3,0,0,1,.19-1.1,2.52,2.52,0,0,1,.54-.86,2.36,2.36,0,0,1,.83-.55,2.94,2.94,0,0,1,2.08,0,2.24,2.24,0,0,1,.79.53,2.42,2.42,0,0,1,.53.83,3.08,3.08,0,0,1,.18,1.09,2.71,2.71,0,0,1-.11.82,2.47,2.47,0,0,1-.3.68,2.26,2.26,0,0,1-.44.53,2,2,0,0,1-.56.37l1.72,1.47h-2l-1.12-1.21a2.82,2.82,0,0,1-.92-.22,2.42,2.42,0,0,1-1.27-1.32Zm-.56.26a1.09,1.09,0,0,1-.14.38,1.19,1.19,0,0,1-.26.34,1.3,1.3,0,0,1-.41.29,1.88,1.88,0,0,1-.58.19,3.15,3.15,0,0,1-.79.08,3.19,3.19,0,0,1-.45,0,2.52,2.52,0,0,1-.41-.06l-.33-.08a2.64,2.64,0,0,1-.27-.1V122a2,2,0,0,0,.3.19c.1.06.23.11.35.17l.39.11a1.31,1.31,0,0,0,.39,0,1,1,0,0,0,.26,0,.31.31,0,0,0,.16-.09.31.31,0,0,0,.09-.11.51.51,0,0,0,0-.13.36.36,0,0,0-.06-.2.46.46,0,0,0-.16-.15,1.19,1.19,0,0,0-.25-.13l-.33-.14a2.53,2.53,0,0,1-.57-.29,2,2,0,0,1-.39-.36,1.5,1.5,0,0,1-.21-.42,1.43,1.43,0,0,1-.07-.46,1.51,1.51,0,0,1,.15-.68,1.75,1.75,0,0,1,.42-.52,2.25,2.25,0,0,1,.66-.32,3.13,3.13,0,0,1,.85-.11h.47c.14,0,.27,0,.39.06a2.27,2.27,0,0,1,.3.06,1.26,1.26,0,0,1,.25.07v1.3a1.45,1.45,0,0,0-.25-.12,1.57,1.57,0,0,0-.3-.12,1.87,1.87,0,0,0-.34-.08,1.63,1.63,0,0,0-.38,0,.83.83,0,0,0-.41.09.3.3,0,0,0-.16.27.28.28,0,0,0,0,.15.38.38,0,0,0,.1.12,1.05,1.05,0,0,0,.21.12,1.4,1.4,0,0,0,.3.14,4,4,0,0,1,.59.28,2,2,0,0,1,.46.34,1.28,1.28,0,0,1,.3.43,1.4,1.4,0,0,1,.11.56A1.11,1.11,0,0,1,353,122.4Zm2.85-13.58c3.75,0,6.79.92,6.79,2.08s-3,2.08-6.79,2.08-6.78-.93-6.78-2.08S352.09,108.82,355.83,108.82Zm6.69,14.77h-3.29v-5.12h1.54v3.91h1.75Zm-3.41,3.68a4.82,4.82,0,0,1,.65,0,6.55,6.55,0,0,1,5.6-3.62V111.32c0-2-4.26-3.87-9.53-3.87s-9.51,1.79-9.51,3.77v17.84c0,1.78,3.5,3.47,8.05,3.78a4.9,4.9,0,0,1-.06-.77A4.8,4.8,0,0,1,359.11,127.27Z"/><path class="cls-32" d="M371.4,135.55H359.11a3.49,3.49,0,0,1,0-7,3.39,3.39,0,0,1,1.13.19l.32.11.1-.31a5.24,5.24,0,0,1,10.22,1.66,5.42,5.42,0,0,1-.19,1.39l-.13.48.49-.06.21,0a1.76,1.76,0,0,1,.14,3.52Zm2.28-1.75a2.43,2.43,0,0,0-2.25-2.42,6.29,6.29,0,0,0,.11-1.14,5.9,5.9,0,0,0-11.39-2.18,4.15,4.15,0,0,0-5.18,4,4.16,4.16,0,0,0,4.07,4.15h12.83A2.53,2.53,0,0,0,373.68,133.8Z"/><text class="cls-83" transform="translate(341.85 148.23)">D<tspan class="cls-16" x="6.58" y="0">a</tspan><tspan class="cls-25" x="10.79" y="0">t</tspan><tspan class="cls-15" x="13.8" y="0">a</tspan><tspan class="cls-84" x="18.58" y="0">b</tspan><tspan class="cls-85" x="23.97" y="0">a</tspan><tspan class="cls-86" x="28.18" y="0">s</tspan><tspan class="cls-28" x="32.37" y="0">e</tspan></text><path class="cls-30" d="M355.83,107.42c-5.25,0-9.51,1.8-9.51,3.77V129c0,2,4.26,3.83,9.51,3.83s9.53-1.77,9.53-3.74V111.29C365.36,109.31,361.1,107.42,355.83,107.42Z"/><path class="cls-31" d="M355.83,107.42c-5.25,0-9.51,1.8-9.51,3.77V129c0,2,4.26,3.83,9.51,3.83s9.53-1.77,9.53-3.74V111.29C365.36,109.31,361.1,107.42,355.83,107.42Z"/><path class="cls-30" d="M373.68,133.8a2.43,2.43,0,0,0-2.25-2.42,6.29,6.29,0,0,0,.11-1.14,5.9,5.9,0,0,0-11.39-2.18,4.15,4.15,0,0,0-5.18,4,4.16,4.16,0,0,0,4.07,4.15h12.85A2.51,2.51,0,0,0,373.68,133.8Z"/><path class="cls-31" d="M373.68,133.8a2.43,2.43,0,0,0-2.25-2.42,6.29,6.29,0,0,0,.11-1.14,5.9,5.9,0,0,0-11.39-2.18,4.15,4.15,0,0,0-5.18,4,4.16,4.16,0,0,0,4.07,4.15h12.85A2.51,2.51,0,0,0,373.68,133.8Z"/><path class="cls-32" d="M355.28,122.05a.61.61,0,0,0,.3.23.73.73,0,0,0,.36.08.72.72,0,0,0,.35-.08.71.71,0,0,0,.29-.23,1.06,1.06,0,0,0,.22-.41,2.36,2.36,0,0,0,.07-.58,2.19,2.19,0,0,0-.05-.52,1.44,1.44,0,0,0-.17-.44.86.86,0,0,0-.28-.29.72.72,0,0,0-.4-.11.91.91,0,0,0-.45.11.83.83,0,0,0-.3.29,1.32,1.32,0,0,0-.17.42,2.19,2.19,0,0,0-.05.52,2.1,2.1,0,0,0,.07.6A1.21,1.21,0,0,0,355.28,122.05Z"/><path class="cls-32" d="M353.54,122.14a2.8,2.8,0,0,1-.18-1,3,3,0,0,1,.19-1.1,2.52,2.52,0,0,1,.54-.86,2.36,2.36,0,0,1,.83-.55,2.94,2.94,0,0,1,2.08,0,2.24,2.24,0,0,1,.79.53,2.42,2.42,0,0,1,.53.83,3.08,3.08,0,0,1,.18,1.09,2.71,2.71,0,0,1-.11.82,2.47,2.47,0,0,1-.3.68,2.26,2.26,0,0,1-.44.53,2,2,0,0,1-.56.37l1.72,1.47h-2l-1.12-1.21a2.82,2.82,0,0,1-.92-.22,2.42,2.42,0,0,1-1.27-1.32Zm-.56.26a1.09,1.09,0,0,1-.14.38,1.19,1.19,0,0,1-.26.34,1.3,1.3,0,0,1-.41.29,1.88,1.88,0,0,1-.58.19,3.15,3.15,0,0,1-.79.08,3.19,3.19,0,0,1-.45,0,2.52,2.52,0,0,1-.41-.06l-.33-.08a2.64,2.64,0,0,1-.27-.1V122a2,2,0,0,0,.3.19c.1.06.23.11.35.17l.39.11a1.31,1.31,0,0,0,.39,0,1,1,0,0,0,.26,0,.31.31,0,0,0,.16-.09.31.31,0,0,0,.09-.11.51.51,0,0,0,0-.13.36.36,0,0,0-.06-.2.46.46,0,0,0-.16-.15,1.19,1.19,0,0,0-.25-.13l-.33-.14a2.53,2.53,0,0,1-.57-.29,2,2,0,0,1-.39-.36,1.5,1.5,0,0,1-.21-.42,1.43,1.43,0,0,1-.07-.46,1.51,1.51,0,0,1,.15-.68,1.75,1.75,0,0,1,.42-.52,2.25,2.25,0,0,1,.66-.32,3.13,3.13,0,0,1,.85-.11h.47c.14,0,.27,0,.39.06a2.27,2.27,0,0,1,.3.06,1.26,1.26,0,0,1,.25.07v1.3a1.45,1.45,0,0,0-.25-.12,1.57,1.57,0,0,0-.3-.12,1.87,1.87,0,0,0-.34-.08,1.63,1.63,0,0,0-.38,0,.83.83,0,0,0-.41.09.3.3,0,0,0-.16.27.28.28,0,0,0,0,.15.38.38,0,0,0,.1.12,1.05,1.05,0,0,0,.21.12,1.4,1.4,0,0,0,.3.14,4,4,0,0,1,.59.28,2,2,0,0,1,.46.34,1.28,1.28,0,0,1,.3.43,1.4,1.4,0,0,1,.11.56A1.11,1.11,0,0,1,353,122.4Zm2.85-13.58c3.75,0,6.79.92,6.79,2.08s-3,2.08-6.79,2.08-6.78-.93-6.78-2.08S352.09,108.82,355.83,108.82Zm6.69,14.77h-3.29v-5.12h1.54v3.91h1.75Zm-3.41,3.68a4.82,4.82,0,0,1,.65,0,6.55,6.55,0,0,1,5.6-3.62V111.32c0-2-4.26-3.87-9.53-3.87s-9.51,1.79-9.51,3.77v17.84c0,1.78,3.5,3.47,8.05,3.78a4.9,4.9,0,0,1-.06-.77A4.8,4.8,0,0,1,359.11,127.27Z"/><path class="cls-32" d="M371.4,135.55H359.11a3.49,3.49,0,0,1,0-7,3.39,3.39,0,0,1,1.13.19l.32.11.1-.31a5.24,5.24,0,0,1,10.22,1.66,5.42,5.42,0,0,1-.19,1.39l-.13.48.49-.06.21,0a1.76,1.76,0,0,1,.14,3.52Zm2.28-1.75a2.43,2.43,0,0,0-2.25-2.42,6.29,6.29,0,0,0,.11-1.14,5.9,5.9,0,0,0-11.39-2.18,4.15,4.15,0,0,0-5.18,4,4.16,4.16,0,0,0,4.07,4.15h12.83A2.53,2.53,0,0,0,373.68,133.8Z"/><text class="cls-83" transform="translate(341.85 148.23)">D<tspan class="cls-16" x="6.58" y="0">a</tspan><tspan class="cls-25" x="10.79" y="0">t</tspan><tspan class="cls-15" x="13.8" y="0">a</tspan><tspan class="cls-84" x="18.58" y="0">b</tspan><tspan class="cls-85" x="23.97" y="0">a</tspan><tspan class="cls-86" x="28.18" y="0">s</tspan><tspan class="cls-28" x="32.37" y="0">e</tspan></text><path class="cls-30" d="M409.83,107.42c-5.25,0-9.51,1.8-9.51,3.77V129c0,2,4.26,3.83,9.51,3.83s9.53-1.77,9.53-3.74V111.29C419.36,109.31,415.1,107.42,409.83,107.42Z"/><path class="cls-31" d="M409.83,107.42c-5.25,0-9.51,1.8-9.51,3.77V129c0,2,4.26,3.83,9.51,3.83s9.53-1.77,9.53-3.74V111.29C419.36,109.31,415.1,107.42,409.83,107.42Z"/><path class="cls-30" d="M427.68,133.8a2.43,2.43,0,0,0-2.25-2.42,6.29,6.29,0,0,0,.11-1.14,5.9,5.9,0,0,0-11.39-2.18,4.15,4.15,0,0,0-5.18,4,4.16,4.16,0,0,0,4.07,4.15h12.85A2.51,2.51,0,0,0,427.68,133.8Z"/><path class="cls-31" d="M427.68,133.8a2.43,2.43,0,0,0-2.25-2.42,6.29,6.29,0,0,0,.11-1.14,5.9,5.9,0,0,0-11.39-2.18,4.15,4.15,0,0,0-5.18,4,4.16,4.16,0,0,0,4.07,4.15h12.85A2.51,2.51,0,0,0,427.68,133.8Z"/><path class="cls-30" d="M409.83,107.42c-5.25,0-9.51,1.8-9.51,3.77V129c0,2,4.26,3.83,9.51,3.83s9.53-1.77,9.53-3.74V111.29C419.36,109.31,415.1,107.42,409.83,107.42Z"/><path class="cls-31" d="M409.83,107.42c-5.25,0-9.51,1.8-9.51,3.77V129c0,2,4.26,3.83,9.51,3.83s9.53-1.77,9.53-3.74V111.29C419.36,109.31,415.1,107.42,409.83,107.42Z"/><path class="cls-30" d="M427.68,133.8a2.43,2.43,0,0,0-2.25-2.42,6.29,6.29,0,0,0,.11-1.14,5.9,5.9,0,0,0-11.39-2.18,4.15,4.15,0,0,0-5.18,4,4.16,4.16,0,0,0,4.07,4.15h12.85A2.51,2.51,0,0,0,427.68,133.8Z"/><path class="cls-31" d="M427.68,133.8a2.43,2.43,0,0,0-2.25-2.42,6.29,6.29,0,0,0,.11-1.14,5.9,5.9,0,0,0-11.39-2.18,4.15,4.15,0,0,0-5.18,4,4.16,4.16,0,0,0,4.07,4.15h12.85A2.51,2.51,0,0,0,427.68,133.8Z"/><path class="cls-32" d="M409.28,122.05a.61.61,0,0,0,.3.23.73.73,0,0,0,.36.08.72.72,0,0,0,.35-.08.71.71,0,0,0,.29-.23,1.06,1.06,0,0,0,.22-.41,2.36,2.36,0,0,0,.07-.58,2.19,2.19,0,0,0-.05-.52,1.44,1.44,0,0,0-.17-.44.86.86,0,0,0-.28-.29.72.72,0,0,0-.4-.11.91.91,0,0,0-.45.11.83.83,0,0,0-.3.29,1.32,1.32,0,0,0-.17.42,2.19,2.19,0,0,0-.05.52,2.1,2.1,0,0,0,.07.6A1.21,1.21,0,0,0,409.28,122.05Z"/><path class="cls-32" d="M407.54,122.14a2.8,2.8,0,0,1-.18-1,3,3,0,0,1,.19-1.1,2.52,2.52,0,0,1,.54-.86,2.36,2.36,0,0,1,.83-.55,2.94,2.94,0,0,1,2.08,0,2.24,2.24,0,0,1,.79.53,2.42,2.42,0,0,1,.53.83,3.08,3.08,0,0,1,.18,1.09,2.71,2.71,0,0,1-.11.82,2.47,2.47,0,0,1-.3.68,2.26,2.26,0,0,1-.44.53,2,2,0,0,1-.56.37l1.72,1.47h-2l-1.12-1.21a2.82,2.82,0,0,1-.92-.22,2.42,2.42,0,0,1-1.27-1.32Zm-.56.26a1.09,1.09,0,0,1-.14.38,1.19,1.19,0,0,1-.26.34,1.3,1.3,0,0,1-.41.29,1.88,1.88,0,0,1-.58.19,3.15,3.15,0,0,1-.79.08,3.19,3.19,0,0,1-.45,0,2.52,2.52,0,0,1-.41-.06l-.33-.08a2.64,2.64,0,0,1-.27-.1V122a2,2,0,0,0,.3.19c.1.06.23.11.35.17l.39.11a1.31,1.31,0,0,0,.39,0,1,1,0,0,0,.26,0,.31.31,0,0,0,.16-.09.31.31,0,0,0,.09-.11.51.51,0,0,0,0-.13.36.36,0,0,0-.06-.2.46.46,0,0,0-.16-.15,1.19,1.19,0,0,0-.25-.13l-.33-.14a2.53,2.53,0,0,1-.57-.29,2,2,0,0,1-.39-.36,1.5,1.5,0,0,1-.21-.42,1.43,1.43,0,0,1-.07-.46,1.51,1.51,0,0,1,.15-.68,1.75,1.75,0,0,1,.42-.52,2.25,2.25,0,0,1,.66-.32,3.13,3.13,0,0,1,.85-.11h.47c.14,0,.27,0,.39.06a2.27,2.27,0,0,1,.3.06,1.26,1.26,0,0,1,.25.07v1.3a1.45,1.45,0,0,0-.25-.12,1.57,1.57,0,0,0-.3-.12,1.87,1.87,0,0,0-.34-.08,1.63,1.63,0,0,0-.38,0,.83.83,0,0,0-.41.09.3.3,0,0,0-.16.27.28.28,0,0,0,0,.15.38.38,0,0,0,.1.12,1.05,1.05,0,0,0,.21.12,1.4,1.4,0,0,0,.3.14,4,4,0,0,1,.59.28,2,2,0,0,1,.46.34,1.28,1.28,0,0,1,.3.43,1.4,1.4,0,0,1,.11.56A1.11,1.11,0,0,1,407,122.4Zm2.85-13.58c3.75,0,6.79.92,6.79,2.08s-3,2.08-6.79,2.08-6.78-.93-6.78-2.08S406.09,108.82,409.83,108.82Zm6.69,14.77h-3.29v-5.12h1.54v3.91h1.75Zm-3.41,3.68a4.82,4.82,0,0,1,.65,0,6.55,6.55,0,0,1,5.6-3.62V111.32c0-2-4.26-3.87-9.53-3.87s-9.51,1.79-9.51,3.77v17.84c0,1.78,3.5,3.47,8.05,3.78a4.9,4.9,0,0,1-.06-.77A4.8,4.8,0,0,1,413.11,127.27Z"/><path class="cls-32" d="M425.4,135.55H413.11a3.49,3.49,0,0,1,0-7,3.39,3.39,0,0,1,1.13.19l.32.11.1-.31a5.24,5.24,0,0,1,10.22,1.66,5.42,5.42,0,0,1-.19,1.39l-.13.48.49-.06.21,0a1.76,1.76,0,0,1,.14,3.52Zm2.28-1.75a2.43,2.43,0,0,0-2.25-2.42,6.29,6.29,0,0,0,.11-1.14,5.9,5.9,0,0,0-11.39-2.18,4.15,4.15,0,0,0-5.18,4,4.16,4.16,0,0,0,4.07,4.15h12.83A2.53,2.53,0,0,0,427.68,133.8Z"/><path class="cls-32" d="M409.28,122.05a.61.61,0,0,0,.3.23.73.73,0,0,0,.36.08.72.72,0,0,0,.35-.08.71.71,0,0,0,.29-.23,1.06,1.06,0,0,0,.22-.41,2.36,2.36,0,0,0,.07-.58,2.19,2.19,0,0,0-.05-.52,1.44,1.44,0,0,0-.17-.44.86.86,0,0,0-.28-.29.72.72,0,0,0-.4-.11.91.91,0,0,0-.45.11.83.83,0,0,0-.3.29,1.32,1.32,0,0,0-.17.42,2.19,2.19,0,0,0-.05.52,2.1,2.1,0,0,0,.07.6A1.21,1.21,0,0,0,409.28,122.05Z"/><path class="cls-32" d="M407.54,122.14a2.8,2.8,0,0,1-.18-1,3,3,0,0,1,.19-1.1,2.52,2.52,0,0,1,.54-.86,2.36,2.36,0,0,1,.83-.55,2.94,2.94,0,0,1,2.08,0,2.24,2.24,0,0,1,.79.53,2.42,2.42,0,0,1,.53.83,3.08,3.08,0,0,1,.18,1.09,2.71,2.71,0,0,1-.11.82,2.47,2.47,0,0,1-.3.68,2.26,2.26,0,0,1-.44.53,2,2,0,0,1-.56.37l1.72,1.47h-2l-1.12-1.21a2.82,2.82,0,0,1-.92-.22,2.42,2.42,0,0,1-1.27-1.32Zm-.56.26a1.09,1.09,0,0,1-.14.38,1.19,1.19,0,0,1-.26.34,1.3,1.3,0,0,1-.41.29,1.88,1.88,0,0,1-.58.19,3.15,3.15,0,0,1-.79.08,3.19,3.19,0,0,1-.45,0,2.52,2.52,0,0,1-.41-.06l-.33-.08a2.64,2.64,0,0,1-.27-.1V122a2,2,0,0,0,.3.19c.1.06.23.11.35.17l.39.11a1.31,1.31,0,0,0,.39,0,1,1,0,0,0,.26,0,.31.31,0,0,0,.16-.09.31.31,0,0,0,.09-.11.51.51,0,0,0,0-.13.36.36,0,0,0-.06-.2.46.46,0,0,0-.16-.15,1.19,1.19,0,0,0-.25-.13l-.33-.14a2.53,2.53,0,0,1-.57-.29,2,2,0,0,1-.39-.36,1.5,1.5,0,0,1-.21-.42,1.43,1.43,0,0,1-.07-.46,1.51,1.51,0,0,1,.15-.68,1.75,1.75,0,0,1,.42-.52,2.25,2.25,0,0,1,.66-.32,3.13,3.13,0,0,1,.85-.11h.47c.14,0,.27,0,.39.06a2.27,2.27,0,0,1,.3.06,1.26,1.26,0,0,1,.25.07v1.3a1.45,1.45,0,0,0-.25-.12,1.57,1.57,0,0,0-.3-.12,1.87,1.87,0,0,0-.34-.08,1.63,1.63,0,0,0-.38,0,.83.83,0,0,0-.41.09.3.3,0,0,0-.16.27.28.28,0,0,0,0,.15.38.38,0,0,0,.1.12,1.05,1.05,0,0,0,.21.12,1.4,1.4,0,0,0,.3.14,4,4,0,0,1,.59.28,2,2,0,0,1,.46.34,1.28,1.28,0,0,1,.3.43,1.4,1.4,0,0,1,.11.56A1.11,1.11,0,0,1,407,122.4Zm2.85-13.58c3.75,0,6.79.92,6.79,2.08s-3,2.08-6.79,2.08-6.78-.93-6.78-2.08S406.09,108.82,409.83,108.82Zm6.69,14.77h-3.29v-5.12h1.54v3.91h1.75Zm-3.41,3.68a4.82,4.82,0,0,1,.65,0,6.55,6.55,0,0,1,5.6-3.62V111.32c0-2-4.26-3.87-9.53-3.87s-9.51,1.79-9.51,3.77v17.84c0,1.78,3.5,3.47,8.05,3.78a4.9,4.9,0,0,1-.06-.77A4.8,4.8,0,0,1,413.11,127.27Z"/><path class="cls-32" d="M425.4,135.55H413.11a3.49,3.49,0,0,1,0-7,3.39,3.39,0,0,1,1.13.19l.32.11.1-.31a5.24,5.24,0,0,1,10.22,1.66,5.42,5.42,0,0,1-.19,1.39l-.13.48.49-.06.21,0a1.76,1.76,0,0,1,.14,3.52Zm2.28-1.75a2.43,2.43,0,0,0-2.25-2.42,6.29,6.29,0,0,0,.11-1.14,5.9,5.9,0,0,0-11.39-2.18,4.15,4.15,0,0,0-5.18,4,4.16,4.16,0,0,0,4.07,4.15h12.83A2.53,2.53,0,0,0,427.68,133.8Z"/><text class="cls-87" transform="translate(395.88 148.23)">D<tspan class="cls-88" x="6.61" y="0">a</tspan><tspan class="cls-25" x="10.84" y="0">t</tspan><tspan class="cls-89" x="13.84" y="0">a</tspan><tspan class="cls-90" x="18.65" y="0">b</tspan><tspan class="cls-88" x="24.07" y="0">a</tspan><tspan class="cls-91" x="28.3" y="0">s</tspan><tspan class="cls-28" x="32.5" y="0">e</tspan></text><path class="cls-30" d="M409.83,107.42c-5.25,0-9.51,1.8-9.51,3.77V129c0,2,4.26,3.83,9.51,3.83s9.53-1.77,9.53-3.74V111.29C419.36,109.31,415.1,107.42,409.83,107.42Z"/><path class="cls-31" d="M409.83,107.42c-5.25,0-9.51,1.8-9.51,3.77V129c0,2,4.26,3.83,9.51,3.83s9.53-1.77,9.53-3.74V111.29C419.36,109.31,415.1,107.42,409.83,107.42Z"/><path class="cls-30" d="M427.68,133.8a2.43,2.43,0,0,0-2.25-2.42,6.29,6.29,0,0,0,.11-1.14,5.9,5.9,0,0,0-11.39-2.18,4.15,4.15,0,0,0-5.18,4,4.16,4.16,0,0,0,4.07,4.15h12.85A2.51,2.51,0,0,0,427.68,133.8Z"/><path class="cls-31" d="M427.68,133.8a2.43,2.43,0,0,0-2.25-2.42,6.29,6.29,0,0,0,.11-1.14,5.9,5.9,0,0,0-11.39-2.18,4.15,4.15,0,0,0-5.18,4,4.16,4.16,0,0,0,4.07,4.15h12.85A2.51,2.51,0,0,0,427.68,133.8Z"/><path class="cls-32" d="M409.28,122.05a.61.61,0,0,0,.3.23.73.73,0,0,0,.36.08.72.72,0,0,0,.35-.08.71.71,0,0,0,.29-.23,1.06,1.06,0,0,0,.22-.41,2.36,2.36,0,0,0,.07-.58,2.19,2.19,0,0,0-.05-.52,1.44,1.44,0,0,0-.17-.44.86.86,0,0,0-.28-.29.72.72,0,0,0-.4-.11.91.91,0,0,0-.45.11.83.83,0,0,0-.3.29,1.32,1.32,0,0,0-.17.42,2.19,2.19,0,0,0-.05.52,2.1,2.1,0,0,0,.07.6A1.21,1.21,0,0,0,409.28,122.05Z"/><path class="cls-32" d="M407.54,122.14a2.8,2.8,0,0,1-.18-1,3,3,0,0,1,.19-1.1,2.52,2.52,0,0,1,.54-.86,2.36,2.36,0,0,1,.83-.55,2.94,2.94,0,0,1,2.08,0,2.24,2.24,0,0,1,.79.53,2.42,2.42,0,0,1,.53.83,3.08,3.08,0,0,1,.18,1.09,2.71,2.71,0,0,1-.11.82,2.47,2.47,0,0,1-.3.68,2.26,2.26,0,0,1-.44.53,2,2,0,0,1-.56.37l1.72,1.47h-2l-1.12-1.21a2.82,2.82,0,0,1-.92-.22,2.42,2.42,0,0,1-1.27-1.32Zm-.56.26a1.09,1.09,0,0,1-.14.38,1.19,1.19,0,0,1-.26.34,1.3,1.3,0,0,1-.41.29,1.88,1.88,0,0,1-.58.19,3.15,3.15,0,0,1-.79.08,3.19,3.19,0,0,1-.45,0,2.52,2.52,0,0,1-.41-.06l-.33-.08a2.64,2.64,0,0,1-.27-.1V122a2,2,0,0,0,.3.19c.1.06.23.11.35.17l.39.11a1.31,1.31,0,0,0,.39,0,1,1,0,0,0,.26,0,.31.31,0,0,0,.16-.09.31.31,0,0,0,.09-.11.51.51,0,0,0,0-.13.36.36,0,0,0-.06-.2.46.46,0,0,0-.16-.15,1.19,1.19,0,0,0-.25-.13l-.33-.14a2.53,2.53,0,0,1-.57-.29,2,2,0,0,1-.39-.36,1.5,1.5,0,0,1-.21-.42,1.43,1.43,0,0,1-.07-.46,1.51,1.51,0,0,1,.15-.68,1.75,1.75,0,0,1,.42-.52,2.25,2.25,0,0,1,.66-.32,3.13,3.13,0,0,1,.85-.11h.47c.14,0,.27,0,.39.06a2.27,2.27,0,0,1,.3.06,1.26,1.26,0,0,1,.25.07v1.3a1.45,1.45,0,0,0-.25-.12,1.57,1.57,0,0,0-.3-.12,1.87,1.87,0,0,0-.34-.08,1.63,1.63,0,0,0-.38,0,.83.83,0,0,0-.41.09.3.3,0,0,0-.16.27.28.28,0,0,0,0,.15.38.38,0,0,0,.1.12,1.05,1.05,0,0,0,.21.12,1.4,1.4,0,0,0,.3.14,4,4,0,0,1,.59.28,2,2,0,0,1,.46.34,1.28,1.28,0,0,1,.3.43,1.4,1.4,0,0,1,.11.56A1.11,1.11,0,0,1,407,122.4Zm2.85-13.58c3.75,0,6.79.92,6.79,2.08s-3,2.08-6.79,2.08-6.78-.93-6.78-2.08S406.09,108.82,409.83,108.82Zm6.69,14.77h-3.29v-5.12h1.54v3.91h1.75Zm-3.41,3.68a4.82,4.82,0,0,1,.65,0,6.55,6.55,0,0,1,5.6-3.62V111.32c0-2-4.26-3.87-9.53-3.87s-9.51,1.79-9.51,3.77v17.84c0,1.78,3.5,3.47,8.05,3.78a4.9,4.9,0,0,1-.06-.77A4.8,4.8,0,0,1,413.11,127.27Z"/><path class="cls-32" d="M425.4,135.55H413.11a3.49,3.49,0,0,1,0-7,3.39,3.39,0,0,1,1.13.19l.32.11.1-.31a5.24,5.24,0,0,1,10.22,1.66,5.42,5.42,0,0,1-.19,1.39l-.13.48.49-.06.21,0a1.76,1.76,0,0,1,.14,3.52Zm2.28-1.75a2.43,2.43,0,0,0-2.25-2.42,6.29,6.29,0,0,0,.11-1.14,5.9,5.9,0,0,0-11.39-2.18,4.15,4.15,0,0,0-5.18,4,4.16,4.16,0,0,0,4.07,4.15h12.83A2.53,2.53,0,0,0,427.68,133.8Z"/><text class="cls-87" transform="translate(395.88 148.23)">D<tspan class="cls-88" x="6.61" y="0">a</tspan><tspan class="cls-25" x="10.84" y="0">t</tspan><tspan class="cls-89" x="13.84" y="0">a</tspan><tspan class="cls-90" x="18.65" y="0">b</tspan><tspan class="cls-88" x="24.07" y="0">a</tspan><tspan class="cls-91" x="28.3" y="0">s</tspan><tspan class="cls-28" x="32.5" y="0">e</tspan></text><path class="cls-30" d="M464.42,233.44a.72.72,0,0,1-.34-.1L457,229.05a.77.77,0,0,1-.34-.65.86.86,0,0,1,.34-.66L464,223.5a.57.57,0,0,1,.68,0l7.14,4.29a.77.77,0,0,1,.34.61.69.69,0,0,1-.34.6l-7.09,4.24A.41.41,0,0,1,464.42,233.44Z"/><path class="cls-30" d="M463.4,243.84a.72.72,0,0,1-.34-.1l-7.13-4.29a.72.72,0,0,1-.34-.66v-8.58a.84.84,0,0,1,.34-.65.57.57,0,0,1,.68,0l7.13,4.29a.77.77,0,0,1,.34.65v8.58a.69.69,0,0,1-.34.61A.39.39,0,0,1,463.4,243.84Z"/><path class="cls-30" d="M465.39,243.84a.93.93,0,0,1-.34-.1.69.69,0,0,1-.34-.66v-8.52a.71.71,0,0,1,.34-.61l7.14-4.29a.57.57,0,0,1,.68,0,.75.75,0,0,1,.34.66v8.52a.69.69,0,0,1-.34.61l-7.14,4.29A.53.53,0,0,1,465.39,243.84Z"/><path class="cls-30" d="M456.9,244.8a1.15,1.15,0,0,1-.59-.15l-3.3-2a2.55,2.55,0,0,1-1.21-2.17V227.74a2.56,2.56,0,0,1,1.21-2.17l3.3-2A1.18,1.18,0,0,1,458,224a1.27,1.27,0,0,1-.44,1.71l-3.3,2v12.72l0,0,3.3,2a1.27,1.27,0,0,1,.43,1.71A1.47,1.47,0,0,1,456.9,244.8Z"/><path class="cls-30" d="M471.9,244.8a1.07,1.07,0,0,1-1-.61,1.27,1.27,0,0,1,.44-1.71l3.3-2V227.74l-.05-.05-3.3-2a1.27,1.27,0,0,1-.44-1.71,1.2,1.2,0,0,1,1.65-.46l3.3,2a2.57,2.57,0,0,1,1.22,2.17v12.72a2.56,2.56,0,0,1-1.22,2.17l-3.3,2A1.25,1.25,0,0,1,471.9,244.8Z"/><path class="cls-30" d="M464.42,233.44a.72.72,0,0,1-.34-.1L457,229.05a.77.77,0,0,1-.34-.65.86.86,0,0,1,.34-.66L464,223.5a.57.57,0,0,1,.68,0l7.14,4.29a.77.77,0,0,1,.34.61.69.69,0,0,1-.34.6l-7.09,4.24A.41.41,0,0,1,464.42,233.44Z"/><path class="cls-30" d="M463.4,243.84a.72.72,0,0,1-.34-.1l-7.13-4.29a.72.72,0,0,1-.34-.66v-8.58a.84.84,0,0,1,.34-.65.57.57,0,0,1,.68,0l7.13,4.29a.77.77,0,0,1,.34.65v8.58a.69.69,0,0,1-.34.61A.39.39,0,0,1,463.4,243.84Z"/><path class="cls-30" d="M465.39,243.84a.93.93,0,0,1-.34-.1.69.69,0,0,1-.34-.66v-8.52a.71.71,0,0,1,.34-.61l7.14-4.29a.57.57,0,0,1,.68,0,.75.75,0,0,1,.34.66v8.52a.69.69,0,0,1-.34.61l-7.14,4.29A.53.53,0,0,1,465.39,243.84Z"/><path class="cls-30" d="M456.9,244.8a1.15,1.15,0,0,1-.59-.15l-3.3-2a2.55,2.55,0,0,1-1.21-2.17V227.74a2.56,2.56,0,0,1,1.21-2.17l3.3-2A1.18,1.18,0,0,1,458,224a1.27,1.27,0,0,1-.44,1.71l-3.3,2v12.72l0,0,3.3,2a1.27,1.27,0,0,1,.43,1.71A1.47,1.47,0,0,1,456.9,244.8Z"/><path class="cls-30" d="M471.9,244.8a1.07,1.07,0,0,1-1-.61,1.27,1.27,0,0,1,.44-1.71l3.3-2V227.74l-.05-.05-3.3-2a1.27,1.27,0,0,1-.44-1.71,1.2,1.2,0,0,1,1.65-.46l3.3,2a2.57,2.57,0,0,1,1.22,2.17v12.72a2.56,2.56,0,0,1-1.22,2.17l-3.3,2A1.25,1.25,0,0,1,471.9,244.8Z"/><path class="cls-32" d="M464.42,232.94c-.05,0-.05,0-.09-.05l-7.14-4.29a.25.25,0,0,1,0-.4l7.09-4.24a.14.14,0,0,1,.19,0l7.14,4.29a.25.25,0,0,1,0,.4l-7.09,4.24C464.47,232.94,464.47,232.94,464.42,232.94Z"/><path class="cls-32" d="M463.4,243.34s-.09,0-.09-.05L456.17,239a.26.26,0,0,1-.1-.21v-8.58a.26.26,0,0,1,.1-.2.14.14,0,0,1,.19,0l7.14,4.29a.26.26,0,0,1,.1.2v8.58a.26.26,0,0,1-.1.21A.15.15,0,0,1,463.4,243.34Z"/><path class="cls-32" d="M465.39,243.34s-.09,0-.09-.05a.26.26,0,0,1-.1-.21v-8.52a.26.26,0,0,1,.1-.21l7.13-4.29a.15.15,0,0,1,.2,0,.26.26,0,0,1,.1.21v8.52a.26.26,0,0,1-.1.21l-7.14,4.29C465.49,243.34,465.44,243.34,465.39,243.34Z"/><path class="cls-32" d="M456.9,244.3a.85.85,0,0,1-.34-.11l-3.3-2a2.1,2.1,0,0,1-1-1.72V227.74a2,2,0,0,1,1-1.71l3.3-2a.7.7,0,0,1,1,.25.76.76,0,0,1-.24,1l-3.31,2a.71.71,0,0,0-.24.45v12.72a.71.71,0,0,0,.24.45l3.31,2a.76.76,0,0,1,.24,1A.84.84,0,0,1,456.9,244.3Z"/><path class="cls-32" d="M471.9,224a.88.88,0,0,1,.34.1l3.3,2a2.1,2.1,0,0,1,1,1.71v12.72a2,2,0,0,1-1,1.72l-3.3,2a.68.68,0,0,1-1-.25.76.76,0,0,1,.24-1l3.3-2a.67.67,0,0,0,.25-.45V227.79a.67.67,0,0,0-.25-.45l-3.3-2a.76.76,0,0,1-.24-1A.7.7,0,0,1,471.9,224Z"/><path class="cls-32" d="M464.42,232.94c-.05,0-.05,0-.09-.05l-7.14-4.29a.25.25,0,0,1,0-.4l7.09-4.24a.14.14,0,0,1,.19,0l7.14,4.29a.25.25,0,0,1,0,.4l-7.09,4.24C464.47,232.94,464.47,232.94,464.42,232.94Z"/><path class="cls-32" d="M463.4,243.34s-.09,0-.09-.05L456.17,239a.26.26,0,0,1-.1-.21v-8.58a.26.26,0,0,1,.1-.2.14.14,0,0,1,.19,0l7.14,4.29a.26.26,0,0,1,.1.2v8.58a.26.26,0,0,1-.1.21A.15.15,0,0,1,463.4,243.34Z"/><path class="cls-32" d="M465.39,243.34s-.09,0-.09-.05a.26.26,0,0,1-.1-.21v-8.52a.26.26,0,0,1,.1-.21l7.13-4.29a.15.15,0,0,1,.2,0,.26.26,0,0,1,.1.21v8.52a.26.26,0,0,1-.1.21l-7.14,4.29C465.49,243.34,465.44,243.34,465.39,243.34Z"/><path class="cls-32" d="M456.9,244.3a.85.85,0,0,1-.34-.11l-3.3-2a2.1,2.1,0,0,1-1-1.72V227.74a2,2,0,0,1,1-1.71l3.3-2a.7.7,0,0,1,1,.25.76.76,0,0,1-.24,1l-3.31,2a.71.71,0,0,0-.24.45v12.72a.71.71,0,0,0,.24.45l3.31,2a.76.76,0,0,1,.24,1A.84.84,0,0,1,456.9,244.3Z"/><path class="cls-32" d="M471.9,224a.88.88,0,0,1,.34.1l3.3,2a2.1,2.1,0,0,1,1,1.71v12.72a2,2,0,0,1-1,1.72l-3.3,2a.68.68,0,0,1-1-.25.76.76,0,0,1,.24-1l3.3-2a.67.67,0,0,0,.25-.45V227.79a.67.67,0,0,0-.25-.45l-3.3-2a.76.76,0,0,1-.24-1A.7.7,0,0,1,471.9,224Z"/><text class="cls-92" transform="translate(391.8 227.85)"><tspan class="cls-93">R</tspan><tspan class="cls-94" x="4.81" y="0">e</tspan><tspan class="cls-95" x="9.59" y="0">s</tspan><tspan class="cls-13" x="12.59" y="0">o</tspan><tspan class="cls-96" x="17.37" y="0">u</tspan><tspan class="cls-97" x="22.15" y="0">r</tspan><tspan class="cls-91" x="25.16" y="0">c</tspan><tspan class="cls-98" x="29.35" y="0">e</tspan><tspan class="cls-99" x="33.56" y="0"> </tspan><tspan class="cls-34" x="35.94" y="0">g</tspan><tspan class="cls-97" x="40.15" y="0">r</tspan><tspan class="cls-13" x="43.15" y="0">o</tspan><tspan class="cls-96" x="47.94" y="0">u</tspan><tspan x="52.72" y="0">p</tspan></text><path class="cls-30" d="M464.42,233.44a.72.72,0,0,1-.34-.1L457,229.05a.77.77,0,0,1-.34-.65.86.86,0,0,1,.34-.66L464,223.5a.57.57,0,0,1,.68,0l7.14,4.29a.77.77,0,0,1,.34.61.69.69,0,0,1-.34.6l-7.09,4.24A.41.41,0,0,1,464.42,233.44Z"/><path class="cls-30" d="M463.4,243.84a.72.72,0,0,1-.34-.1l-7.13-4.29a.72.72,0,0,1-.34-.66v-8.58a.84.84,0,0,1,.34-.65.57.57,0,0,1,.68,0l7.13,4.29a.77.77,0,0,1,.34.65v8.58a.69.69,0,0,1-.34.61A.39.39,0,0,1,463.4,243.84Z"/><path class="cls-30" d="M465.39,243.84a.93.93,0,0,1-.34-.1.69.69,0,0,1-.34-.66v-8.52a.71.71,0,0,1,.34-.61l7.14-4.29a.57.57,0,0,1,.68,0,.75.75,0,0,1,.34.66v8.52a.69.69,0,0,1-.34.61l-7.14,4.29A.53.53,0,0,1,465.39,243.84Z"/><path class="cls-30" d="M456.9,244.8a1.15,1.15,0,0,1-.59-.15l-3.3-2a2.55,2.55,0,0,1-1.21-2.17V227.74a2.56,2.56,0,0,1,1.21-2.17l3.3-2A1.18,1.18,0,0,1,458,224a1.27,1.27,0,0,1-.44,1.71l-3.3,2v12.72l0,0,3.3,2a1.27,1.27,0,0,1,.43,1.71A1.47,1.47,0,0,1,456.9,244.8Z"/><path class="cls-30" d="M471.9,244.8a1.07,1.07,0,0,1-1-.61,1.27,1.27,0,0,1,.44-1.71l3.3-2V227.74l-.05-.05-3.3-2a1.27,1.27,0,0,1-.44-1.71,1.2,1.2,0,0,1,1.65-.46l3.3,2a2.57,2.57,0,0,1,1.22,2.17v12.72a2.56,2.56,0,0,1-1.22,2.17l-3.3,2A1.25,1.25,0,0,1,471.9,244.8Z"/><path class="cls-32" d="M464.42,232.94c-.05,0-.05,0-.09-.05l-7.14-4.29a.25.25,0,0,1,0-.4l7.09-4.24a.14.14,0,0,1,.19,0l7.14,4.29a.25.25,0,0,1,0,.4l-7.09,4.24C464.47,232.94,464.47,232.94,464.42,232.94Z"/><path class="cls-32" d="M463.4,243.34s-.09,0-.09-.05L456.17,239a.26.26,0,0,1-.1-.21v-8.58a.26.26,0,0,1,.1-.2.14.14,0,0,1,.19,0l7.14,4.29a.26.26,0,0,1,.1.2v8.58a.26.26,0,0,1-.1.21A.15.15,0,0,1,463.4,243.34Z"/><path class="cls-32" d="M465.39,243.34s-.09,0-.09-.05a.26.26,0,0,1-.1-.21v-8.52a.26.26,0,0,1,.1-.21l7.13-4.29a.15.15,0,0,1,.2,0,.26.26,0,0,1,.1.21v8.52a.26.26,0,0,1-.1.21l-7.14,4.29C465.49,243.34,465.44,243.34,465.39,243.34Z"/><path class="cls-32" d="M456.9,244.3a.85.85,0,0,1-.34-.11l-3.3-2a2.1,2.1,0,0,1-1-1.72V227.74a2,2,0,0,1,1-1.71l3.3-2a.7.7,0,0,1,1,.25.76.76,0,0,1-.24,1l-3.31,2a.71.71,0,0,0-.24.45v12.72a.71.71,0,0,0,.24.45l3.31,2a.76.76,0,0,1,.24,1A.84.84,0,0,1,456.9,244.3Z"/><path class="cls-32" d="M471.9,224a.88.88,0,0,1,.34.1l3.3,2a2.1,2.1,0,0,1,1,1.71v12.72a2,2,0,0,1-1,1.72l-3.3,2a.68.68,0,0,1-1-.25.76.76,0,0,1,.24-1l3.3-2a.67.67,0,0,0,.25-.45V227.79a.67.67,0,0,0-.25-.45l-3.3-2a.76.76,0,0,1-.24-1A.7.7,0,0,1,471.9,224Z"/><text class="cls-92" transform="translate(391.8 227.85)"><tspan class="cls-93">R</tspan><tspan class="cls-94" x="4.81" y="0">e</tspan><tspan class="cls-95" x="9.59" y="0">s</tspan><tspan class="cls-13" x="12.59" y="0">o</tspan><tspan class="cls-96" x="17.37" y="0">u</tspan><tspan class="cls-97" x="22.15" y="0">r</tspan><tspan class="cls-91" x="25.16" y="0">c</tspan><tspan class="cls-98" x="29.35" y="0">e</tspan><tspan class="cls-99" x="33.56" y="0"> </tspan><tspan class="cls-34" x="35.94" y="0">g</tspan><tspan class="cls-97" x="40.15" y="0">r</tspan><tspan class="cls-13" x="43.15" y="0">o</tspan><tspan class="cls-96" x="47.94" y="0">u</tspan><tspan x="52.72" y="0">p</tspan></text><polygon class="cls-30" points="250.23 183.76 235.77 183.76 228.54 196.28 235.77 208.8 250.23 208.8 257.46 196.28 250.23 183.76"/><polygon class="cls-31" points="250.23 183.76 235.77 183.76 228.54 196.28 235.77 208.8 250.23 208.8 257.46 196.28 250.23 183.76"/><path class="cls-32" d="M250.27,201.87a2,2,0,0,1-2,2H237.69a2,2,0,0,1-2-2v-11.2a2,2,0,0,1,2-1.94h9.56l3,3Zm0-18.11H235.77l-7.23,12.52,7.23,12.52h14.46l7.23-12.52Z"/><path class="cls-32" d="M241.87,198.29a1.48,1.48,0,0,0-.08-.29.78.78,0,0,0-.12-.19.42.42,0,0,0-.17-.1.64.64,0,0,0-.2,0,.53.53,0,0,0-.32.09.61.61,0,0,0-.21.28,2.39,2.39,0,0,0-.1.47,6.18,6.18,0,0,0,0,.65,5.2,5.2,0,0,0,0,.75,1.7,1.7,0,0,0,.11.48.49.49,0,0,0,.2.24.54.54,0,0,0,.29.07.56.56,0,0,0,.23,0,.41.41,0,0,0,.17-.12.53.53,0,0,0,.12-.21,1.11,1.11,0,0,0,.08-.29,2,2,0,0,0,.05-.37c0-.14,0-.29,0-.46s0-.38,0-.53A2.07,2.07,0,0,0,241.87,198.29Z"/><path class="cls-32" d="M245.29,192.45a1,1,0,0,0-.09-.29.52.52,0,0,0-.12-.19.39.39,0,0,0-.16-.1.71.71,0,0,0-.21,0,.55.55,0,0,0-.32.09.67.67,0,0,0-.2.28,1.84,1.84,0,0,0-.1.47,6.18,6.18,0,0,0,0,.65c0,.3,0,.56,0,.75a2.08,2.08,0,0,0,.12.48.44.44,0,0,0,.19.24.58.58,0,0,0,.3.08.51.51,0,0,0,.22,0,.36.36,0,0,0,.18-.12.53.53,0,0,0,.12-.21,1.71,1.71,0,0,0,.08-.29,3.22,3.22,0,0,0,0-.37c0-.14,0-.29,0-.45s0-.39,0-.54A3.62,3.62,0,0,0,245.29,192.45Z"/><path class="cls-32" d="M246.15,194.26a2.13,2.13,0,0,1-.27.7,1.32,1.32,0,0,1-.49.45,1.83,1.83,0,0,1-1.45,0,1.1,1.1,0,0,1-.45-.43,2.15,2.15,0,0,1-.24-.69,6.26,6.26,0,0,1-.06-.92,4.44,4.44,0,0,1,.08-.92,1.83,1.83,0,0,1,.27-.7,1.2,1.2,0,0,1,.48-.44,1.49,1.49,0,0,1,.73-.16,1.54,1.54,0,0,1,.72.15,1.12,1.12,0,0,1,.46.43,1.93,1.93,0,0,1,.23.69,5.14,5.14,0,0,1,.07.92A5.08,5.08,0,0,1,246.15,194.26Zm-.06,6.89a.31.31,0,0,1,0,.11l0,.05-.05,0h-2.35l-.05,0,0-.05a.81.81,0,0,1,0-.11s0-.09,0-.15,0-.12,0-.16a.81.81,0,0,1,0-.11.1.1,0,0,1,0,0,.06.06,0,0,1,.05,0h.8v-2.77l-.69.38-.12,0a.08.08,0,0,1-.08,0,.13.13,0,0,1,0-.1,1,1,0,0,1,0-.19v-.13s0-.06,0-.09l0-.06.06-.05.92-.59,0,0h.54l.11,0,.06,0s0,0,0,0v3.52H246a.07.07,0,0,1,.06,0l0,0,0,.11V201A.66.66,0,0,1,246.09,201.15Zm-3.36-1.05a1.77,1.77,0,0,1-.27.7,1.22,1.22,0,0,1-.48.45,1.61,1.61,0,0,1-.73.15,1.54,1.54,0,0,1-.72-.15,1.19,1.19,0,0,1-.46-.43,1.93,1.93,0,0,1-.23-.69,5.14,5.14,0,0,1-.07-.92,5.25,5.25,0,0,1,.08-.92,2.22,2.22,0,0,1,.27-.7,1.29,1.29,0,0,1,.49-.44,1.47,1.47,0,0,1,.72-.16,1.55,1.55,0,0,1,.73.15,1.16,1.16,0,0,1,.45.43,1.94,1.94,0,0,1,.24.69,6.36,6.36,0,0,1,.06.92A4.32,4.32,0,0,1,242.73,200.1ZM240.07,192s0-.06,0-.09l0-.06a.15.15,0,0,1,.06,0l.91-.6,0,0h.66l0,0a.09.09,0,0,1,0,.05v3.52h.7l.05,0a.09.09,0,0,1,0,.06s0,.06,0,.1a.71.71,0,0,1,0,.16.66.66,0,0,1,0,.15.81.81,0,0,1,0,.11.1.1,0,0,1,0,.05l-.05,0h-2.35l-.05,0a.1.1,0,0,1,0-.05.81.81,0,0,1,0-.11.66.66,0,0,1,0-.15.71.71,0,0,1,0-.16.25.25,0,0,1,0-.1s0-.05,0-.06l.05,0H241v-2.77l-.68.38a.38.38,0,0,1-.13,0,.06.06,0,0,1-.07,0,.19.19,0,0,1,0-.09,1.15,1.15,0,0,1,0-.2Zm6.71-2.22h-9.1a.89.89,0,0,0-.88.88v11.19a.89.89,0,0,0,.88.89h10.64a.9.9,0,0,0,.88-.89v-9.61h-2.42Z"/><path class="cls-32" d="M250.27,201.87a2,2,0,0,1-2,2H237.69a2,2,0,0,1-2-2v-11.2a2,2,0,0,1,2-1.94h9.56l3,3Zm0-18.11H235.77l-7.23,12.52,7.23,12.52h14.46l7.23-12.52Z"/><path class="cls-32" d="M241.87,198.29a1.48,1.48,0,0,0-.08-.29.78.78,0,0,0-.12-.19.42.42,0,0,0-.17-.1.64.64,0,0,0-.2,0,.53.53,0,0,0-.32.09.61.61,0,0,0-.21.28,2.39,2.39,0,0,0-.1.47,6.18,6.18,0,0,0,0,.65,5.2,5.2,0,0,0,0,.75,1.7,1.7,0,0,0,.11.48.49.49,0,0,0,.2.24.54.54,0,0,0,.29.07.56.56,0,0,0,.23,0,.41.41,0,0,0,.17-.12.53.53,0,0,0,.12-.21,1.11,1.11,0,0,0,.08-.29,2,2,0,0,0,.05-.37c0-.14,0-.29,0-.46s0-.38,0-.53A2.07,2.07,0,0,0,241.87,198.29Z"/><path class="cls-32" d="M245.29,192.45a1,1,0,0,0-.09-.29.52.52,0,0,0-.12-.19.39.39,0,0,0-.16-.1.71.71,0,0,0-.21,0,.55.55,0,0,0-.32.09.67.67,0,0,0-.2.28,1.84,1.84,0,0,0-.1.47,6.18,6.18,0,0,0,0,.65c0,.3,0,.56,0,.75a2.08,2.08,0,0,0,.12.48.44.44,0,0,0,.19.24.58.58,0,0,0,.3.08.51.51,0,0,0,.22,0,.36.36,0,0,0,.18-.12.53.53,0,0,0,.12-.21,1.71,1.71,0,0,0,.08-.29,3.22,3.22,0,0,0,0-.37c0-.14,0-.29,0-.45s0-.39,0-.54A3.62,3.62,0,0,0,245.29,192.45Z"/><path class="cls-32" d="M246.15,194.26a2.13,2.13,0,0,1-.27.7,1.32,1.32,0,0,1-.49.45,1.83,1.83,0,0,1-1.45,0,1.1,1.1,0,0,1-.45-.43,2.15,2.15,0,0,1-.24-.69,6.26,6.26,0,0,1-.06-.92,4.44,4.44,0,0,1,.08-.92,1.83,1.83,0,0,1,.27-.7,1.2,1.2,0,0,1,.48-.44,1.49,1.49,0,0,1,.73-.16,1.54,1.54,0,0,1,.72.15,1.12,1.12,0,0,1,.46.43,1.93,1.93,0,0,1,.23.69,5.14,5.14,0,0,1,.07.92A5.08,5.08,0,0,1,246.15,194.26Zm-.06,6.89a.31.31,0,0,1,0,.11l0,.05-.05,0h-2.35l-.05,0,0-.05a.81.81,0,0,1,0-.11s0-.09,0-.15,0-.12,0-.16a.81.81,0,0,1,0-.11.1.1,0,0,1,0,0,.06.06,0,0,1,.05,0h.8v-2.77l-.69.38-.12,0a.08.08,0,0,1-.08,0,.13.13,0,0,1,0-.1,1,1,0,0,1,0-.19v-.13s0-.06,0-.09l0-.06.06-.05.92-.59,0,0h.54l.11,0,.06,0s0,0,0,0v3.52H246a.07.07,0,0,1,.06,0l0,0,0,.11V201A.66.66,0,0,1,246.09,201.15Zm-3.36-1.05a1.77,1.77,0,0,1-.27.7,1.22,1.22,0,0,1-.48.45,1.61,1.61,0,0,1-.73.15,1.54,1.54,0,0,1-.72-.15,1.19,1.19,0,0,1-.46-.43,1.93,1.93,0,0,1-.23-.69,5.14,5.14,0,0,1-.07-.92,5.25,5.25,0,0,1,.08-.92,2.22,2.22,0,0,1,.27-.7,1.29,1.29,0,0,1,.49-.44,1.47,1.47,0,0,1,.72-.16,1.55,1.55,0,0,1,.73.15,1.16,1.16,0,0,1,.45.43,1.94,1.94,0,0,1,.24.69,6.36,6.36,0,0,1,.06.92A4.32,4.32,0,0,1,242.73,200.1ZM240.07,192s0-.06,0-.09l0-.06a.15.15,0,0,1,.06,0l.91-.6,0,0h.66l0,0a.09.09,0,0,1,0,.05v3.52h.7l.05,0a.09.09,0,0,1,0,.06s0,.06,0,.1a.71.71,0,0,1,0,.16.66.66,0,0,1,0,.15.81.81,0,0,1,0,.11.1.1,0,0,1,0,.05l-.05,0h-2.35l-.05,0a.1.1,0,0,1,0-.05.81.81,0,0,1,0-.11.66.66,0,0,1,0-.15.71.71,0,0,1,0-.16.25.25,0,0,1,0-.1s0-.05,0-.06l.05,0H241v-2.77l-.68.38a.38.38,0,0,1-.13,0,.06.06,0,0,1-.07,0,.19.19,0,0,1,0-.09,1.15,1.15,0,0,1,0-.2Zm6.71-2.22h-9.1a.89.89,0,0,0-.88.88v11.19a.89.89,0,0,0,.88.89h10.64a.9.9,0,0,0,.88-.89v-9.61h-2.42Z"/><text class="cls-100" transform="translate(217.55 219.2)">S<tspan class="cls-101" x="4.79" y="0">t</tspan><tspan class="cls-102" x="7.81" y="0">o</tspan><tspan class="cls-103" x="13.19" y="0">r</tspan><tspan class="cls-104" x="16.2" y="0">a</tspan><tspan class="cls-105" x="20.99" y="0">g</tspan><tspan class="cls-106" x="26.37" y="0">e</tspan><tspan class="cls-107" x="30.58" y="0"> </tspan><tspan class="cls-108" x="32.99" y="0">b</tspan><tspan class="cls-104" x="38.38" y="0">l</tspan><tspan class="cls-102" x="40.76" y="0">o</tspan><tspan x="46.15" y="0">b</tspan></text><polygon class="cls-30" points="250.23 183.76 235.77 183.76 228.54 196.28 235.77 208.8 250.23 208.8 257.46 196.28 250.23 183.76"/><polygon class="cls-31" points="250.23 183.76 235.77 183.76 228.54 196.28 235.77 208.8 250.23 208.8 257.46 196.28 250.23 183.76"/><path class="cls-32" d="M250.27,201.87a2,2,0,0,1-2,2H237.69a2,2,0,0,1-2-2v-11.2a2,2,0,0,1,2-1.94h9.56l3,3Zm0-18.11H235.77l-7.23,12.52,7.23,12.52h14.46l7.23-12.52Z"/><path class="cls-32" d="M241.87,198.29a1.48,1.48,0,0,0-.08-.29.78.78,0,0,0-.12-.19.42.42,0,0,0-.17-.1.64.64,0,0,0-.2,0,.53.53,0,0,0-.32.09.61.61,0,0,0-.21.28,2.39,2.39,0,0,0-.1.47,6.18,6.18,0,0,0,0,.65,5.2,5.2,0,0,0,0,.75,1.7,1.7,0,0,0,.11.48.49.49,0,0,0,.2.24.54.54,0,0,0,.29.07.56.56,0,0,0,.23,0,.41.41,0,0,0,.17-.12.53.53,0,0,0,.12-.21,1.11,1.11,0,0,0,.08-.29,2,2,0,0,0,.05-.37c0-.14,0-.29,0-.46s0-.38,0-.53A2.07,2.07,0,0,0,241.87,198.29Z"/><path class="cls-32" d="M245.29,192.45a1,1,0,0,0-.09-.29.52.52,0,0,0-.12-.19.39.39,0,0,0-.16-.1.71.71,0,0,0-.21,0,.55.55,0,0,0-.32.09.67.67,0,0,0-.2.28,1.84,1.84,0,0,0-.1.47,6.18,6.18,0,0,0,0,.65c0,.3,0,.56,0,.75a2.08,2.08,0,0,0,.12.48.44.44,0,0,0,.19.24.58.58,0,0,0,.3.08.51.51,0,0,0,.22,0,.36.36,0,0,0,.18-.12.53.53,0,0,0,.12-.21,1.71,1.71,0,0,0,.08-.29,3.22,3.22,0,0,0,0-.37c0-.14,0-.29,0-.45s0-.39,0-.54A3.62,3.62,0,0,0,245.29,192.45Z"/><path class="cls-32" d="M246.15,194.26a2.13,2.13,0,0,1-.27.7,1.32,1.32,0,0,1-.49.45,1.83,1.83,0,0,1-1.45,0,1.1,1.1,0,0,1-.45-.43,2.15,2.15,0,0,1-.24-.69,6.26,6.26,0,0,1-.06-.92,4.44,4.44,0,0,1,.08-.92,1.83,1.83,0,0,1,.27-.7,1.2,1.2,0,0,1,.48-.44,1.49,1.49,0,0,1,.73-.16,1.54,1.54,0,0,1,.72.15,1.12,1.12,0,0,1,.46.43,1.93,1.93,0,0,1,.23.69,5.14,5.14,0,0,1,.07.92A5.08,5.08,0,0,1,246.15,194.26Zm-.06,6.89a.31.31,0,0,1,0,.11l0,.05-.05,0h-2.35l-.05,0,0-.05a.81.81,0,0,1,0-.11s0-.09,0-.15,0-.12,0-.16a.81.81,0,0,1,0-.11.1.1,0,0,1,0,0,.06.06,0,0,1,.05,0h.8v-2.77l-.69.38-.12,0a.08.08,0,0,1-.08,0,.13.13,0,0,1,0-.1,1,1,0,0,1,0-.19v-.13s0-.06,0-.09l0-.06.06-.05.92-.59,0,0h.54l.11,0,.06,0s0,0,0,0v3.52H246a.07.07,0,0,1,.06,0l0,0,0,.11V201A.66.66,0,0,1,246.09,201.15Zm-3.36-1.05a1.77,1.77,0,0,1-.27.7,1.22,1.22,0,0,1-.48.45,1.61,1.61,0,0,1-.73.15,1.54,1.54,0,0,1-.72-.15,1.19,1.19,0,0,1-.46-.43,1.93,1.93,0,0,1-.23-.69,5.14,5.14,0,0,1-.07-.92,5.25,5.25,0,0,1,.08-.92,2.22,2.22,0,0,1,.27-.7,1.29,1.29,0,0,1,.49-.44,1.47,1.47,0,0,1,.72-.16,1.55,1.55,0,0,1,.73.15,1.16,1.16,0,0,1,.45.43,1.94,1.94,0,0,1,.24.69,6.36,6.36,0,0,1,.06.92A4.32,4.32,0,0,1,242.73,200.1ZM240.07,192s0-.06,0-.09l0-.06a.15.15,0,0,1,.06,0l.91-.6,0,0h.66l0,0a.09.09,0,0,1,0,.05v3.52h.7l.05,0a.09.09,0,0,1,0,.06s0,.06,0,.1a.71.71,0,0,1,0,.16.66.66,0,0,1,0,.15.81.81,0,0,1,0,.11.1.1,0,0,1,0,.05l-.05,0h-2.35l-.05,0a.1.1,0,0,1,0-.05.81.81,0,0,1,0-.11.66.66,0,0,1,0-.15.71.71,0,0,1,0-.16.25.25,0,0,1,0-.1s0-.05,0-.06l.05,0H241v-2.77l-.68.38a.38.38,0,0,1-.13,0,.06.06,0,0,1-.07,0,.19.19,0,0,1,0-.09,1.15,1.15,0,0,1,0-.2Zm6.71-2.22h-9.1a.89.89,0,0,0-.88.88v11.19a.89.89,0,0,0,.88.89h10.64a.9.9,0,0,0,.88-.89v-9.61h-2.42Z"/><polygon class="cls-30" points="259.13 57.63 259.13 44.85 231.99 44.85 231.99 72 259.2 72 259.2 57.63 259.13 57.63"/><polygon class="cls-31" points="259.13 57.63 259.13 44.85 231.99 44.85 231.99 72 259.2 72 259.2 57.63 259.13 57.63"/><polygon class="cls-30" points="259.13 57.63 259.13 44.85 231.99 44.85 231.99 72 259.2 72 259.2 57.63 259.13 57.63"/><polygon class="cls-31" points="259.13 57.63 259.13 44.85 231.99 44.85 231.99 72 259.2 72 259.2 57.63 259.13 57.63"/><path class="cls-32" d="M242.91,70.08h-9.07v-9h1.79a5,5,0,0,1-.33-1.79v-.13h-3.38V71.93h12.85V64.39h-1.86Z"/><path class="cls-32" d="M255.62,61.08h1.66v9h-9.07V64.39h-1.85v7.54H259.2V59.22h-4a3.3,3.3,0,0,1,.46,1.79Z"/><path class="cls-32" d="M233.84,55.71v-9h9.07v5.23a6.9,6.9,0,0,1,1.86-.93V44.85H232V57.63h3.71a4.39,4.39,0,0,1,1.19-1.85Z"/><path class="cls-32" d="M248.21,50.88V46.71h9.07v9h-3.91a7.92,7.92,0,0,1,.27,1.79v.07h5.56V44.85H246.29v5.9h.46A5.52,5.52,0,0,1,248.21,50.88Z"/><path class="cls-32" d="M242.91,70.08h-9.07v-9h1.79a5,5,0,0,1-.33-1.79v-.13h-3.38V71.93h12.85V64.39h-1.86Z"/><path class="cls-32" d="M255.62,61.08h1.66v9h-9.07V64.39h-1.85v7.54H259.2V59.22h-4a3.3,3.3,0,0,1,.46,1.79Z"/><path class="cls-32" d="M233.84,55.71v-9h9.07v5.23a6.9,6.9,0,0,1,1.86-.93V44.85H232V57.63h3.71a4.39,4.39,0,0,1,1.19-1.85Z"/><path class="cls-32" d="M248.21,50.88V46.71h9.07v9h-3.91a7.92,7.92,0,0,1,.27,1.79v.07h5.56V44.85H246.29v5.9h.46A5.52,5.52,0,0,1,248.21,50.88Z"/><path class="cls-32" d="M254.17,61a2,2,0,0,0-2-2h-.26a5.31,5.31,0,0,0,.2-1.46,5.37,5.37,0,0,0-10.47-1.72,3.76,3.76,0,0,0-1.19-.2,3.65,3.65,0,0,0-3.64,3.71A3.69,3.69,0,0,0,240.46,63h11.92A2,2,0,0,0,254.17,61Z"/><polygon class="cls-30" points="259.13 57.63 259.13 44.85 231.99 44.85 231.99 72 259.2 72 259.2 57.63 259.13 57.63"/><polygon class="cls-31" points="259.13 57.63 259.13 44.85 231.99 44.85 231.99 72 259.2 72 259.2 57.63 259.13 57.63"/><path class="cls-32" d="M242.91,70.08h-9.07v-9h1.79a5,5,0,0,1-.33-1.79v-.13h-3.38V71.93h12.85V64.39h-1.86Z"/><path class="cls-32" d="M255.62,61.08h1.66v9h-9.07V64.39h-1.85v7.54H259.2V59.22h-4a3.3,3.3,0,0,1,.46,1.79Z"/><path class="cls-32" d="M233.84,55.71v-9h9.07v5.23a6.9,6.9,0,0,1,1.86-.93V44.85H232V57.63h3.71a4.39,4.39,0,0,1,1.19-1.85Z"/><path class="cls-32" d="M248.21,50.88V46.71h9.07v9h-3.91a7.92,7.92,0,0,1,.27,1.79v.07h5.56V44.85H246.29v5.9h.46A5.52,5.52,0,0,1,248.21,50.88Z"/><path class="cls-32" d="M254.17,61a2,2,0,0,0-2-2h-.26a5.31,5.31,0,0,0,.2-1.46,5.37,5.37,0,0,0-10.47-1.72,3.76,3.76,0,0,0-1.19-.2,3.65,3.65,0,0,0-3.64,3.71A3.69,3.69,0,0,0,240.46,63h11.92A2,2,0,0,0,254.17,61Z"/></svg>