<?xml version="1.0" encoding="UTF-8" standalone="no"?>
<!DOCTYPE svg PUBLIC "-//W3C//DTD SVG 1.1//EN" "http://www.w3.org/Graphics/SVG/1.1/DTD/svg11.dtd">
<!-- Generated by Microsoft Visio, SVG Export basic-web-app.svg Page-1 -->
<svg xmlns="http://www.w3.org/2000/svg" xmlns:xlink="http://www.w3.org/1999/xlink" xmlns:ev="http://www.w3.org/2001/xml-events"
		viewBox="0 0 574.267 313.213" xml:space="preserve" color-interpolation-filters="sRGB"
		class="st25">
	<style type="text/css">
	<![CDATA[
		.st1 {fill:#ffffff;stroke:#0078d7;stroke-dasharray:2.25,2.25;stroke-linecap:round;stroke-linejoin:round;stroke-width:0.75}
		.st2 {fill:#f2f2f2;stroke:none;stroke-linecap:round;stroke-linejoin:round;stroke-width:0.75}
		.st3 {fill:#0078d7;font-family:segoe-ui_normal,Segoe UI,Segoe,Segoe WP,Helvetica Neue,Helvetica,sans-serif;font-size:1.00001em}
		.st4 {fill:#ffffff;stroke:#a5a5a5;stroke-linecap:round;stroke-linejoin:round;stroke-width:0.75}
		.st5 {fill:#ffffff;stroke:none;stroke-linecap:round;stroke-linejoin:round;stroke-width:0.75}
		.st6 {fill:#ffffff;stroke:#ffffff;stroke-linecap:butt;stroke-width:1.5}
		.st7 {fill:#0078d7;stroke:none;stroke-linecap:butt;stroke-width:0.75}
		.st8 {fill:#7f7f7f;stroke:none;stroke-linecap:butt;stroke-width:0.75}
		.st9 {font-size:1em}
		.st10 {marker-end:url(#mrkr4-86);stroke:#0078d7;stroke-linecap:round;stroke-linejoin:round;stroke-width:0.75}
		.st11 {fill:#0078d7;fill-opacity:1;stroke:#0078d7;stroke-opacity:1;stroke-width:0.22935779816514}
		.st12 {marker-end:url(#mrkr4-92);stroke:#7f7f7f;stroke-dasharray:2.25,2.25;stroke-linecap:round;stroke-linejoin:round;stroke-width:0.75}
		.st13 {fill:#7f7f7f;fill-opacity:1;stroke:#7f7f7f;stroke-opacity:1;stroke-width:0.22935779816514}
		.st14 {fill:#ffffff;stroke:none;stroke-linecap:butt}
		.st15 {fill:#7f7f7f;font-family:segoe-ui_normal,Segoe UI,Segoe,Segoe WP,Helvetica Neue,Helvetica,sans-serif;font-size:0.916672em;font-style:italic}
		.st16 {fill:#ffffff;stroke:#3f3f3f;stroke-linecap:butt;stroke-width:0.75}
		.st17 {fill:#3f3f3f;font-family:segoe-ui_normal,Segoe UI,Segoe,Segoe WP,Helvetica Neue,Helvetica,sans-serif;font-size:0.833336em}
		.st18 {fill:#ffffff;stroke:none;stroke-linecap:butt;stroke-width:0.772727}
		.st19 {fill:#0078d7;stroke:none;stroke-linecap:butt;stroke-width:0.772727}
		.st20 {fill:#0078d7;font-family:segoe-ui_normal,Segoe UI,Segoe,Segoe WP,Helvetica Neue,Helvetica,sans-serif;font-size:0.916672em}
		.st21 {fill:#ffffff;stroke:none;stroke-linecap:butt;stroke-width:0.653846}
		.st22 {fill:#0078d7;stroke:none;stroke-linecap:butt;stroke-width:0.653846}
		.st23 {fill:#0078d7;stroke:none;stroke-linecap:butt;stroke-width:3.09873}
		.st24 {fill:#0078d7;font-family:segoe-ui_normal,Segoe UI,Segoe,Segoe WP,Helvetica Neue,Helvetica,sans-serif;font-size:0.75em}
		.st25 {fill:none;fill-rule:evenodd;font-size:12px;overflow:visible;stroke-linecap:square;stroke-miterlimit:3}
	]]>
	</style>

	<defs id="Markers">
		<g id="lend4">
			<path d="M 2 1 L 0 0 L 2 -1 L 2 1 " style="stroke:none"/>
		</g>
		<marker id="mrkr4-86" class="st11" refX="-8.72" orient="auto" markerUnits="strokeWidth" overflow="visible">
			<use xlink:href="#lend4" transform="scale(-4.36,-4.36) "/>
		</marker>
		<marker id="mrkr4-92" class="st13" refX="-8.72" orient="auto" markerUnits="strokeWidth" overflow="visible">
			<use xlink:href="#lend4" transform="scale(-4.36,-4.36) "/>
		</marker>
	</defs>
	<g>
		<title>Page-1</title>
		<g id="shape1130-1" transform="translate(216.036,-32.4789)">
			<title>Sheet.1130</title>
			<path d="M0 313.21 L169.83 313.21 L339.67 313.21 L339.67 51.55 L169.83 51.55 L0 51.55 L0 313.21 Z" class="st1"/>
		</g>
		<g id="shape1262-3" transform="translate(220.874,-109.438)">
			<title>Sheet.1262</title>
			<desc>App Service plan</desc>
			<path d="M0 313.21 L72 313.21 L144 313.21 L144 137.43 L72 137.43 L0 137.43 L0 313.21 Z" class="st2"/>
			<text x="27.71" y="152.23" class="st3">App Service plan</text>		</g>
		<g id="shape1131-6" transform="translate(218.916,-29.5989)">
			<title>Sheet.1131</title>
		</g>
		<g id="shape1136-8" transform="translate(235.089,-104.696)">
			<title>Sheet.1136</title>
		</g>
		<g id="shape1140-10" transform="translate(383.173,-107.576)">
			<title>Sheet.1140</title>
			<desc>Azure SQL Database</desc>
			<path d="M0 313.21 L80.87 313.21 L161.75 313.21 L161.75 137.43 L80.87 137.43 L0 137.43 L0 313.21 Z" class="st2"/>
			<text x="27.24" y="152.23" class="st3">Azure SQL Database</text>		</g>
		<g id="shape1146-13" transform="translate(402.228,-120.87)">
			<title>Sheet.1146</title>
		</g>
		<g id="shape1145-15" transform="translate(399.348,-123.75)">
			<title>Sheet.1145</title>
			<path d="M0 313.21 L64.7 313.21 L129.4 313.21 L129.4 197.3 L64.7 197.3 L0 197.3 L0 313.21 Z" class="st4"/>
		</g>
		<g id="shape1151-17" transform="translate(3.255,-51.165)">
			<title>Sheet.1151</title>
		</g>
		<g id="shape1150-19" transform="translate(0.375,-54.045)">
			<title>Sheet.1150</title>
			<path d="M0 313.21 L86.26 313.21 L172.53 313.21 L172.53 54.42 L86.26 54.42 L0 54.42 L0 313.21 Z" class="st5"/>
		</g>
		<g id="group1155-21" transform="translate(446.806,-223.618)">
			<title>SQL database (generic) (opaque)</title>
			<g id="shape1156-22">
				<title>Sheet.1156</title>
				<path d="M12.93 278.71 C5.79 278.71 0 281.15 0 283.82 L0 308.02 C-0 310.69 5.79 313.21 12.93 313.21 C20.08 313.21
							 25.88 310.81 25.88 308.13 L25.88 283.96 C25.88 281.27 20.08 278.71 12.93 278.71 Z" class="st6"/>
			</g>
			<g id="group1157-24">
				<title>Sheet.1157</title>
				<g id="shape1158-25" transform="translate(11.7896,-14.2798)">
					<title>Sheet.1158</title>
					<path d="M2.25 310.15 C2.16 309.99 2.02 309.85 1.87 309.75 C1.72 309.65 1.54 309.6 1.32 309.6 C1.09 309.6 0.88
								 309.65 0.72 309.75 C0.55 309.85 0.42 309.97 0.3 310.14 C0.2 310.31 0.12 310.49 0.07 310.72 C0.02
								 310.94 0 311.17 0 311.42 C0 311.74 0.03 312.01 0.1 312.24 C0.18 312.47 0.27 312.65 0.38 312.8 C0.5
								 312.94 0.63 313.05 0.79 313.11 C0.94 313.18 1.11 313.21 1.29 313.21 C1.45 313.21 1.61 313.18 1.75
								 313.11 C1.91 313.05 2.04 312.93 2.16 312.79 C2.28 312.65 2.38 312.47 2.45 312.24 C2.51 312.02 2.55
								 311.76 2.55 311.45 C2.55 311.2 2.53 310.96 2.48 310.74 C2.43 310.51 2.35 310.32 2.25 310.15 Z"
							class="st7"/>
				</g>
				<g id="shape1159-27">
					<title>Sheet.1159</title>
					<path d="M12.93 278.71 C5.79 278.71 0 281.15 0 283.82 L0 308.02 C-0 310.69 5.79 313.21 12.93 313.21 C20.08 313.21
								 25.88 310.81 25.88 308.13 L25.88 283.96 C25.88 281.27 20.08 278.71 12.93 278.71 ZM9.05 298.99 C9.02
								 299.17 8.96 299.33 8.86 299.5 C8.78 299.66 8.66 299.82 8.51 299.96 C8.36 300.11 8.18 300.25 7.95
								 300.36 C7.73 300.47 7.46 300.56 7.16 300.62 C6.85 300.69 6.5 300.72 6.09 300.72 C5.87 300.72 5.67
								 300.71 5.47 300.68 C5.27 300.66 5.1 300.64 4.92 300.6 C4.75 300.57 4.6 300.52 4.46 300.48 C4.32
								 300.44 4.2 300.39 4.1 300.35 L4.1 298.45 C4.21 298.53 4.35 298.63 4.51 298.71 C4.65 298.79 4.82
								 298.86 4.98 298.94 C5.15 299 5.32 299.05 5.51 299.09 C5.69 299.15 5.86 299.17 6.04 299.17 C6.19
								 299.17 6.31 299.15 6.4 299.11 C6.5 299.09 6.57 299.05 6.62 299 C6.67 298.96 6.71 298.91 6.74 298.85
								 C6.76 298.79 6.77 298.74 6.77 298.68 C6.77 298.57 6.74 298.48 6.68 298.4 C6.63 298.33 6.56 298.25
								 6.47 298.19 C6.36 298.13 6.25 298.07 6.12 298.01 C5.99 297.95 5.83 297.9 5.68 297.84 C5.38 297.72
								 5.12 297.59 4.9 297.43 C4.69 297.28 4.51 297.12 4.38 296.95 C4.24 296.77 4.15 296.57 4.09 296.38
								 C4.03 296.18 4 295.97 4 295.75 C4 295.41 4.07 295.11 4.2 294.83 C4.34 294.56 4.53 294.33 4.77 294.13
								 C5.02 293.95 5.32 293.79 5.66 293.7 C6.01 293.6 6.39 293.54 6.82 293.54 C7.05 293.54 7.26 293.55
								 7.46 293.56 C7.66 293.58 7.83 293.61 7.99 293.64 C8.14 293.66 8.28 293.69 8.4 293.72 C8.53 293.75
								 8.64 293.78 8.74 293.81 L8.74 295.58 C8.63 295.52 8.53 295.46 8.39 295.41 C8.27 295.35 8.13 295.3
								 7.99 295.26 C7.84 295.2 7.69 295.17 7.52 295.14 C7.36 295.11 7.19 295.1 7.01 295.1 C6.78 295.1 6.6
								 295.14 6.45 295.23 C6.31 295.32 6.23 295.43 6.23 295.59 C6.23 295.66 6.25 295.73 6.29 295.8 C6.32
								 295.86 6.37 295.91 6.43 295.96 C6.5 296.01 6.6 296.08 6.71 296.13 C6.83 296.19 6.96 296.25 7.13
								 296.31 C7.42 296.43 7.68 296.55 7.93 296.69 C8.16 296.82 8.37 296.98 8.55 297.15 C8.72 297.32 8.86
								 297.52 8.95 297.73 C9.06 297.95 9.11 298.21 9.11 298.5 C9.11 298.66 9.09 298.82 9.05 298.99 ZM14.31
								 302.36 L12.78 300.72 C12.34 300.69 11.92 300.59 11.54 300.42 C11.14 300.24 10.8 300.02 10.51 299.72
								 C10.22 299.41 9.99 299.06 9.82 298.64 C9.65 298.22 9.57 297.74 9.57 297.23 C9.57 296.68 9.65 296.18
								 9.83 295.73 C10 295.28 10.24 294.89 10.56 294.57 C10.87 294.24 11.25 293.99 11.68 293.81 C12.12
								 293.64 12.61 293.54 13.13 293.54 C13.62 293.54 14.08 293.63 14.51 293.79 C14.92 293.96 15.28 294.2
								 15.58 294.51 C15.89 294.81 16.12 295.18 16.3 295.63 C16.47 296.06 16.55 296.56 16.55 297.11 C16.55
								 297.51 16.51 297.88 16.4 298.22 C16.31 298.56 16.18 298.88 16 299.15 C15.83 299.43 15.63 299.67
								 15.4 299.87 C15.16 300.08 14.91 300.25 14.63 300.37 L16.97 302.36 L14.31 302.36 L14.31 302.36 ZM22.02
								 300.6 L17.54 300.6 L17.54 293.66 L19.63 293.66 L19.63 298.96 L22.02 298.96 L22.02 300.6 L22.02 300.6
								 ZM12.92 286.21 C7.83 286.21 3.71 284.95 3.71 283.39 C3.71 281.82 7.83 280.56 12.92 280.56 C18.01
								 280.56 22.14 281.82 22.14 283.39 C22.14 284.95 18.01 286.21 12.92 286.21 Z" class="st7"/>
				</g>
			</g>
		</g>
		<g id="group1160-29" transform="translate(468.636,-226.19)">
			<title>Sheet.1160</title>
			<g id="shape1161-30">
				<title>Sheet.1161</title>
				<path d="M6.21 309.11 C5.11 309.11 4.23 308.24 4.23 307.18 C4.23 306.11 5.12 305.25 6.21 305.25 C7.3 305.25 8.17
							 306.12 8.17 307.18 C8.18 308.24 7.3 309.11 6.21 309.11 ZM10.06 302.4 L8.46 303.2 L7.48 302.81 L6.87
							 301.14 L5.47 301.14 L4.92 302.81 L3.94 303.2 L2.29 302.45 L1.3 303.42 L2.12 304.98 L1.71 305.92 L0 306.53
							 L0 307.89 L1.7 308.43 L2.11 309.38 L1.34 310.98 L2.34 311.96 L3.94 311.16 L4.91 311.56 L5.53 313.21
							 L6.94 313.21 L7.49 311.56 L8.45 311.16 L10.1 311.91 L11.09 310.94 L10.28 309.39 L10.69 308.43 L12.39
							 307.84 L12.39 306.46 L10.69 305.92 L10.28 304.98 L11.07 303.39 L10.06 302.4 Z" class="st8"/>
			</g>
		</g>
		<g id="shape1154-32" transform="translate(449.87,-226.19)">
			<title>Sheet.1154</title>
			<desc>Logical server</desc>
			<text x="-21.94" y="332.65" class="st3">Logical server</text>		</g>
		<g id="shape1163-34" transform="translate(272.107,-154.415)">
			<title>Sheet.1163</title>
			<path d="M33.06 285.47 C29.67 281.03 24.56 278.71 19.39 278.71 C15.76 278.71 12.07 279.87 8.96 282.26 C1.43 288.06 0
						 298.89 5.77 306.45 C9.15 310.89 14.26 313.21 19.42 313.21 C23.07 313.21 26.75 312.06 29.86 309.66 C37.39
						 303.87 38.82 293.03 33.06 285.47 Z" class="st6"/>
		</g>
		<g id="group1164-36" transform="translate(272.107,-154.415)">
			<title>Sheet.1164</title>
			<g id="group1165-37">
				<title>Sheet.1165</title>
				<g id="shape1166-38">
					<title>Sheet.1166</title>
					<path d="M28.49 307.88 C25.78 309.96 22.59 310.97 19.42 310.97 C14.92 310.97 10.48 308.95 7.54 305.09 C2.52 298.5
								 3.75 289.09 10.33 284.04 C13.03 281.96 16.23 280.96 19.39 280.96 C23.9 280.96 28.34 282.98 31.28
								 286.84 C36.3 293.42 35.06 302.84 28.49 307.88 ZM33.06 285.47 C29.67 281.03 24.56 278.71 19.39 278.71
								 C15.76 278.71 12.07 279.87 8.96 282.26 C1.43 288.06 0 298.89 5.77 306.45 C9.15 310.89 14.26 313.21
								 19.42 313.21 C23.07 313.21 26.75 312.06 29.86 309.66 C37.39 303.87 38.82 293.03 33.06 285.47 Z"
							class="st7"/>
				</g>
			</g>
			<g id="group1167-40" transform="translate(6.16941,-5.35042)">
				<title>Sheet.1167</title>
				<g id="group1168-41" transform="translate(0.425531,-0.214829)">
					<title>Sheet.1168</title>
					<g id="group1169-42" transform="translate(0.544353,3.97904E-13)">
						<title>Sheet.1169</title>
						<g id="shape1170-43">
							<title>Sheet.1170</title>
							<path d="M4.5 304.66 C3.51 303.67 2.71 302.73 2.07 301.8 C0.63 304.74 0.12 307.77 0 310.18 C0.14 310.37
										 0.14 310.52 0.28 310.72 C1 311.64 1.91 312.51 2.78 313.21 C2.65 311.24 2.83 308.01 4.5 304.66
										 Z" class="st7"/>
						</g>
					</g>
					<g id="shape1171-45" transform="translate(4.09855,-10.9275)">
						<title>Sheet.1171</title>
						<path d="M6.15 304.09 C4.8 305.03 3.41 306.22 2.01 307.71 C1.24 308.53 0.58 309.36 0 310.21 C0.6 311.18 1.38
									 312.17 2.36 313.21 C3.1 312.16 4.01 311.12 5.1 310.09 C6.48 308.79 7.78 307.76 9 306.92 C8 305.99
									 7.04 305.06 6.15 304.09 Z" class="st7"/>
					</g>
					<g id="group1172-47" transform="translate(12.3688,-18.4976)">
						<title>Sheet.1172</title>
						<g id="shape1173-48">
							<title>Sheet.1173</title>
							<path d="M12.16 310.69 C11.51 309.85 10.78 309.13 10.01 308.47 C7.7 308.11 4.11 308.15 0 310.34 C0.94
										 311.36 1.88 312.32 2.79 313.21 C8.27 310.25 12.16 310.69 12.16 310.69 Z" class="st7"/>
						</g>
					</g>
					<g id="group1174-50" transform="translate(-2.72282E-14,-11.4183)">
						<title>Sheet.1174</title>
						<g id="shape1175-51">
							<title>Sheet.1175</title>
							<path d="M2.62 313.21 C3.03 312.38 3.53 311.53 4.1 310.7 C1.74 306.96 1.86 303.88 2.11 302.43 C1.52 303.05
										 0.97 303.69 0.5 304.39 C0.02 306.34 -0 309.46 2.62 313.21 Z" class="st7"/>
						</g>
					</g>
					<g id="group1176-53" transform="translate(5.0439,-0.901049)">
						<title>Sheet.1176</title>
						<g id="shape1177-54">
							<title>Sheet.1177</title>
							<path d="M4.25 305.78 C3.16 304.9 2.22 304.03 1.42 303.18 C0.85 303.98 0.39 304.77 0 305.56 C0.75 306.32
										 1.61 307.08 2.6 307.88 C8.72 312.75 14.82 313.21 18.24 313.21 C18.46 313.21 19.54 311.76
										 20.15 310.85 C18.62 311.17 12.08 312 4.25 305.78 Z" class="st7"/>
						</g>
					</g>
					<g id="group1178-56" transform="translate(2.61862,-8.55803)">
						<title>Sheet.1178</title>
						<g id="shape1179-57">
							<title>Sheet.1179</title>
							<path d="M0 310.35 C0.64 311.28 1.43 312.23 2.42 313.21 C2.81 312.43 3.29 311.64 3.85 310.84 C2.86 309.8
										 2.08 308.8 1.48 307.84 C0.9 308.67 0.42 309.52 0 310.35 Z" class="st7"/>
						</g>
					</g>
					<g id="group1180-59" transform="translate(13.0963,-6.47998)">
						<title>Sheet.1180</title>
						<g id="shape1181-60">
							<title>Sheet.1181</title>
							<path d="M0 302.47 C5.59 307.65 12.2 312.06 13.89 313.21 C14.06 312.79 14.17 312.37 14.29 311.93 C12.49
										 310.59 7.74 306.87 2.06 301.2 C1.4 301.55 0.71 301.98 0 302.47 Z" class="st7"/>
						</g>
					</g>
					<g id="group1182-62" transform="translate(6.20894,-20.0504)">
						<title>Sheet.1182</title>
						<g id="shape1183-63">
							<title>Sheet.1183</title>
							<path d="M6.16 311.89 C4.79 310.45 3.4 308.92 1.98 307.27 C1.3 307.48 0.64 307.76 0 308.07 C1.05 309.79
										 2.45 311.52 4.04 313.21 C4.76 312.7 5.46 312.27 6.16 311.89 Z" class="st7"/>
						</g>
					</g>
					<g id="shape1184-65" transform="translate(10.131,-17.1033)">
						<title>Sheet.1184</title>
						<path d="M2.33 308.9 C1.63 309.28 0.71 309.84 0 310.35 C0.89 311.3 1.8 312.29 2.8 313.21 C3.52 312.72 4.47
									 312.13 5.12 311.77 C4.21 310.88 3.27 309.92 2.33 308.9 Z" class="st7"/>
					</g>
					<g id="shape1185-67" transform="translate(10.1301,-17.0467)">
						<title>Sheet.1185</title>
						<path d="M2.07 308.71 C1.37 309.09 0.71 309.58 0 310.08 C0.89 311.04 2.16 312.29 3.16 313.21 C3.88 312.72
									 4.47 312.23 5.12 311.86 C4.21 310.98 3.02 309.73 2.07 308.71 Z" class="st7"/>
					</g>
				</g>
				<g id="group1186-69" transform="translate(18.5021,-7.59175)">
					<title>Sheet.1186</title>
					<g id="shape1187-70">
						<title>Sheet.1187</title>
						<path d="M1.67 307.02 C0.27 308.1 0 310.13 1.08 311.53 C2.16 312.96 4.18 313.21 5.59 312.14 C6.99 311.06
									 7.26 309.04 6.19 307.62 C5.1 306.22 3.09 305.93 1.67 307.02 Z" class="st7"/>
					</g>
				</g>
				<g id="group1188-72" transform="translate(12.015,-2.84217E-13)">
					<title>Sheet.1188</title>
					<g id="shape1189-73">
						<title>Sheet.1189</title>
						<path d="M1.54 307.48 C0.24 308.48 -0 310.36 0.98 311.67 C1.99 312.97 3.85 313.21 5.16 312.22 C6.46 311.22
									 6.71 309.34 5.71 308.04 C4.72 306.73 2.85 306.48 1.54 307.48 Z" class="st7"/>
					</g>
				</g>
				<g id="group1190-75" transform="translate(0,-6.52992)">
					<title>Sheet.1190</title>
					<g id="shape1191-76">
						<title>Sheet.1191</title>
						<path d="M2.35 304.5 C0.37 306.02 0 308.86 1.51 310.84 C3.03 312.84 5.87 313.21 7.85 311.69 C9.83 310.17
									 10.2 307.33 8.69 305.32 C7.17 303.36 4.33 302.97 2.35 304.5 Z" class="st7"/>
					</g>
				</g>
			</g>
		</g>
		<g id="shape1162-78" transform="translate(272.107,-154.415)">
			<title>Web App (opaque)  (was websites)</title>
			<desc>App Service web app</desc>
			<text x="-11.81" y="326.6" class="st3">App Service <tspan x="-3.34" dy="1.2em" class="st9">web app</tspan></text>		</g>
		<g id="shape1192-81" transform="translate(114.984,-171.668)">
			<title>Sheet.1192</title>
			<path d="M0 313.21 L151.59 313.21" class="st10"/>
		</g>
		<g id="shape1193-87" transform="translate(-222.093,123.353) rotate(-90)">
			<title>Sheet.1193</title>
			<desc>Authentication</desc>
			<path d="M0 313.21 C5 313.21 9.66 313.21 14.25 313.21 C22.65 313.21 30.79 313.21 39.97 313.21" class="st12"/>
			<rect x="320.958" y="-31.54" width="69.9434" height="13.2001" transform="rotate(90)" class="st14"/>
			<text x="320.96" y="-21.64" transform="rotate(90)" class="st15">Authentication</text>		</g>
		<g id="shape1194-95" transform="translate(404.333,159.449) rotate(90)">
			<title>Sheet.1194</title>
			<desc>Name resolution</desc>
			<path d="M0 313.21 C5 313.21 9.66 313.21 14.25 313.21 C22.65 313.21 30.79 313.21 39.97 313.21" class="st12"/>
			<rect x="-298.332" y="6.75897" width="46.9495" height="26.4001" transform="rotate(-90)" class="st14"/>
			<text x="-289.36" y="16.66" transform="rotate(-90)" class="st15">Name<tspan x="-298.33" dy="1.2em" class="st9">resolution</tspan></text>		</g>
		<g id="shape1195-103" transform="translate(62.9167,-154.415)">
			<title>Internet white (opaque)</title>
			<desc>Internet</desc>
			<path d="M49.03 313.21 L8.53 313.21 C3.83 313.21 0 308.9 0 303.59 C0 298.28 3.83 293.96 8.53 293.96 C8.86 293.96 9.19
						 293.98 9.54 294.03 C10.94 291.52 13.37 289.98 16 289.98 C16.72 289.98 17.44 290.11 18.15 290.35 C18.15 290.24
						 18.15 290.13 18.15 290.01 C18.15 283.78 22.63 278.71 28.15 278.71 C32.02 278.71 35.52 281.3 37.14 285.25
						 C38.58 284.33 40.19 283.85 41.85 283.85 C47.16 283.85 51.48 288.72 51.48 294.72 C51.48 295.31 51.44 295.89
						 51.35 296.5 C54.2 297.86 56.07 300.98 56.07 304.49 C56.07 308.55 53.61 312 50.19 312.97 L49.03 313.21 Z"
					class="st16"/>
			<text x="12.07" y="307.7" class="st17">Internet</text>		</g>
		<g id="shape1197-106" transform="translate(73.8671,-238.347)">
			<title>Sheet.1197</title>
			<path d="M17.29 278.71 L0 299.2 L17.2 313.21 L34.51 299.27 L17.29 278.71 Z" class="st6"/>
		</g>
		<g id="group1198-108" transform="translate(73.8671,-238.347)">
			<title>Sheet.1198</title>
			<g id="group1199-109" transform="translate(10.2584,-10.3254)">
				<title>Sheet.1199</title>
				<g id="shape1200-110">
					<title>Sheet.1200</title>
					<path d="M5.74 302.2 L0 307.48 C0.26 307.91 0.4 308.39 0.4 308.88 C0.4 309.14 0.36 309.38 0.29 309.63 L6.22 313.21
								 L6.22 302.87 C6.14 302.84 5.8 302.25 5.74 302.2 Z" class="st7"/>
				</g>
			</g>
			<g id="group1201-112" transform="translate(17.7657,-10.3213)">
				<title>Sheet.1201</title>
				<g id="shape1202-113">
					<title>Sheet.1202</title>
					<path d="M1.14 302.09 C1.04 302.14 0.1 302.87 0 302.92 L0 313.21 L5.91 309.42 C5.85 309.23 5.84 309.04 5.84 308.84
								 C5.84 308.52 5.91 308.18 6.02 307.85 L1.14 302.09 Z" class="st7"/>
				</g>
			</g>
			<g id="shape1203-115">
				<title>Sheet.1203</title>
				<path d="M17.29 278.71 L0 299.2 L17.2 313.21 L34.51 299.27 L17.29 278.71 ZM26.37 301.29 C25.62 301.29 24.89 300.98
							 24.38 300.44 L19.64 303.81 C19.95 304.25 20.1 304.77 20.1 305.31 C20.1 306.84 18.85 308.08 17.32 308.08
							 C15.81 308.08 14.56 306.84 14.56 305.31 C14.56 304.64 14.81 304.01 15.24 303.52 L9.76 300.58 C9.26 301.06
							 8.59 301.33 7.9 301.33 C6.37 301.33 5.12 300.09 5.12 298.56 C5.12 297.04 6.37 295.79 7.9 295.79 C8.36
							 295.79 8.79 295.9 9.19 296.13 L14.92 290.83 C14.52 290.31 14.3 289.66 14.3 289.01 C14.3 287.33 15.67
							 285.98 17.34 285.98 C19.03 285.98 20.39 287.33 20.39 289.01 C20.39 289.57 20.22 290.12 19.91 290.6 L24.74
							 296.3 C25.21 295.95 25.79 295.75 26.39 295.75 C27.92 295.75 29.16 296.99 29.16 298.52 C29.14 300.04
							 27.89 301.29 26.37 301.29 Z" class="st7"/>
			</g>
		</g>
		<g id="shape1196-117" transform="translate(73.8671,-238.347)">
			<title>Azure Active Directory (opaque)</title>
			<desc>Azure Active Directory</desc>
			<text x="-15.52" y="262.55" class="st3">Azure Active <tspan x="-6.72" dy="1.2em" class="st9">Directory</tspan></text>		</g>
		<g id="group1204-120" transform="translate(73.8671,-72.4642)">
			<title>DNS (opaque).1055</title>
			<desc>Azure DNS</desc>
			<g id="shape1205-121">
				<title>XMLID_18_</title>
				<path d="M17.25 313.21 L17.1 313.21 C12.62 313.21 8.37 311.42 5.08 308.2 L4.03 307.08 C3.96 307 3.88 306.93 3.88
							 306.85 L3.73 306.7 C1.34 303.71 0 299.89 0 296.07 C0 292.26 1.27 288.44 3.66 285.37 L3.73 285.22 L3.81
							 285.14 C3.81 285.07 3.88 285.07 3.96 284.99 L5.08 283.8 C8.29 280.58 12.47 278.78 17.1 278.71 L17.25
							 278.71 C21.88 278.71 26.14 280.5 29.43 283.8 L30.47 284.92 C30.55 284.99 30.62 285.07 30.62 285.14 L30.77
							 285.29 C33.16 288.29 34.51 292.11 34.51 295.92 C34.51 299.82 33.16 303.63 30.77 306.48 L30.62 306.63
							 C30.62 306.7 30.55 306.78 30.47 306.85 L29.43 307.97 C26.14 311.42 21.81 313.21 17.25 313.21 Z"
						class="st18"/>
			</g>
			<g id="group1206-123" transform="translate(0.67219,-0.598799)">
				<title>XMLID_3_</title>
				<g id="shape1207-124">
					<title>XMLID_9_</title>
					<path d="M33.09 296.75 C33.09 293.08 31.82 289.49 29.5 286.57 L29.35 286.42 C29.28 286.34 29.28 286.27 29.2 286.19
								 L28.16 285.07 C25.1 281.93 20.99 280.2 16.58 280.2 L16.43 280.2 C12.1 280.28 8.07 281.93 4.93 284.99
								 L3.81 286.19 C3.73 286.27 3.73 286.34 3.66 286.42 L3.51 286.49 C1.27 289.41 0 293 0 296.75 C0 300.41
								 1.27 304.01 3.59 306.93 L3.73 307.08 C3.81 307.15 3.81 307.23 3.88 307.3 L4.93 308.42 C7.99 311.49
								 12.02 313.21 16.43 313.21 L16.58 313.21 C20.91 313.21 25.1 311.49 28.16 308.42 L29.2 307.23 C29.28
								 307.15 29.28 307.08 29.35 307 L29.5 306.85 C31.82 304.08 33.09 300.41 33.09 296.75 ZM26.36 285.97
								 C26.29 285.97 26.22 286.04 26.14 286.04 C25.99 286.12 25.84 286.19 25.84 286.19 C25.54 286.34 25.24
								 286.42 24.95 286.49 C24.87 286.49 24.8 286.57 24.72 286.57 C24.35 286.72 23.97 286.79 23.6 286.87
								 C23.53 286.87 23.38 286.94 23.3 286.94 C22.71 285.37 21.96 283.95 21.14 282.9 C23.08 283.57 24.87
								 284.62 26.36 285.97 ZM16.43 282.15 C18.3 282.15 20.09 284.1 21.44 287.39 C19.94 287.69 18.3 287.76
								 16.58 287.76 C14.86 287.76 13.15 287.61 11.58 287.39 C12.85 284.1 14.64 282.23 16.43 282.15 ZM11.73
								 282.97 C10.9 284.02 10.23 285.37 9.63 286.94 L9.49 286.94 C9.11 286.79 8.66 286.72 8.37 286.64 C8.29
								 286.64 8.22 286.57 8.14 286.57 C7.84 286.42 7.54 286.27 7.32 286.19 C7.17 286.12 7.1 286.12 7.02
								 286.04 C6.95 285.97 6.87 285.97 6.72 285.89 C8.29 284.7 9.93 283.57 11.73 282.97 ZM6.72 307.52 C6.8
								 307.52 6.87 307.45 6.95 307.45 C7.1 307.37 7.17 307.37 7.24 307.3 C7.54 307.15 7.84 307.08 8.14
								 307 C8.22 307 8.29 306.93 8.37 306.93 C8.74 306.78 9.11 306.7 9.49 306.63 L9.63 306.63 C10.23 308.12
								 10.98 309.55 11.73 310.59 C9.93 309.85 8.22 308.8 6.72 307.52 ZM16.51 311.34 C14.64 311.27 12.85
								 309.4 11.58 306.18 C13.15 305.88 14.86 305.8 16.58 305.8 C18.3 305.8 19.87 305.95 21.44 306.18 C20.17
								 309.4 18.3 311.34 16.51 311.34 ZM21.21 310.52 C22.03 309.47 22.78 308.05 23.38 306.48 C23.45 306.48
								 23.6 306.55 23.68 306.55 C24.05 306.7 24.5 306.78 24.8 306.85 C24.87 306.85 24.95 306.93 25.02 306.93
								 C25.32 307.08 25.62 307.15 25.92 307.23 C26.07 307.3 26.14 307.3 26.22 307.37 C26.29 307.37 26.36
								 307.45 26.51 307.52 C24.87 308.87 23.08 309.92 21.21 310.52 ZM27.86 305.95 C27.63 305.95 27.56 305.88
								 27.34 305.8 C27.11 305.73 26.89 305.58 26.66 305.5 C26.59 305.5 26.51 305.43 26.44 305.43 C25.62
								 305.13 24.8 304.9 23.9 304.61 C24.12 303.78 24.27 303.03 24.42 302.21 L22.48 302.21 C22.33 302.96
								 22.18 303.63 22.03 304.16 C20.32 303.86 18.45 303.71 16.58 303.71 C14.64 303.71 12.77 303.93 10.98
								 304.23 C10.76 303.56 10.68 302.88 10.53 302.21 L8.59 302.21 C8.74 303.03 8.89 303.86 9.11 304.68
								 C8.29 304.9 7.54 305.13 6.8 305.43 C6.72 305.5 6.57 305.5 6.5 305.58 C6.27 305.65 6.05 305.8 5.83
								 305.88 C5.68 305.88 5.53 305.95 5.38 306.03 C3.44 303.63 2.32 300.71 2.09 297.64 L3.73 297.64 L3.73
								 295.7 L2.09 295.7 C2.32 292.63 3.44 289.79 5.3 287.46 L5.38 287.39 C5.53 287.46 5.68 287.54 5.83
								 287.61 C6.12 287.76 6.27 287.84 6.57 287.91 C6.65 287.91 6.72 287.99 6.8 287.99 C7.54 288.29 8.29
								 288.51 9.19 288.74 C8.96 289.49 8.89 290.16 8.74 290.91 L10.68 290.91 C10.83 290.31 10.98 289.64
								 11.05 289.11 C12.85 289.41 14.71 289.64 16.66 289.64 C18.6 289.64 20.39 289.41 22.11 289.19 C22.26
								 289.71 22.41 290.31 22.48 290.98 L24.42 290.98 C24.27 290.23 24.12 289.56 23.97 288.81 C24.8 288.59
								 25.62 288.36 26.44 287.99 C26.51 287.99 26.66 287.91 26.74 287.91 C27.04 287.84 27.19 287.69 27.49
								 287.61 C27.63 287.54 27.78 287.46 27.93 287.39 C29.88 289.79 31 292.7 31.22 295.7 L29.28 295.7 L29.28
								 297.64 L31.22 297.64 C30.85 300.71 29.73 303.71 27.86 305.95 Z" class="st19"/>
				</g>
				<g id="shape1208-126" transform="translate(5.45221,-12.1257)">
					<title>XMLID_6_</title>
					<path d="M6.95 308.72 C6.95 309.55 6.8 310.14 6.65 310.67 C6.42 311.19 6.12 311.64 5.83 312.09 C5.45 312.39 5
								 312.69 4.41 312.91 C3.88 313.06 3.21 313.21 2.46 313.21 L0.45 313.21 C0.3 313.21 0.15 313.14 0.07
								 313.06 C-0 312.99 0 312.76 0 312.61 L0 305.13 C0 304.9 0.07 304.83 0.15 304.76 C0.22 304.68 0.37
								 304.61 0.52 304.61 L2.69 304.61 C3.51 304.61 4.11 304.68 4.63 304.9 C5.15 305.13 5.6 305.35 5.98
								 305.73 C6.35 306.1 6.65 306.55 6.8 307.08 C6.87 307.45 6.95 308.05 6.95 308.72 ZM5.15 308.8 C5.15
								 308.42 5.08 307.97 5 307.67 C4.93 307.37 4.71 307 4.56 306.78 C4.41 306.55 4.11 306.33 3.73 306.18
								 C3.44 306.03 2.99 305.95 2.39 305.95 L1.64 305.95 L1.64 311.79 L2.54 311.79 C2.99 311.79 3.36 311.72
								 3.73 311.57 C4.03 311.42 4.33 311.27 4.56 311.04 C4.78 310.74 4.93 310.52 5 310.14 C5.15 309.7 5.15
								 309.25 5.15 308.8 Z" class="st19"/>
				</g>
				<g id="shape1209-128" transform="translate(13.5932,-12.1257)">
					<title>XMLID_5_</title>
					<path d="M7.24 312.46 C7.24 312.61 7.24 312.69 7.17 312.76 C7.1 312.84 7.1 312.91 7.02 312.99 C6.95 313.06 6.87
								 313.06 6.8 313.14 C6.72 313.14 6.65 313.21 6.5 313.21 L5.75 313.21 C5.6 313.21 5.45 313.21 5.38
								 313.14 C5.23 313.14 5.15 313.06 5.08 312.91 C5 312.84 4.85 312.69 4.78 312.61 C4.71 312.46 4.56
								 312.32 4.48 312.09 L2.39 308.12 C2.24 307.82 2.09 307.67 2.02 307.3 C1.87 307 1.72 306.78 1.72 306.48
								 C1.72 306.78 1.72 307.15 1.79 307.37 L1.79 312.84 L1.72 312.99 C1.72 313.06 1.64 313.06 1.57 313.06
								 C1.49 313.06 1.42 313.14 1.27 313.14 L0.45 313.14 C0.3 313.14 0.22 313.14 0.15 313.06 C0.07 313.06
								 0.07 312.99 0 312.99 L0 305.2 C0 304.98 0.07 304.9 0.22 304.76 C0.37 304.61 0.52 304.61 0.67 304.61
								 L1.57 304.61 C1.79 304.61 1.87 304.61 1.94 304.68 C2.09 304.68 2.17 304.76 2.24 304.83 C2.32 304.9
								 2.46 304.98 2.54 305.13 C2.61 305.28 2.69 305.43 2.84 305.58 L4.48 308.65 C4.56 308.87 4.71 309.02
								 4.78 309.17 C4.85 309.4 5 309.55 5.08 309.7 C5.15 309.92 5.3 309.99 5.38 310.22 C5.45 310.44 5.53
								 310.52 5.68 310.74 L5.68 304.83 L5.75 304.68 C5.75 304.61 5.83 304.61 5.9 304.61 C5.98 304.61 6.05
								 304.53 6.2 304.53 L7.02 304.53 C7.17 304.53 7.24 304.53 7.32 304.61 C7.39 304.61 7.39 304.68 7.47
								 304.68 L7.47 312.46 L7.24 312.46 Z" class="st19"/>
				</g>
				<g id="shape1210-130" transform="translate(22.1076,-11.976)">
					<title>XMLID_4_</title>
					<path d="M5.68 310.44 C5.68 310.89 5.6 311.27 5.38 311.64 C5.15 312.02 5 312.24 4.71 312.46 C4.41 312.69 4.11
								 312.84 3.73 312.99 C3.36 313.14 2.91 313.21 2.46 313.21 C2.17 313.21 1.87 313.21 1.64 313.14 C1.42
								 313.06 1.2 312.99 0.97 312.91 C0.75 312.84 0.67 312.76 0.52 312.69 C0.37 312.61 0.3 312.54 0.22
								 312.46 C0.15 312.39 0.15 312.32 0.07 312.17 C0.07 312.02 0 311.87 0 311.72 L0 311.42 C0 311.34 -0
								 311.19 0.07 311.19 C0.07 311.12 0.15 311.12 0.15 311.04 C0.15 311.04 0.22 310.97 0.3 310.97 C0.37
								 310.97 0.45 311.04 0.6 311.12 C0.75 311.19 0.9 311.27 1.05 311.42 C1.27 311.49 1.42 311.64 1.72
								 311.72 C2.02 311.79 2.24 311.87 2.54 311.87 C2.76 311.87 2.91 311.87 3.14 311.79 C3.36 311.72 3.44
								 311.64 3.51 311.57 C3.66 311.49 3.73 311.34 3.81 311.27 C3.88 311.12 3.88 310.97 3.88 310.82 C3.88
								 310.59 3.81 310.52 3.73 310.29 L3.36 309.92 C3.14 309.77 3.06 309.7 2.76 309.62 C2.54 309.55 2.32
								 309.4 2.09 309.32 C1.87 309.17 1.64 309.1 1.42 309.02 C1.2 308.87 1.05 308.72 0.82 308.57 C0.6 308.35
								 0.52 308.2 0.45 307.9 C0.3 307.6 0.3 307.37 0.3 307 C0.3 306.63 0.37 306.18 0.52 305.95 C0.67 305.65
								 0.82 305.35 1.12 305.13 C1.42 304.9 1.64 304.83 2.02 304.68 C2.32 304.53 2.76 304.53 3.14 304.53
								 C3.36 304.53 3.51 304.53 3.73 304.61 C3.96 304.61 4.11 304.68 4.33 304.76 C4.56 304.83 4.63 304.9
								 4.78 304.98 C4.93 305.05 5 305.13 5.08 305.13 L5.15 305.28 C5.15 305.28 5.15 305.35 5.23 305.43
								 L5.23 306.4 C5.23 306.48 5.15 306.48 5.15 306.55 C5.15 306.55 5.08 306.63 5 306.63 C4.93 306.63
								 4.85 306.63 4.78 306.55 L4.41 306.33 C4.26 306.25 4.11 306.18 3.88 306.1 C3.66 306.03 3.51 306.03
								 3.21 306.03 C2.99 306.03 2.91 306.03 2.76 306.1 C2.61 306.18 2.46 306.25 2.46 306.33 C2.39 306.4
								 2.32 306.55 2.24 306.63 C2.17 306.78 2.17 306.93 2.17 306.93 C2.17 307.15 2.24 307.23 2.32 307.37
								 L2.69 307.75 C2.91 307.9 3.06 307.97 3.29 308.05 C3.51 308.12 3.73 308.27 3.96 308.35 C4.18 308.5
								 4.41 308.57 4.63 308.65 C4.85 308.8 5 308.95 5.23 309.1 C5.45 309.32 5.53 309.47 5.6 309.77 C5.6
								 309.77 5.68 310.07 5.68 310.44 Z" class="st19"/>
				</g>
			</g>
			<g id="shape1204-132">
				<text x="-11.48" y="324.01" class="st3">Azure DNS</text>			</g>
		</g>
		<g id="group1212-134" transform="translate(415.307,-149.63)">
			<title>Sheet.1212</title>
			<g id="shape1213-135" transform="translate(1.65867E-13,-4.02144)">
				<title>Sheet.1213</title>
				<path d="M11.4 282.73 C5.1 282.73 0 284.88 0 287.25 L0 308.62 C0 310.99 5.1 313.21 11.4 313.21 C17.7 313.21 22.81
							 311.09 22.81 308.72 L22.81 287.37 C22.81 284.99 17.7 282.73 11.4 282.73 Z" class="st6"/>
			</g>
			<g id="shape1214-137" transform="translate(10.3595,-1.7053E-13)">
				<title>Sheet.1214</title>
				<path d="M22.42 310.31 C22.42 308.77 21.23 307.51 19.72 307.41 C19.81 306.96 19.85 306.51 19.85 306.05 C19.85 302.15
							 16.68 298.97 12.78 298.97 C9.86 298.97 7.27 300.75 6.21 303.44 C5.79 303.33 5.38 303.28 4.96 303.28
							 C2.22 303.28 0 305.51 0 308.25 C0 310.94 2.15 313.14 4.88 313.21 L19.73 313.21 L20.27 313.21 C21.52
							 312.88 22.42 311.64 22.42 310.31 Z" class="st6"/>
			</g>
		</g>
		<g id="group1215-139" transform="translate(415.307,-149.63)">
			<title>Sheet.1215</title>
			<g id="shape1216-140" transform="translate(10.3927,-16.6061)">
				<title>Sheet.1216</title>
				<path d="M0.34 312.85 C0.44 312.97 0.56 313.07 0.7 313.12 C0.83 313.19 0.98 313.21 1.13 313.21 C1.28 313.21 1.42
							 313.19 1.55 313.12 C1.68 313.07 1.8 312.97 1.9 312.84 C2.01 312.72 2.09 312.55 2.16 312.35 C2.21 312.16
							 2.25 311.93 2.25 311.66 C2.25 311.44 2.23 311.22 2.19 311.03 C2.14 310.83 2.08 310.66 1.99 310.51 C1.9
							 310.36 1.78 310.24 1.65 310.15 C1.52 310.07 1.35 310.02 1.16 310.02 C0.96 310.02 0.78 310.07 0.63 310.15
							 C0.49 310.24 0.37 310.35 0.27 310.5 C0.17 310.65 0.11 310.81 0.06 311.01 C0.02 311.21 0 311.41 0 311.63
							 C0 311.91 0.03 312.15 0.09 312.35 C0.16 312.55 0.24 312.72 0.34 312.85 Z" class="st7"/>
			</g>
			<g id="shape1217-142" transform="translate(1.65867E-13,-4.05391)">
				<title>Sheet.1217</title>
				<path d="M15.32 306.54 C15.58 306.54 15.84 306.56 16.1 306.59 C17.37 304.04 19.93 302.37 22.81 302.25 L22.81 287.43
							 C22.81 285.06 17.7 282.79 11.4 282.79 C5.1 282.79 0 284.95 0 287.31 L0 308.69 C-0 310.83 4.19 312.85
							 9.65 313.21 C9.6 312.91 9.57 312.61 9.57 312.3 C9.57 309.12 12.15 306.54 15.32 306.54 ZM19.41 302.13
							 L15.46 302.13 L15.46 296 L17.31 296 L17.31 300.68 L19.41 300.68 L19.41 302.13 L19.41 302.13 ZM11.39
							 284.43 C15.88 284.43 19.52 285.54 19.52 286.93 C19.52 288.31 15.88 289.42 11.39 289.42 C6.91 289.42
							 3.27 288.31 3.27 286.93 C3.27 285.54 6.91 284.43 11.39 284.43 ZM7.98 300.71 C7.95 300.87 7.9 301.02
							 7.81 301.16 C7.74 301.31 7.63 301.45 7.5 301.57 C7.37 301.7 7.21 301.82 7.01 301.92 C6.82 302.02 6.58
							 302.1 6.31 302.15 C6.04 302.22 5.73 302.24 5.37 302.24 C5.18 302.24 5 302.23 4.82 302.21 C4.65 302.19
							 4.49 302.17 4.34 302.13 C4.19 302.11 4.05 302.07 3.94 302.03 C3.81 302 3.71 301.95 3.62 301.91 L3.62
							 300.24 C3.72 300.31 3.83 300.39 3.97 300.47 C4.1 300.54 4.25 300.6 4.39 300.67 C4.54 300.72 4.69 300.77
							 4.86 300.8 C5.01 300.85 5.17 300.87 5.33 300.87 C5.45 300.87 5.56 300.85 5.65 300.82 C5.73 300.8 5.79
							 300.77 5.84 300.72 C5.88 300.69 5.92 300.64 5.94 300.59 C5.96 300.54 5.97 300.49 5.97 300.44 C5.97 300.35
							 5.94 300.26 5.89 300.19 C5.85 300.13 5.78 300.06 5.7 300.01 C5.61 299.95 5.51 299.9 5.4 299.85 C5.28
							 299.8 5.14 299.75 5 299.7 C4.74 299.59 4.51 299.48 4.32 299.34 C4.14 299.2 3.98 299.06 3.86 298.91 C3.74
							 298.75 3.66 298.58 3.6 298.4 C3.55 298.23 3.52 298.05 3.52 297.85 C3.52 297.55 3.59 297.29 3.7 297.04
							 C3.82 296.8 4 296.6 4.21 296.42 C4.43 296.26 4.69 296.12 4.99 296.04 C5.3 295.95 5.63 295.9 6.01 295.9
							 C6.22 295.9 6.4 295.91 6.58 295.92 C6.75 295.94 6.91 295.96 7.04 295.98 C7.18 296 7.3 296.03 7.41 296.06
							 C7.52 296.09 7.62 296.11 7.7 296.14 L7.7 297.7 C7.61 297.65 7.52 297.6 7.4 297.55 C7.29 297.5 7.17 297.45
							 7.04 297.41 C6.91 297.37 6.78 297.34 6.63 297.31 C6.48 297.29 6.34 297.28 6.18 297.28 C5.98 297.28 5.82
							 297.31 5.69 297.39 C5.56 297.47 5.5 297.57 5.5 297.71 C5.5 297.77 5.51 297.84 5.54 297.89 C5.57 297.95
							 5.62 297.99 5.67 298.04 C5.73 298.08 5.82 298.14 5.92 298.18 C6.02 298.24 6.14 298.29 6.28 298.35 C6.54
							 298.45 6.77 298.56 6.99 298.68 C7.2 298.8 7.38 298.94 7.54 299.09 C7.69 299.24 7.81 299.41 7.89 299.6
							 C7.98 299.8 8.03 300.03 8.03 300.28 C8.03 300.42 8.01 300.57 7.98 300.71 ZM8.65 300.4 C8.51 300.03 8.43
							 299.61 8.43 299.15 C8.43 298.67 8.51 298.23 8.66 297.83 C8.82 297.43 9.03 297.09 9.31 296.81 C9.59 296.51
							 9.92 296.29 10.3 296.14 C10.69 295.98 11.12 295.9 11.57 295.9 C12.01 295.9 12.41 295.97 12.79 296.12
							 C13.15 296.27 13.48 296.48 13.74 296.75 C14.01 297.02 14.22 297.35 14.37 297.74 C14.52 298.13 14.59
							 298.57 14.59 299.05 C14.59 299.4 14.55 299.73 14.46 300.03 C14.38 300.34 14.26 300.61 14.11 300.85 C13.96
							 301.1 13.78 301.31 13.58 301.49 C13.37 301.67 13.15 301.82 12.9 301.93 L14.96 303.69 L12.62 303.69 L11.27
							 302.24 C10.88 302.22 10.51 302.12 10.17 301.98 C9.83 301.82 9.52 301.62 9.27 301.35 C9.01 301.09 8.81
							 300.78 8.65 300.4 Z" class="st7"/>
			</g>
			<g id="shape1218-144" transform="translate(10.3595,0)">
				<title>Sheet.1218</title>
				<path d="M22.42 310.31 C22.42 308.77 21.23 307.51 19.72 307.41 C19.81 306.96 19.85 306.51 19.85 306.05 C19.85 302.15
							 16.68 298.97 12.78 298.97 C9.86 298.97 7.27 300.75 6.21 303.44 C5.79 303.33 5.38 303.28 4.96 303.28
							 C2.22 303.28 0 305.51 0 308.25 C0 310.94 2.15 313.14 4.88 313.21 L19.73 313.21 L20.28 313.21 L20.25
							 313.21 C21.5 312.88 22.42 311.64 22.42 310.31 ZM19.69 312.41 L4.96 312.42 C2.66 312.42 0.79 310.55 0.79
							 308.25 C0.79 305.94 2.66 304.07 4.96 304.07 C5.42 304.07 5.87 304.15 6.32 304.3 L6.7 304.43 L6.82 304.05
							 C7.68 301.48 10.08 299.76 12.78 299.76 C16.24 299.76 19.06 302.58 19.06 306.05 C19.06 306.61 18.98 307.17
							 18.84 307.72 L18.68 308.29 L19.27 308.21 C19.35 308.2 19.44 308.2 19.52 308.2 C20.69 308.2 21.63 309.14
							 21.63 310.31 C21.63 311.4 20.78 312.32 19.69 312.41 Z" class="st7"/>
			</g>
		</g>
		<g id="shape1211-146" transform="translate(415.307,-149.63)">
			<title>Azure SQL database (opaque).1110</title>
			<desc>Database</desc>
			<text x="-6.17" y="327.42" class="st20">Database</text>		</g>
		<g id="group1220-148" transform="translate(480.005,-149.63)">
			<title>Sheet.1220</title>
			<g id="shape1221-149" transform="translate(1.65867E-13,-4.02144)">
				<title>Sheet.1221</title>
				<path d="M11.4 282.73 C5.1 282.73 0 284.88 0 287.25 L0 308.62 C0 310.99 5.1 313.21 11.4 313.21 C17.7 313.21 22.81
							 311.09 22.81 308.72 L22.81 287.37 C22.81 284.99 17.7 282.73 11.4 282.73 Z" class="st6"/>
			</g>
			<g id="shape1222-151" transform="translate(10.3595,-1.7053E-13)">
				<title>Sheet.1222</title>
				<path d="M22.42 310.31 C22.42 308.77 21.23 307.51 19.72 307.41 C19.81 306.96 19.85 306.51 19.85 306.05 C19.85 302.15
							 16.68 298.97 12.78 298.97 C9.86 298.97 7.27 300.75 6.21 303.44 C5.79 303.33 5.38 303.28 4.96 303.28
							 C2.22 303.28 0 305.51 0 308.25 C0 310.94 2.15 313.14 4.88 313.21 L19.73 313.21 L20.27 313.21 C21.52
							 312.88 22.42 311.64 22.42 310.31 Z" class="st6"/>
			</g>
		</g>
		<g id="group1223-153" transform="translate(480.005,-149.63)">
			<title>Sheet.1223</title>
			<g id="shape1224-154" transform="translate(10.3927,-16.6061)">
				<title>Sheet.1224</title>
				<path d="M0.34 312.85 C0.44 312.97 0.56 313.07 0.7 313.12 C0.83 313.19 0.98 313.21 1.13 313.21 C1.28 313.21 1.42
							 313.19 1.55 313.12 C1.68 313.07 1.8 312.97 1.9 312.84 C2.01 312.72 2.09 312.55 2.16 312.35 C2.21 312.16
							 2.25 311.93 2.25 311.66 C2.25 311.44 2.23 311.22 2.19 311.03 C2.14 310.83 2.08 310.66 1.99 310.51 C1.9
							 310.36 1.78 310.24 1.65 310.15 C1.52 310.07 1.35 310.02 1.16 310.02 C0.96 310.02 0.78 310.07 0.63 310.15
							 C0.49 310.24 0.37 310.35 0.27 310.5 C0.17 310.65 0.11 310.81 0.06 311.01 C0.02 311.21 0 311.41 0 311.63
							 C0 311.91 0.03 312.15 0.09 312.35 C0.16 312.55 0.24 312.72 0.34 312.85 Z" class="st7"/>
			</g>
			<g id="shape1225-156" transform="translate(1.65867E-13,-4.05391)">
				<title>Sheet.1225</title>
				<path d="M15.32 306.54 C15.58 306.54 15.84 306.56 16.1 306.59 C17.37 304.04 19.93 302.37 22.81 302.25 L22.81 287.43
							 C22.81 285.06 17.7 282.79 11.4 282.79 C5.1 282.79 0 284.95 0 287.31 L0 308.69 C-0 310.83 4.19 312.85
							 9.65 313.21 C9.6 312.91 9.57 312.61 9.57 312.3 C9.57 309.12 12.15 306.54 15.32 306.54 ZM19.41 302.13
							 L15.46 302.13 L15.46 296 L17.31 296 L17.31 300.68 L19.41 300.68 L19.41 302.13 L19.41 302.13 ZM11.39
							 284.43 C15.88 284.43 19.52 285.54 19.52 286.93 C19.52 288.31 15.88 289.42 11.39 289.42 C6.91 289.42
							 3.27 288.31 3.27 286.93 C3.27 285.54 6.91 284.43 11.39 284.43 ZM7.98 300.71 C7.95 300.87 7.9 301.02
							 7.81 301.16 C7.74 301.31 7.63 301.45 7.5 301.57 C7.37 301.7 7.21 301.82 7.01 301.92 C6.82 302.02 6.58
							 302.1 6.31 302.15 C6.04 302.22 5.73 302.24 5.37 302.24 C5.18 302.24 5 302.23 4.82 302.21 C4.65 302.19
							 4.49 302.17 4.34 302.13 C4.19 302.11 4.05 302.07 3.94 302.03 C3.81 302 3.71 301.95 3.62 301.91 L3.62
							 300.24 C3.72 300.31 3.83 300.39 3.97 300.47 C4.1 300.54 4.25 300.6 4.39 300.67 C4.54 300.72 4.69 300.77
							 4.86 300.8 C5.01 300.85 5.17 300.87 5.33 300.87 C5.45 300.87 5.56 300.85 5.65 300.82 C5.73 300.8 5.79
							 300.77 5.84 300.72 C5.88 300.69 5.92 300.64 5.94 300.59 C5.96 300.54 5.97 300.49 5.97 300.44 C5.97 300.35
							 5.94 300.26 5.89 300.19 C5.85 300.13 5.78 300.06 5.7 300.01 C5.61 299.95 5.51 299.9 5.4 299.85 C5.28
							 299.8 5.14 299.75 5 299.7 C4.74 299.59 4.51 299.48 4.32 299.34 C4.14 299.2 3.98 299.06 3.86 298.91 C3.74
							 298.75 3.66 298.58 3.6 298.4 C3.55 298.23 3.52 298.05 3.52 297.85 C3.52 297.55 3.59 297.29 3.7 297.04
							 C3.82 296.8 4 296.6 4.21 296.42 C4.43 296.26 4.69 296.12 4.99 296.04 C5.3 295.95 5.63 295.9 6.01 295.9
							 C6.22 295.9 6.4 295.91 6.58 295.92 C6.75 295.94 6.91 295.96 7.04 295.98 C7.18 296 7.3 296.03 7.41 296.06
							 C7.52 296.09 7.62 296.11 7.7 296.14 L7.7 297.7 C7.61 297.65 7.52 297.6 7.4 297.55 C7.29 297.5 7.17 297.45
							 7.04 297.41 C6.91 297.37 6.78 297.34 6.63 297.31 C6.48 297.29 6.34 297.28 6.18 297.28 C5.98 297.28 5.82
							 297.31 5.69 297.39 C5.56 297.47 5.5 297.57 5.5 297.71 C5.5 297.77 5.51 297.84 5.54 297.89 C5.57 297.95
							 5.62 297.99 5.67 298.04 C5.73 298.08 5.82 298.14 5.92 298.18 C6.02 298.24 6.14 298.29 6.28 298.35 C6.54
							 298.45 6.77 298.56 6.99 298.68 C7.2 298.8 7.38 298.94 7.54 299.09 C7.69 299.24 7.81 299.41 7.89 299.6
							 C7.98 299.8 8.03 300.03 8.03 300.28 C8.03 300.42 8.01 300.57 7.98 300.71 ZM8.65 300.4 C8.51 300.03 8.43
							 299.61 8.43 299.15 C8.43 298.67 8.51 298.23 8.66 297.83 C8.82 297.43 9.03 297.09 9.31 296.81 C9.59 296.51
							 9.92 296.29 10.3 296.14 C10.69 295.98 11.12 295.9 11.57 295.9 C12.01 295.9 12.41 295.97 12.79 296.12
							 C13.15 296.27 13.48 296.48 13.74 296.75 C14.01 297.02 14.22 297.35 14.37 297.74 C14.52 298.13 14.59
							 298.57 14.59 299.05 C14.59 299.4 14.55 299.73 14.46 300.03 C14.38 300.34 14.26 300.61 14.11 300.85 C13.96
							 301.1 13.78 301.31 13.58 301.49 C13.37 301.67 13.15 301.82 12.9 301.93 L14.96 303.69 L12.62 303.69 L11.27
							 302.24 C10.88 302.22 10.51 302.12 10.17 301.98 C9.83 301.82 9.52 301.62 9.27 301.35 C9.01 301.09 8.81
							 300.78 8.65 300.4 Z" class="st7"/>
			</g>
			<g id="shape1226-158" transform="translate(10.3595,0)">
				<title>Sheet.1226</title>
				<path d="M22.42 310.31 C22.42 308.77 21.23 307.51 19.72 307.41 C19.81 306.96 19.85 306.51 19.85 306.05 C19.85 302.15
							 16.68 298.97 12.78 298.97 C9.86 298.97 7.27 300.75 6.21 303.44 C5.79 303.33 5.38 303.28 4.96 303.28
							 C2.22 303.28 0 305.51 0 308.25 C0 310.94 2.15 313.14 4.88 313.21 L19.73 313.21 L20.28 313.21 L20.25
							 313.21 C21.5 312.88 22.42 311.64 22.42 310.31 ZM19.69 312.41 L4.96 312.42 C2.66 312.42 0.79 310.55 0.79
							 308.25 C0.79 305.94 2.66 304.07 4.96 304.07 C5.42 304.07 5.87 304.15 6.32 304.3 L6.7 304.43 L6.82 304.05
							 C7.68 301.48 10.08 299.76 12.78 299.76 C16.24 299.76 19.06 302.58 19.06 306.05 C19.06 306.61 18.98 307.17
							 18.84 307.72 L18.68 308.29 L19.27 308.21 C19.35 308.2 19.44 308.2 19.52 308.2 C20.69 308.2 21.63 309.14
							 21.63 310.31 C21.63 311.4 20.78 312.32 19.69 312.41 Z" class="st7"/>
			</g>
		</g>
		<g id="shape1219-160" transform="translate(480.005,-149.63)">
			<title>Azure SQL database (opaque).1134</title>
			<desc>Database</desc>
			<text x="-6.17" y="327.42" class="st20">Database</text>		</g>
		<g id="group1228-162" transform="translate(543.421,-24.5135)">
			<title>Sheet.1228</title>
			<g id="shape1229-163" transform="translate(5.75927,-13.6048)">
				<title>Sheet.1229</title>
				<path d="M9.37 313.21 C9.19 313.21 9.08 313.15 8.96 313.09 L0.41 307.95 C0.17 307.77 0 307.53 0 307.17 C0 306.86
							 0.17 306.56 0.41 306.38 L8.9 301.3 C9.19 301.12 9.48 301.12 9.72 301.3 L18.27 306.44 C18.5 306.62 18.67
							 306.86 18.67 307.17 C18.67 307.47 18.5 307.77 18.27 307.89 L9.77 312.97 C9.66 313.15 9.48 313.21 9.37
							 313.21 Z" class="st21"/>
			</g>
			<g id="shape1230-165" transform="translate(4.53761,-1.14885)">
				<title>Sheet.1230</title>
				<path d="M9.37 313.21 C9.19 313.21 9.08 313.15 8.96 313.09 L0.41 307.95 C0.17 307.83 0 307.53 0 307.17 L0 296.89
							 C-0 296.59 0.17 296.28 0.41 296.1 C0.64 295.92 0.99 295.92 1.22 296.1 L9.77 301.24 C10.01 301.42 10.18
							 301.66 10.18 302.03 L10.18 312.31 C10.18 312.61 10.01 312.91 9.77 313.03 C9.6 313.21 9.48 313.21 9.37
							 313.21 Z" class="st21"/>
			</g>
			<g id="shape1231-167" transform="translate(15.4744,-1.14885)">
				<title>Sheet.1231</title>
				<path d="M0.81 313.21 C0.7 313.21 0.52 313.15 0.41 313.09 C0.12 312.91 0 312.67 0 312.31 L0 302.09 C0 301.79 0.17
							 301.48 0.41 301.36 L8.96 296.22 C9.25 296.04 9.54 296.04 9.77 296.22 C10.06 296.4 10.18 296.71 10.18
							 297.01 L10.18 307.23 C10.18 307.53 10.01 307.83 9.77 307.95 L1.22 313.09 C1.16 313.15 0.99 313.21 0.81
							 313.21 Z" class="st21"/>
			</g>
			<g id="shape1232-169">
				<title>Sheet.1232</title>
				<path d="M6.11 313.21 C5.88 313.21 5.58 313.15 5.41 313.03 L1.45 310.61 C0.58 310.13 0 309.04 0 308.01 L0 292.78
							 C0 291.75 0.58 290.66 1.45 290.18 L5.41 287.76 C6.11 287.33 6.98 287.58 7.39 288.3 C7.8 289.03 7.56
							 289.93 6.86 290.36 L2.91 292.78 C2.91 292.78 2.91 292.84 2.91 292.84 L2.91 308.01 C2.91 308.01 2.97
							 308.07 2.97 308.07 L6.92 310.43 C7.62 310.86 7.85 311.76 7.45 312.49 C7.1 312.91 6.63 313.21 6.11 313.21
							 Z" class="st21"/>
			</g>
			<g id="shape1233-171" transform="translate(22.3972,0)">
				<title>Sheet.1233</title>
				<path d="M1.69 313.21 C1.16 313.21 0.7 312.97 0.47 312.49 C0.06 311.76 0.29 310.86 0.99 310.43 L4.94 308.01 C4.94
							 308.01 4.94 307.95 4.94 307.95 L4.94 292.78 C4.94 292.78 4.89 292.72 4.89 292.72 L0.93 290.36 C0.23
							 289.93 0 289.03 0.41 288.3 C0.76 287.64 1.69 287.33 2.39 287.76 L6.34 290.18 C7.21 290.66 7.8 291.75
							 7.8 292.78 L7.8 308.01 C7.8 309.04 7.21 310.13 6.34 310.61 L2.39 313.03 C2.15 313.15 1.92 313.21 1.69
							 313.21 Z" class="st21"/>
			</g>
		</g>
		<g id="group1234-173" transform="translate(544.002,-24.9368)">
			<title>Sheet.1234</title>
			<g id="shape1235-174" transform="translate(5.75927,-13.7862)">
				<title>Sheet.1235</title>
				<path d="M8.78 313.21 C8.73 313.21 8.73 313.21 8.67 313.15 L0.12 308.01 C0.06 307.95 0 307.89 0 307.77 C0 307.65
							 0.06 307.59 0.12 307.53 L8.61 302.45 C8.67 302.39 8.78 302.39 8.84 302.45 L17.39 307.59 C17.45 307.65
							 17.51 307.71 17.51 307.83 C17.51 307.95 17.45 308.01 17.39 308.07 L8.9 313.15 C8.84 313.21 8.84 313.21
							 8.78 313.21 Z" class="st22"/>
			</g>
			<g id="shape1236-176" transform="translate(4.53761,-1.33025)">
				<title>Sheet.1236</title>
				<path d="M8.78 313.21 C8.73 313.21 8.67 313.21 8.67 313.15 L0.12 308.01 C0.06 307.95 0 307.89 0 307.77 L0 297.49
							 C0 297.37 0.06 297.31 0.12 297.25 C0.17 297.19 0.29 297.19 0.35 297.25 L8.9 302.39 C8.96 302.45 9.02
							 302.51 9.02 302.63 L9.02 312.91 C9.02 313.03 8.96 313.09 8.9 313.15 C8.84 313.21 8.78 313.21 8.78 313.21
							 Z" class="st22"/>
			</g>
			<g id="shape1237-178" transform="translate(15.4744,-1.33025)">
				<title>Sheet.1237</title>
				<path d="M0.23 313.21 C0.17 313.21 0.12 313.21 0.12 313.15 C0.06 313.09 0 313.03 0 312.91 L0 302.69 C-0 302.57 0.06
							 302.51 0.12 302.45 L8.67 297.31 C8.73 297.25 8.84 297.25 8.9 297.31 C8.96 297.37 9.02 297.43 9.02 297.55
							 L9.02 307.77 C9.02 307.89 8.96 307.95 8.9 308.01 L0.35 313.15 C0.35 313.21 0.29 313.21 0.23 313.21 Z"
						class="st22"/>
			</g>
			<g id="shape1238-180" transform="translate(1.45384E-13,-0.181397)">
				<title>Sheet.1238</title>
				<path d="M5.53 313.21 C5.41 313.21 5.24 313.15 5.12 313.09 L1.16 310.67 C0.47 310.25 0 309.4 0 308.62 L0 293.38 C0
							 292.59 0.47 291.69 1.16 291.32 L5.12 288.91 C5.53 288.66 6.05 288.79 6.28 289.21 C6.52 289.63 6.4 290.18
							 5.99 290.42 L2.04 292.84 C1.92 292.9 1.75 293.2 1.75 293.38 L1.75 308.62 C1.75 308.8 1.92 309.1 2.04
							 309.16 L5.99 311.58 C6.4 311.82 6.52 312.37 6.28 312.79 C6.11 313.03 5.82 313.21 5.53 313.21 Z"
						class="st22"/>
			</g>
			<g id="shape1239-182" transform="translate(22.5135,0)">
				<title>Sheet.1239</title>
				<path d="M0.99 288.66 C1.11 288.66 1.28 288.72 1.4 288.79 L5.35 291.2 C6.05 291.63 6.52 292.47 6.52 293.26 L6.52
							 308.5 C6.52 309.28 6.05 310.19 5.35 310.55 L1.4 312.97 C0.99 313.21 0.47 313.09 0.23 312.67 C0 312.25
							 0.12 311.7 0.52 311.46 L4.48 309.04 C4.6 308.98 4.77 308.68 4.77 308.5 L4.77 293.26 C4.77 293.08 4.6
							 292.78 4.48 292.72 L0.52 290.3 C0.12 290.05 0 289.51 0.23 289.09 C0.41 288.79 0.7 288.66 0.99 288.66
							 Z" class="st22"/>
			</g>
		</g>
		<g id="shape1227-184" transform="translate(543.421,-24.5135)">
			<title>Resource group (opaque).1147</title>
			<desc>Resource group</desc>
			<text x="-91.64" y="292.61" class="st3">Resource group</text>		</g>
		<g id="group1248-186" transform="translate(278.322,-226.574)">
			<title>Sheet.1248</title>
			<g id="shape1249-187" transform="translate(2.22119,-19.5147)">
				<title>Sheet.1249</title>
			</g>
			<g id="shape1250-188">
				<title>Sheet.1250</title>
				<path d="M32.52 296 L32.52 280.69 L17.13 280.69 L15.31 280.69 L0 280.69 L0 296 L0 297.9 L0 313.21 L15.39 313.21 L17.21
							 313.21 L32.6 313.21 L32.6 297.9 L32.6 296 L32.52 296 Z" class="st6"/>
			</g>
		</g>
		<g id="group1251-190" transform="translate(278.242,-226.653)">
			<title>Sheet.1251</title>
			<g id="shape1252-191">
				<title>Sheet.1252</title>
				<path d="M13.17 310.99 L2.3 310.99 L2.3 300.2 L4.44 300.2 C4.2 299.57 4.05 298.85 4.05 298.06 C4.05 298.06 4.05 297.98
							 4.05 297.9 L0 297.9 L0 313.21 L15.39 313.21 L15.39 304.17 L13.17 304.17 L13.17 310.99 Z" class="st23"/>
			</g>
			<g id="shape1253-193" transform="translate(17.2936,0)">
				<title>Sheet.1253</title>
				<path d="M11.11 300.2 L13.09 300.2 L13.09 310.99 L2.22 310.99 L2.22 304.17 L0 304.17 L0 313.21 L15.39 313.21 L15.39
							 297.98 L10.55 297.98 C10.95 298.62 11.11 299.33 11.11 300.12 C11.11 300.12 11.11 300.12 11.11 300.2
							 Z" class="st23"/>
			</g>
			<g id="shape1254-195" transform="translate(0.0793282,-17.1349)">
				<title>Sheet.1254</title>
				<path d="M2.22 310.91 L2.22 300.12 L13.09 300.12 L13.09 306.39 C13.8 305.92 14.52 305.52 15.31 305.28 L15.31 297.9
							 L0 297.9 L0 313.21 L4.44 313.21 C4.76 312.34 5.24 311.55 5.87 310.99 L2.22 310.91 Z" class="st23"/>
			</g>
			<g id="shape1255-197" transform="translate(17.2142,-17.2142)">
				<title>Sheet.1255</title>
				<path d="M2.3 305.2 L2.3 300.2 L13.17 300.2 L13.17 310.99 L8.49 310.99 C8.65 311.71 8.81 312.42 8.81 313.13 C8.81
							 313.13 8.81 313.21 8.81 313.21 L15.47 313.21 L15.47 297.98 L0 297.98 L0 305.04 C0.16 305.04 0.4 305.04
							 0.56 305.04 C1.11 305.04 1.75 305.04 2.3 305.2 Z" class="st23"/>
			</g>
		</g>
		<g id="shape1256-199" transform="translate(284.113,-237.362)">
			<title>Sheet.1256</title>
			<path d="M20.78 310.83 C20.78 309.48 19.67 308.37 18.4 308.37 C18.32 308.37 18.25 308.37 18.09 308.37 C18.25 307.82 18.32
						 307.26 18.32 306.63 C18.32 303.06 15.47 300.12 11.9 300.12 C9.04 300.12 6.66 301.95 5.79 304.57 C5.31 304.41
						 4.84 304.33 4.36 304.33 C1.9 304.33 0 306.31 0 308.77 C0 311.23 1.98 313.21 4.36 313.21 L18.64 313.21 C19.83
						 313.13 20.78 312.1 20.78 310.83 Z" class="st23"/>
		</g>
		<g id="shape1258-201" transform="translate(274.874,-57.3943)">
			<title>Sheet.1258</title>
			<path d="M21.69 288.17 L7.23 288.17 L0 300.69 L7.23 313.21 L21.69 313.21 L28.92 300.69 L21.69 288.17 ZM21.73 306.28 C21.73
						 307.37 20.85 308.24 19.77 308.24 L9.15 308.24 C8.07 308.24 7.19 307.37 7.19 306.28 L7.19 295.09 C7.19 294.02
						 8.07 293.14 9.15 293.14 L17.03 293.14 C17.81 293.14 18.49 293.14 18.49 293.14 L18.71 293.14 L21.73 296.12
						 L21.73 297.71 L21.73 306.28 Z" class="st7"/>
		</g>
		<g id="shape1259-203" transform="translate(286.975,-65.4793)">
			<title>Sheet.1259</title>
			<path d="M1.23 310.78 C1.21 310.67 1.18 310.57 1.15 310.5 C1.11 310.42 1.07 310.35 1.02 310.31 C0.98 310.26 0.92 310.23
						 0.86 310.21 C0.8 310.19 0.73 310.18 0.66 310.18 C0.53 310.18 0.42 310.21 0.33 310.27 C0.25 310.33 0.18 310.43
						 0.13 310.55 C0.08 310.68 0.05 310.83 0.03 311.02 C0.01 311.21 0 311.42 0 311.67 C0 311.97 0.01 312.22 0.04
						 312.42 C0.06 312.62 0.1 312.78 0.15 312.9 C0.2 313.01 0.27 313.1 0.35 313.14 C0.43 313.19 0.53 313.21 0.64
						 313.21 C0.73 313.21 0.8 313.2 0.87 313.17 C0.93 313.15 0.99 313.1 1.04 313.05 C1.09 312.99 1.13 312.93 1.16
						 312.84 C1.2 312.76 1.22 312.66 1.24 312.55 C1.26 312.44 1.28 312.32 1.29 312.18 C1.29 312.04 1.3 311.89
						 1.3 311.72 C1.3 311.52 1.29 311.34 1.28 311.19 C1.27 311.03 1.26 310.9 1.23 310.78 Z" class="st7"/>
		</g>
		<g id="shape1260-205" transform="translate(290.39,-71.318)">
			<title>Sheet.1260</title>
			<path d="M1.23 310.78 C1.21 310.67 1.18 310.57 1.15 310.5 C1.11 310.42 1.07 310.35 1.02 310.31 C0.98 310.26 0.92 310.23
						 0.86 310.21 C0.8 310.19 0.73 310.18 0.65 310.18 C0.53 310.18 0.42 310.21 0.33 310.27 C0.25 310.33 0.18 310.43
						 0.13 310.55 C0.08 310.68 0.05 310.83 0.03 311.02 C0.01 311.21 0 311.42 0 311.67 C0 311.97 0.01 312.22 0.04
						 312.42 C0.06 312.62 0.1 312.78 0.15 312.9 C0.2 313.01 0.27 313.1 0.35 313.14 C0.43 313.19 0.53 313.21 0.64
						 313.21 C0.73 313.21 0.8 313.2 0.87 313.17 C0.93 313.15 0.99 313.1 1.04 313.05 C1.09 312.99 1.13 312.93 1.16
						 312.84 C1.2 312.76 1.22 312.66 1.24 312.55 C1.26 312.44 1.28 312.32 1.29 312.18 C1.29 312.04 1.3 311.89
						 1.3 311.72 C1.3 311.52 1.29 311.34 1.28 311.19 C1.27 311.03 1.25 310.9 1.23 310.78 Z" class="st7"/>
		</g>
		<g id="shape1261-207" transform="translate(283.134,-63.4355)">
			<title>Sheet.1261</title>
			<path d="M9.98 300.26 C9.71 300.25 9.26 300.25 8.76 300.25 L0.88 300.25 C0.39 300.25 0 300.66 0 301.13 L0 312.33 C0 312.82
						 0.39 313.21 0.88 313.21 L11.51 313.21 C11.99 313.21 12.4 312.82 12.4 312.33 L12.4 302.71 L9.98 302.71 L9.98
						 300.26 L9.98 300.26 ZM3.27 302.49 C3.27 302.45 3.28 302.42 3.29 302.4 C3.3 302.38 3.31 302.35 3.32 302.34
						 C3.34 302.32 3.36 302.31 3.39 302.29 L4.3 301.7 C4.31 301.69 4.33 301.68 4.34 301.68 C4.36 301.67 4.38 301.67
						 4.41 301.66 C4.43 301.66 4.47 301.66 4.51 301.66 C4.55 301.66 4.61 301.66 4.68 301.66 C4.76 301.66 4.83
						 301.66 4.88 301.66 C4.93 301.66 4.97 301.67 5 301.68 C5.02 301.68 5.04 301.69 5.05 301.71 C5.06 301.72 5.06
						 301.74 5.06 301.76 L5.06 305.27 L5.76 305.27 C5.78 305.27 5.79 305.28 5.81 305.29 C5.83 305.3 5.84 305.32
						 5.85 305.35 C5.87 305.38 5.87 305.41 5.88 305.45 C5.88 305.5 5.89 305.55 5.89 305.61 C5.89 305.68 5.88 305.73
						 5.88 305.77 C5.87 305.81 5.86 305.85 5.85 305.87 C5.84 305.9 5.82 305.92 5.81 305.93 C5.79 305.94 5.78 305.94
						 5.76 305.94 L3.41 305.94 C3.39 305.94 3.37 305.94 3.36 305.93 C3.34 305.91 3.33 305.9 3.32 305.87 C3.3 305.85
						 3.29 305.81 3.29 305.77 C3.28 305.73 3.28 305.68 3.28 305.61 C3.28 305.55 3.28 305.5 3.29 305.45 C3.29 305.41
						 3.3 305.38 3.31 305.35 C3.33 305.32 3.34 305.3 3.35 305.29 C3.37 305.28 3.39 305.27 3.41 305.27 L4.2 305.27
						 L4.2 302.5 L3.52 302.88 C3.47 302.91 3.42 302.92 3.39 302.93 C3.36 302.93 3.34 302.93 3.32 302.91 C3.3 302.89
						 3.29 302.86 3.28 302.81 C3.27 302.77 3.27 302.7 3.27 302.62 C3.27 302.56 3.27 302.52 3.27 302.49 ZM5.93
						 310.56 C5.88 310.83 5.79 311.07 5.66 311.26 C5.54 311.45 5.38 311.6 5.18 311.7 C4.98 311.81 4.74 311.86
						 4.45 311.86 C4.16 311.86 3.92 311.81 3.73 311.71 C3.54 311.61 3.38 311.46 3.27 311.28 C3.16 311.09 3.08
						 310.86 3.04 310.59 C2.99 310.32 2.97 310.01 2.97 309.67 C2.97 309.33 3 309.02 3.05 308.75 C3.11 308.47 3.2
						 308.24 3.32 308.05 C3.45 307.85 3.61 307.71 3.81 307.6 C4.01 307.5 4.25 307.45 4.53 307.45 C4.82 307.45
						 5.07 307.5 5.26 307.6 C5.45 307.7 5.6 307.84 5.71 308.03 C5.83 308.22 5.9 308.45 5.95 308.72 C5.99 308.99
						 6.01 309.29 6.01 309.64 C6.01 309.98 5.99 310.28 5.93 310.56 ZM9.29 311.61 C9.29 311.65 9.28 311.68 9.26
						 311.71 C9.25 311.74 9.24 311.75 9.22 311.76 C9.21 311.78 9.19 311.78 9.17 311.78 L6.82 311.78 C6.8 311.78
						 6.79 311.78 6.77 311.76 C6.76 311.75 6.74 311.74 6.73 311.71 C6.72 311.68 6.71 311.65 6.7 311.61 C6.7 311.57
						 6.69 311.51 6.69 311.45 C6.69 311.39 6.7 311.34 6.7 311.29 C6.71 311.25 6.72 311.22 6.73 311.19 C6.74 311.16
						 6.75 311.14 6.77 311.13 C6.78 311.12 6.8 311.11 6.82 311.11 L7.61 311.11 L7.61 308.34 L6.93 308.72 C6.88
						 308.75 6.84 308.76 6.81 308.77 C6.78 308.77 6.75 308.77 6.73 308.75 C6.71 308.73 6.7 308.7 6.69 308.65 C6.69
						 308.6 6.68 308.54 6.68 308.46 C6.68 308.4 6.69 308.36 6.69 308.33 C6.69 308.29 6.7 308.26 6.7 308.24 C6.71
						 308.21 6.73 308.19 6.74 308.18 C6.76 308.16 6.78 308.15 6.8 308.13 L7.72 307.54 C7.73 307.53 7.74 307.52
						 7.76 307.52 C7.77 307.51 7.8 307.51 7.82 307.5 C7.85 307.5 7.88 307.5 7.93 307.5 C7.97 307.5 8.02 307.49
						 8.09 307.49 C8.18 307.49 8.24 307.5 8.3 307.5 C8.35 307.5 8.39 307.51 8.41 307.52 C8.44 307.52 8.46 307.53
						 8.46 307.55 C8.47 307.56 8.48 307.58 8.48 307.6 L8.48 311.11 L9.17 311.11 C9.19 311.11 9.21 311.12 9.23
						 311.13 C9.24 311.14 9.26 311.16 9.27 311.19 C9.28 311.22 9.29 311.25 9.3 311.29 C9.3 311.34 9.3 311.39 9.3
						 311.45 C9.3 311.51 9.3 311.57 9.29 311.61 ZM9.35 304.72 C9.29 304.99 9.2 305.23 9.08 305.42 C8.95 305.61
						 8.79 305.76 8.59 305.86 C8.39 305.97 8.15 306.02 7.87 306.02 C7.57 306.02 7.33 305.97 7.14 305.87 C6.95
						 305.77 6.8 305.62 6.69 305.44 C6.58 305.25 6.5 305.02 6.45 304.75 C6.41 304.48 6.38 304.17 6.38 303.83 C6.38
						 303.49 6.41 303.18 6.47 302.91 C6.52 302.63 6.61 302.4 6.74 302.21 C6.86 302.01 7.02 301.87 7.22 301.76
						 C7.42 301.66 7.66 301.61 7.95 301.61 C8.24 301.61 8.48 301.66 8.67 301.76 C8.87 301.86 9.02 302 9.13 302.19
						 C9.24 302.38 9.32 302.61 9.36 302.88 C9.41 303.15 9.43 303.46 9.43 303.8 C9.43 304.14 9.4 304.44 9.35 304.72
						 Z" class="st7"/>
		</g>
		<g id="shape1257-209" transform="translate(274.874,-57.3943)">
			<title>Storage blob.1257</title>
			<desc>Storage blob</desc>
			<text x="-11.2" y="323.56" class="st24">Storage blob</text>		</g>
	</g>
</svg>
