<?xml version="1.0" encoding="UTF-8" standalone="no"?>
<!DOCTYPE svg PUBLIC "-//W3C//DTD SVG 1.1//EN" "http://www.w3.org/Graphics/SVG/1.1/DTD/svg11.dtd">
<!-- Generated by Microsoft Visio, SVG Export scalable-web-app.svg Modern web app -->
<svg xmlns="http://www.w3.org/2000/svg" xmlns:xlink="http://www.w3.org/1999/xlink" xmlns:ev="http://www.w3.org/2001/xml-events"
		viewBox="0 0 792 612" xml:space="preserve" color-interpolation-filters="sRGB" class="st33">
	<style type="text/css">
	<![CDATA[
		.st1 {marker-end:url(#mrkr4-6);stroke:#7f7f7f;stroke-dasharray:3,3;stroke-linecap:round;stroke-linejoin:round;stroke-width:1}
		.st2 {fill:#7f7f7f;fill-opacity:1;stroke:#7f7f7f;stroke-opacity:1;stroke-width:0.28409090909091}
		.st3 {marker-end:url(#mrkr4-12);stroke:#0078d7;stroke-linecap:round;stroke-linejoin:round;stroke-width:0.75}
		.st4 {fill:#0078d7;fill-opacity:1;stroke:#0078d7;stroke-opacity:1;stroke-width:0.22935779816514}
		.st5 {fill:#f2f2f2;stroke:none;stroke-linecap:round;stroke-linejoin:round;stroke-width:0.75}
		.st6 {fill:#000000;font-family:Segoe UI;font-size:1.00001em}
		.st7 {fill:none;stroke:#0078d7;stroke-dasharray:5.25,3.75;stroke-linecap:round;stroke-linejoin:round;stroke-width:0.75}
		.st8 {fill:#0078d7;stroke:none;stroke-linecap:butt;stroke-width:0.75}
		.st9 {fill:#0078d7;font-family:Segoe UI;font-size:1.00001em}
		.st10 {font-size:1em}
		.st11 {fill:#ffffff;stroke:#595959;stroke-linecap:round;stroke-linejoin:round;stroke-width:0.75}
		.st12 {fill:#ffffff;stroke:#ffffff;stroke-linecap:butt;stroke-width:1.5}
		.st13 {fill:#ffffff;stroke:#ffffff;stroke-linecap:butt;stroke-width:1.275}
		.st14 {fill:#0078d7;stroke:none;stroke-linecap:butt;stroke-width:0.6375}
		.st15 {fill:#595959;stroke:none;stroke-linecap:butt;stroke-width:0.75}
		.st16 {fill:#ffffff;stroke:none;stroke-linecap:round;stroke-linejoin:round;stroke-width:0.75}
		.st17 {fill:#0078d7;font-family:Cambria;font-size:1.00001em}
		.st18 {marker-end:url(#mrkr4-217);stroke:#7f7f7f;stroke-dasharray:2.25,2.25;stroke-linecap:round;stroke-linejoin:round;stroke-width:0.75}
		.st19 {fill:#7f7f7f;fill-opacity:1;stroke:#7f7f7f;stroke-opacity:1;stroke-width:0.22935779816514}
		.st20 {marker-end:url(#mrkr4-223);stroke:#7f7f7f;stroke-dasharray:2.25,2.25;stroke-linecap:round;stroke-linejoin:round;stroke-width:0.75}
		.st21 {fill:#006fd4;stroke:none;stroke-linecap:butt;stroke-width:0.597656}
		.st22 {fill:#006fd4}
		.st23 {stroke:none;stroke-linecap:butt;stroke-width:0.597656}
		.st24 {stroke:#0078d7;stroke-linecap:round;stroke-linejoin:round;stroke-width:0.24}
		.st25 {fill:#ffffff;stroke:none;stroke-linecap:butt}
		.st26 {fill:#7f7f7f;font-family:Segoe UI;font-size:0.916672em;font-style:italic}
		.st27 {fill:#ffffff;stroke:#3f3f3f;stroke-linecap:butt;stroke-width:0.75}
		.st28 {fill:#3f3f3f;font-family:Segoe UI;font-size:0.833336em}
		.st29 {fill:#ffffff;stroke:none;stroke-linecap:butt;stroke-width:0.772727}
		.st30 {fill:#0078d7;stroke:none;stroke-linecap:butt;stroke-width:0.772727}
		.st31 {fill:#ffffff;stroke:none;stroke-linecap:butt;stroke-width:0.653846}
		.st32 {fill:#0078d7;stroke:none;stroke-linecap:butt;stroke-width:0.653846}
		.st33 {fill:none;fill-rule:evenodd;font-size:12px;overflow:visible;stroke-linecap:square;stroke-miterlimit:3}
	]]>
	</style>

	<defs id="Markers">
		<g id="lend4">
			<path d="M 2 1 L 0 0 L 2 -1 L 2 1 " style="stroke:none"/>
		</g>
		<marker id="mrkr4-6" class="st2" refX="-7.04" orient="auto" markerUnits="strokeWidth" overflow="visible">
			<use xlink:href="#lend4" transform="scale(-3.52,-3.52) "/>
		</marker>
		<marker id="mrkr4-12" class="st4" refX="-8.72" orient="auto" markerUnits="strokeWidth" overflow="visible">
			<use xlink:href="#lend4" transform="scale(-4.36,-4.36) "/>
		</marker>
		<marker id="mrkr4-217" class="st19" refX="-8.24" orient="auto" markerUnits="strokeWidth" overflow="visible">
			<use xlink:href="#lend4" transform="scale(-4.36,-4.36) "/>
		</marker>
		<marker id="mrkr4-223" class="st19" refX="-8.72" orient="auto" markerUnits="strokeWidth" overflow="visible">
			<use xlink:href="#lend4" transform="scale(-4.36,-4.36) "/>
		</marker>
	</defs>
	<g>
		<title>Scalable web app</title>
		<g id="shape1-1" transform="translate(1243.22,174.331) rotate(90)">
			<title>Sheet.1</title>
			<path d="M0 612 C3.66 612 7.07 612 10.43 612 C15.88 612 21.18 612 27 612" class="st1"/>
		</g>
		<g id="shape2-7" transform="translate(552.741,776.119) rotate(180)">
			<title>Sheet.2</title>
			<path d="M0 612 C4.39 612 8.49 612 12.52 612 C19.65 612 26.57 612 34.31 612" class="st3"/>
		</g>
		<g id="shape3-13" transform="translate(214.151,-376.418)">
			<title>Sheet.3</title>
			<desc>Web front end</desc>
			<rect x="0" y="469.035" width="227.884" height="142.965" class="st5"/>
			<text x="75.41" y="457.27" class="st6">Web front end</text>		</g>
		<g id="shape4-16" transform="translate(196.385,-194.304)">
			<title>Sheet.4</title>
			<path d="M0 612 L531.01 612 L531.01 257.99 L0 257.99 L0 612 Z" class="st7"/>
		</g>
		<g id="shape20-18" transform="translate(538.601,-300.054)">
			<title>Content Delivery Network (CDN)</title>
			<desc>Content Delivery Network (CDN)</desc>
			<path d="M68.36 606.02 C68.36 602.81 65.8 600.04 62.59 600.04 L61.74 600.04 C61.95 598.75 62.38 597.47 62.38 595.98 C62.38
						 587.43 55.33 580.6 47 580.6 C40.38 580.6 34.61 585.08 32.47 591.06 C31.4 590.85 30.34 590.42 29.05 590.42
						 C23.07 590.42 18.59 595.12 18.59 601.1 C18.59 607.09 23.29 611.79 29.05 611.79 L62.81 611.79 C66.01 611.57
						 68.36 609.22 68.36 606.02 ZM2.78 595.55 C1.28 595.55 0 596.83 0 598.33 C-0 599.82 1.28 601.1 2.78 601.1
						 L16.02 601.1 C16.02 599.18 16.45 597.26 17.3 595.55 L2.78 595.55 ZM17.09 606.45 L6.62 606.45 C5.13 606.45
						 3.85 607.73 3.85 609.22 C3.85 610.72 5.13 612 6.62 612 L21.15 612 C19.44 610.5 17.95 608.8 17.09 606.45
						 ZM30.98 588.07 C31.83 586.36 32.9 584.87 34.18 583.59 L11.32 583.59 C9.83 583.59 8.55 584.87 8.55 586.36
						 C8.55 587.86 9.83 589.14 11.32 589.14 L23.71 589.14 C25.42 588.29 27.13 587.86 29.27 587.86 C29.69 588.07
						 30.34 588.07 30.98 588.07 Z" class="st8"/>
			<text x="-2.81" y="630.63" class="st9">Content Delivery <tspan x="1.06" dy="1.2em" class="st10">Network (CDN)</tspan></text>		</g>
		<g id="shape23-22" transform="translate(480.807,776.119) rotate(180)">
			<title>Sheet.23</title>
			<path d="M0 612 C4.02 612 7.77 612 11.47 612 C17.83 612 24 612 30.87 612" class="st3"/>
		</g>
		<g id="group26-27" transform="translate(211.668,-388.312)">
			<title>Sheet.26</title>
			<g id="shape27-28" transform="translate(12.5772,0)">
				<title>Sheet.27</title>
				<desc>App Service plan</desc>
				<rect x="0" y="492.862" width="80.7234" height="119.138" class="st11"/>
				<text x="9.15" y="507.66" class="st9">App Service <tspan x="28.93" dy="1.2em" class="st10">plan</tspan></text>			</g>
			<g id="group28-32" transform="translate(26.5965,-34.4824)">
				<title>Web App (opaque)  (was websites)</title>
				<desc>Web App</desc>
				<g id="shape29-33">
					<title>Sheet.29</title>
					<path d="M43.76 577.49 C39.28 571.97 32.51 569.08 25.67 569.08 C20.87 569.08 15.98 570.53 11.86 573.5 C1.89 580.72
								 -0 594.18 7.64 603.59 C12.11 609.11 18.88 612 25.71 612 C30.53 612 35.41 610.57 39.53 607.58 C49.49
								 600.37 51.39 586.9 43.76 577.49 Z" class="st12"/>
				</g>
				<g id="group30-35">
					<title>Sheet.30</title>
					<g id="group31-36">
						<title>Sheet.31</title>
						<g id="shape32-37">
							<title>Sheet.32</title>
							<path d="M37.72 605.36 C34.13 607.95 29.9 609.21 25.71 609.21 C19.75 609.21 13.87 606.69 9.98 601.89
										 C3.33 593.7 4.97 582 13.67 575.72 C17.25 573.12 21.48 571.88 25.67 571.88 C31.64 571.88
										 37.52 574.4 41.41 579.2 C48.06 587.38 46.41 599.1 37.72 605.36 ZM43.76 577.49 C39.28 571.97
										 32.51 569.08 25.67 569.08 C20.87 569.08 15.98 570.52 11.86 573.5 C1.89 580.72 -0 594.18
										 7.64 603.59 C12.11 609.11 18.88 612 25.71 612 C30.53 612 35.41 610.57 39.53 607.58 C49.49
										 600.37 51.39 586.9 43.76 577.49 Z" class="st8"/>
						</g>
					</g>
					<g id="group33-39" transform="translate(8.16681,-6.65497)">
						<title>Sheet.33</title>
						<g id="group34-40" transform="translate(0.563301,-0.267209)">
							<title>Sheet.34</title>
							<g id="group35-41" transform="translate(0.720592,4.54747E-13)">
								<title>Sheet.35</title>
								<g id="shape36-42">
									<title>Sheet.36</title>
									<path d="M5.96 601.36 C4.65 600.13 3.58 598.96 2.74 597.8 C0.83 601.46 0.16 605.23 0 608.23 C0.19
												 608.47 0.19 608.66 0.38 608.9 C1.33 610.04 2.53 611.13 3.68 612 C3.5 609.54 3.75
												 605.53 5.96 601.36 Z" class="st8"/>
								</g>
							</g>
							<g id="shape37-44" transform="translate(5.42549,-13.5919)">
								<title>Sheet.37</title>
								<path d="M8.14 600.65 C6.35 601.82 4.51 603.3 2.66 605.16 C1.64 606.17 0.77 607.21 0 608.26 C0.79
											 609.47 1.83 610.71 3.13 612 C4.11 610.7 5.3 609.39 6.75 608.11 C8.58 606.5 10.3 605.21
											 11.91 604.17 C10.59 603.02 9.32 601.85 8.14 600.65 Z" class="st8"/>
							</g>
							<g id="group38-46" transform="translate(16.3733,-23.0077)">
								<title>Sheet.38</title>
								<g id="shape39-47">
									<title>Sheet.39</title>
									<path d="M16.1 608.86 C15.24 607.82 14.27 606.92 13.25 606.1 C10.19 605.66 5.44 605.7 0 608.43
												 C1.25 609.69 2.48 610.88 3.69 612 C10.94 608.31 16.1 608.86 16.1 608.86 Z"
											class="st8"/>
								</g>
							</g>
							<g id="group40-49" transform="translate(-3.64708E-14,-14.2023)">
								<title>Sheet.40</title>
								<g id="shape41-50">
									<title>Sheet.41</title>
									<path d="M3.46 612 C4.01 610.96 4.67 609.91 5.42 608.87 C2.31 604.22 2.46 600.39 2.79 598.59
												 C2.01 599.36 1.29 600.16 0.66 601.02 C0.03 603.45 -0 607.33 3.46 612 Z"
											class="st8"/>
								</g>
							</g>
							<g id="group42-52" transform="translate(6.6769,-1.12074)">
								<title>Sheet.42</title>
								<g id="shape43-53">
									<title>Sheet.43</title>
									<path d="M5.63 602.75 C4.18 601.66 2.94 600.58 1.88 599.52 C1.13 600.51 0.51 601.5 0 602.48 C0.99
												 603.43 2.14 604.38 3.44 605.36 C11.55 611.43 19.62 612 24.14 612 C24.44 612 25.86
												 610.19 26.68 609.06 C24.65 609.45 15.99 610.49 5.63 602.75 Z" class="st8"/>
								</g>
							</g>
							<g id="group44-55" transform="translate(3.46642,-10.6447)">
								<title>Sheet.44</title>
								<g id="shape45-56">
									<title>Sheet.45</title>
									<path d="M0 608.44 C0.85 609.59 1.89 610.77 3.21 612 C3.72 611.03 4.35 610.04 5.09 609.05 C3.79
												 607.76 2.75 606.52 1.96 605.31 C1.19 606.35 0.55 607.4 0 608.44 Z" class="st8"/>
								</g>
							</g>
							<g id="group46-58" transform="translate(17.3363,-8.05994)">
								<title>Sheet.46</title>
								<g id="shape47-59">
									<title>Sheet.47</title>
									<path d="M0 598.64 C7.4 605.08 16.15 610.57 18.38 612 C18.61 611.47 18.76 610.95 18.92 610.4
												 C16.53 608.73 10.24 604.11 2.72 597.06 C1.85 597.5 0.94 598.03 0 598.64 Z"
											class="st8"/>
								</g>
							</g>
							<g id="group48-61" transform="translate(8.21914,-24.9391)">
								<title>Sheet.48</title>
								<g id="shape49-62">
									<title>Sheet.49</title>
									<path d="M8.15 610.35 C6.34 608.57 4.5 606.65 2.62 604.6 C1.72 604.87 0.85 605.21 0 605.6 C1.38
												 607.74 3.25 609.9 5.34 612 C6.3 611.37 7.23 610.82 8.15 610.35 Z" class="st8"/>
								</g>
							</g>
							<g id="shape50-64" transform="translate(13.4109,-21.2734)">
								<title>Sheet.50</title>
								<path d="M3.08 606.64 C2.15 607.11 0.94 607.8 0 608.43 C1.18 609.62 2.38 610.85 3.7 612 C4.65 611.39
											 5.91 610.66 6.78 610.2 C5.57 609.1 4.33 607.9 3.08 606.64 Z" class="st8"/>
							</g>
							<g id="shape51-66" transform="translate(13.4097,-21.2031)">
								<title>Sheet.51</title>
								<path d="M2.74 606.4 C1.82 606.87 0.94 607.48 0 608.11 C1.18 609.3 2.86 610.85 4.18 612 C5.13 611.39
											 5.91 610.78 6.78 610.32 C5.58 609.22 3.99 607.67 2.74 606.4 Z" class="st8"/>
							</g>
						</g>
						<g id="group52-68" transform="translate(24.4923,-9.44279)">
							<title>Sheet.52</title>
							<g id="shape53-69">
								<title>Sheet.53</title>
								<path d="M2.22 604.3 C0.36 605.64 -0 608.16 1.42 609.91 C2.86 611.68 5.53 612 7.4 610.67 C9.25 609.33
											 9.61 606.81 8.19 605.05 C6.75 603.3 4.1 602.94 2.22 604.3 Z" class="st8"/>
							</g>
						</g>
						<g id="group54-71" transform="translate(15.905,-3.41061E-13)">
							<title>Sheet.54</title>
							<g id="shape55-72">
								<title>Sheet.55</title>
								<path d="M2.04 604.87 C0.32 606.11 -0 608.45 1.3 610.07 C2.63 611.7 5.1 612 6.84 610.76 C8.55 609.52
											 8.88 607.19 7.56 605.57 C6.24 603.93 3.77 603.63 2.04 604.87 Z" class="st8"/>
							</g>
						</g>
						<g id="group56-74" transform="translate(0,-8.12206)">
							<title>Sheet.56</title>
							<g id="shape57-75">
								<title>Sheet.57</title>
								<path d="M3.11 601.16 C0.5 603.06 -0 606.58 2 609.05 C4.01 611.53 7.77 612 10.39 610.1 C13.01 608.21
											 13.51 604.68 11.51 602.19 C9.49 599.74 5.73 599.26 3.11 601.16 Z" class="st8"/>
							</g>
						</g>
					</g>
				</g>
				<g id="shape28-77">
					<text x="0.86" y="631.65" class="st9">Web App</text>				</g>
			</g>
		</g>
		<g id="shape59-79" transform="translate(553.455,-432.583)">
			<title>Sheet.59</title>
			<desc>Data storage</desc>
			<rect x="0" y="525.2" width="155.527" height="86.8003" class="st5"/>
			<text x="43.87" y="513.44" class="st6">Data storage</text>		</g>
		<g id="shape61-82" transform="translate(443.815,-493.493)">
			<title>Sheet.61</title>
			<path d="M0 612 C11.7 612 22.64 612 33.39 612 C55.69 612 77.2 612 102.39 612" class="st3"/>
		</g>
		<g id="group69-87" transform="translate(582.71,-468.847)">
			<title>SQL database (generic) (opaque).20</title>
			<desc>SQL Database</desc>
			<g id="shape70-88">
				<title>Sheet.70</title>
				<path d="M14.91 571.59 C6.68 571.59 0 574.44 0 577.58 L0 605.91 C0 609.05 6.68 612 14.91 612 C23.15 612 29.83 609.18
							 29.83 606.05 L29.83 577.74 C29.83 574.59 23.15 571.59 14.91 571.59 Z" class="st12"/>
			</g>
			<g id="group71-90">
				<title>Sheet.71</title>
				<g id="shape72-91" transform="translate(13.5915,-16.7238)">
					<title>Sheet.72</title>
					<path d="M2.6 608.41 C2.49 608.22 2.33 608.06 2.15 607.94 C1.99 607.83 1.77 607.77 1.52 607.77 C1.26 607.77 1.02
								 607.83 0.83 607.94 C0.63 608.06 0.48 608.21 0.35 608.4 C0.23 608.6 0.14 608.82 0.08 609.08 C0.02
								 609.34 0 609.6 0 609.9 C0 610.27 0.04 610.59 0.12 610.86 C0.2 611.12 0.31 611.34 0.44 611.51 C0.57
								 611.68 0.73 611.81 0.91 611.88 C1.09 611.96 1.28 612 1.48 612 C1.67 612 1.85 611.96 2.02 611.88
								 C2.2 611.8 2.36 611.67 2.49 611.5 C2.63 611.34 2.74 611.12 2.82 610.86 C2.89 610.6 2.94 610.3 2.94
								 609.93 C2.94 609.64 2.92 609.36 2.86 609.11 C2.8 608.84 2.71 608.61 2.6 608.41 Z" class="st8"/>
				</g>
				<g id="shape73-93">
					<title>Sheet.73</title>
					<path d="M14.91 571.59 C6.68 571.59 0 574.44 0 577.58 L0 605.91 C0 609.05 6.68 612 14.91 612 C23.15 612 29.83
								 609.18 29.83 606.05 L29.83 577.74 C29.83 574.59 23.15 571.59 14.91 571.59 ZM10.43 595.34 C10.4 595.55
								 10.32 595.74 10.22 595.94 C10.12 596.13 9.98 596.31 9.81 596.48 C9.64 596.65 9.43 596.81 9.16 596.95
								 C8.91 597.08 8.6 597.18 8.26 597.25 C7.9 597.33 7.49 597.37 7.02 597.37 C6.77 597.37 6.53 597.36
								 6.31 597.32 C6.08 597.3 5.88 597.27 5.67 597.23 C5.48 597.19 5.3 597.14 5.15 597.09 C4.98 597.04
								 4.85 596.98 4.73 596.93 L4.73 594.71 C4.86 594.81 5.02 594.92 5.19 595.01 C5.36 595.11 5.55 595.2
								 5.74 595.28 C5.94 595.35 6.14 595.41 6.35 595.46 C6.56 595.52 6.76 595.55 6.96 595.55 C7.13 595.55
								 7.27 595.52 7.38 595.49 C7.49 595.46 7.57 595.41 7.63 595.35 C7.69 595.31 7.74 595.24 7.76 595.18
								 C7.79 595.11 7.8 595.05 7.8 594.98 C7.8 594.86 7.76 594.75 7.7 594.65 C7.65 594.56 7.56 594.48 7.45
								 594.41 C7.33 594.33 7.2 594.26 7.06 594.2 C6.9 594.13 6.72 594.07 6.54 593.99 C6.2 593.86 5.9 593.7
								 5.65 593.52 C5.41 593.34 5.2 593.16 5.05 592.95 C4.89 592.74 4.78 592.51 4.71 592.28 C4.64 592.05
								 4.61 591.81 4.61 591.55 C4.61 591.15 4.69 590.8 4.84 590.47 C5 590.15 5.23 589.89 5.5 589.66 C5.79
								 589.44 6.14 589.26 6.53 589.15 C6.93 589.02 7.37 588.96 7.86 588.96 C8.13 588.96 8.37 588.98 8.6
								 588.99 C8.83 589.01 9.03 589.04 9.21 589.07 C9.39 589.1 9.54 589.13 9.69 589.17 C9.83 589.21 9.96
								 589.24 10.07 589.28 L10.07 591.34 C9.95 591.28 9.83 591.21 9.68 591.15 C9.53 591.08 9.38 591.02
								 9.21 590.97 C9.04 590.91 8.86 590.87 8.67 590.84 C8.48 590.8 8.29 590.79 8.08 590.79 C7.82 590.79
								 7.61 590.84 7.44 590.93 C7.27 591.04 7.19 591.18 7.19 591.36 C7.19 591.44 7.21 591.53 7.25 591.6
								 C7.28 591.67 7.34 591.73 7.41 591.8 C7.5 591.86 7.61 591.93 7.74 591.99 C7.87 592.06 8.02 592.14
								 8.22 592.21 C8.55 592.34 8.85 592.49 9.14 592.64 C9.41 592.8 9.65 592.98 9.85 593.19 C10.06 593.39
								 10.21 593.62 10.32 593.87 C10.44 594.13 10.5 594.43 10.5 594.77 C10.5 594.95 10.48 595.15 10.43
								 595.34 ZM16.5 599.29 L14.74 597.37 C14.22 597.33 13.75 597.21 13.3 597.02 C12.85 596.81 12.45 596.54
								 12.12 596.19 C11.78 595.84 11.52 595.43 11.32 594.93 C11.12 594.44 11.03 593.88 11.03 593.28 C11.03
								 592.63 11.12 592.05 11.33 591.53 C11.53 590.99 11.81 590.54 12.18 590.17 C12.54 589.78 12.97 589.49
								 13.47 589.28 C13.97 589.07 14.53 588.96 15.13 588.96 C15.71 588.96 16.23 589.06 16.72 589.25 C17.2
								 589.45 17.62 589.73 17.97 590.09 C18.31 590.45 18.59 590.88 18.79 591.41 C18.98 591.92 19.08 592.5
								 19.08 593.14 C19.08 593.61 19.03 594.04 18.91 594.44 C18.8 594.84 18.65 595.21 18.45 595.53 C18.25
								 595.85 18.01 596.13 17.75 596.38 C17.48 596.62 17.19 596.81 16.87 596.96 L19.56 599.29 L16.5 599.29
								 L16.5 599.29 ZM25.39 597.23 L20.22 597.23 L20.22 589.1 L22.63 589.1 L22.63 595.31 L25.38 595.31
								 L25.38 597.23 L25.39 597.23 ZM14.89 580.37 C9.03 580.37 4.27 578.9 4.27 577.07 C4.27 575.23 9.03
								 573.76 14.89 573.76 C20.77 573.76 25.53 575.23 25.53 577.07 C25.53 578.9 20.77 580.37 14.89 580.37
								 Z" class="st8"/>
				</g>
			</g>
			<g id="shape69-95">
				<text x="4.38" y="625.95" class="st9">SQL<tspan x="-9.69" dy="1.2em" class="st10">Database</tspan></text>			</g>
		</g>
		<g id="group87-98" transform="translate(605.887,-362.169)">
			<title>Azure Search</title>
			<desc>Azure Search</desc>
			<g id="shape88-99">
				<title>Sheet.88</title>
				<path d="M43.67 592.85 C43.97 591.84 44.08 590.82 44.08 589.71 C44.08 582.92 38.71 577.35 32.12 577.35 C27.15 577.35
							 22.9 580.49 21.08 584.95 C19.56 583.02 17.23 581.91 14.59 581.91 C9.93 581.91 6.18 585.86 6.18 590.62
							 C6.18 591.43 6.28 592.24 6.48 593.05 C2.63 594.47 0 597.81 0 602.17 C0 607.85 4.46 612 10.03 612 L40.73
							 612 C46.31 612 50.66 607.85 50.66 602.17 C50.66 597.61 47.72 594.17 43.67 592.85 ZM36.98 597.11 C36.07
							 600.65 32.93 603.18 29.28 603.18 C28.67 603.18 27.97 603.08 27.36 602.98 C26.75 602.78 26.04 602.58
							 25.43 602.27 L19.96 607.85 C19.56 608.25 18.95 608.55 18.34 608.55 C17.73 608.55 17.12 608.35 16.72
							 607.85 C16.31 607.44 16.01 606.83 16.01 606.22 C16.01 605.62 16.21 605.01 16.72 604.6 L22.19 599.03
							 C21.28 597.31 20.97 595.28 21.48 593.36 C22.39 589.81 25.53 587.28 29.18 587.28 C29.79 587.28 30.5 587.38
							 31.11 587.48 C33.13 587.99 34.96 589.3 35.97 591.13 C37.19 592.95 37.49 595.08 36.98 597.11 Z"
						class="st8"/>
			</g>
			<g id="shape89-101" transform="translate(24.2165,-11.8549)">
				<title>Sheet.89</title>
				<path d="M6.28 602.27 C5.88 602.17 5.47 602.17 5.07 602.17 C2.84 602.17 0.81 603.69 0.3 605.92 C0 607.24 0.2 608.76
							 1.01 609.87 C1.32 610.38 1.82 610.78 2.33 611.19 C2.84 611.49 3.34 611.8 3.95 611.9 C4.36 612 4.76 612
							 5.17 612 C7.4 612 9.42 610.48 9.93 608.25 C10.23 606.93 10.03 605.62 9.32 604.5 C8.61 603.39 7.5 602.58
							 6.28 602.27 Z" class="st8"/>
			</g>
			<g id="shape87-103">
				<text x="12.06" y="625.34" class="st9">Azure <tspan x="9.63" dy="1.2em" class="st10">Search</tspan></text>			</g>
		</g>
		<g id="group90-106" transform="translate(244.685,-215.869)">
			<title>Sheet.90</title>
			<g id="shape91-107" transform="translate(5.85428,-49.0669)">
				<title>Sheet.91</title>
				<rect x="0" y="524.91" width="65.0941" height="87.0904" class="st11"/>
			</g>
			<g id="group92-109" transform="translate(22.6311,-33.5873)">
				<title>Storage (Azure) (opaque).421</title>
				<g id="shape93-110" transform="translate(0,1196.97) scale(1,-1)">
					<title>Sheet.93</title>
					<path d="M26.84 601.47 L24.77 601.47 L24.77 611.06 C24.77 611.56 24.33 612 23.83 612 L0.94 612 C0.44 612 0 611.56
								 0 611.06 L0 591.81 C-0 591.31 0.44 590.87 0.94 590.87 L13.98 590.87 L17.37 584.97 L26.84 584.97
								 L31.54 593.25 L26.84 601.47 Z" class="st13"/>
				</g>
				<g id="shape94-112" transform="translate(0,1199.07) scale(1,-1)">
					<title>Sheet.94</title>
					<path d="M26.84 601.47 L24.77 601.47 L24.77 611.06 C24.77 611.56 24.33 612 23.83 612 L0.94 612 C0.44 612 0 611.56
								 0 611.06 L0 591.81 C-0 591.31 0.44 590.87 0.94 590.87 L13.98 590.87 L17.37 584.97 L26.84 584.97
								 L31.54 593.25 L26.84 601.47 ZM18.37 606.48 L22.95 606.48 L22.95 603.72 L18.37 603.72 L18.37 606.48
								 ZM22.95 602.85 L22.95 601.47 L18.37 601.47 L18.37 602.85 L22.95 602.85 ZM12.92 606.48 L17.49 606.48
								 L17.49 603.72 L12.92 603.72 L12.92 606.48 ZM12.92 602.85 L17.49 602.85 L17.49 601.47 L17.37 601.47
								 L16.55 600.09 L12.85 600.09 L12.85 602.85 L12.92 602.85 ZM12.92 599.15 L16.05 599.15 L14.48 596.39
								 L12.92 596.39 L12.92 599.15 ZM13.92 595.51 L12.85 593.69 L12.85 595.51 L13.92 595.51 ZM6.46 592.75
								 L1.88 592.75 L1.88 595.51 L6.46 595.51 L6.46 592.75 ZM6.46 596.39 L1.88 596.39 L1.88 599.15 L6.46
								 599.15 L6.46 596.39 ZM6.46 600.09 L1.88 600.09 L1.88 602.85 L6.46 602.85 L6.46 600.09 ZM6.46 603.72
								 L1.88 603.72 L1.88 606.48 L6.46 606.48 L6.46 603.72 ZM11.98 592.75 L7.4 592.75 L7.4 595.51 L11.98
								 595.51 L11.98 592.75 ZM11.98 596.39 L7.4 596.39 L7.4 599.15 L11.98 599.15 L11.98 596.39 ZM11.98
								 600.09 L7.4 600.09 L7.4 602.85 L11.98 602.85 L11.98 600.09 ZM11.98 603.72 L7.4 603.72 L7.4 606.48
								 L11.98 606.48 L11.98 603.72 ZM12.92 592.75 L12.92 592.81 L12.92 592.75 Z" class="st14"/>
				</g>
			</g>
			<g id="group96-114" transform="translate(5.85519,-72.2877)">
				<title>Sheet.96</title>
				<g id="shape97-115" transform="translate(20.2541,-24.0219)">
					<title>Document.225</title>
					<desc>Logs</desc>
					<path d="M4.73 605.38 L4.73 604.44 L19.86 604.44 L19.86 605.38 L4.73 605.38 ZM4.73 601.6 L4.73 600.65 L19.86
								 600.65 L19.86 601.6 L4.73 601.6 ZM4.73 597.82 L4.73 596.87 L19.86 596.87 L19.86 597.82 L4.73 597.82
								 ZM4.73 594.03 L4.73 593.09 L19.86 593.09 L19.86 594.03 L4.73 594.03 ZM4.73 590.25 L4.73 589.31 L14.22
								 589.31 L14.22 590.25 L4.73 590.25 ZM22.69 610.11 L22.69 589.31 L17.02 589.31 L17.02 583.63 L1.89
								 583.63 L1.89 610.11 L22.69 610.11 ZM22.46 588.36 L17.97 583.87 L17.97 588.36 L22.46 588.36 ZM18.67
								 581.74 L24.58 587.65 L24.58 612 L0 612 L0 581.74 L18.67 581.74 Z" class="st15"/>
					<text x="-0.13" y="624.81" class="st6">Logs</text>				</g>
			</g>
		</g>
		<g id="group99-118" transform="translate(335.633,-215.869)">
			<title>Sheet.99</title>
			<g id="shape101-119" transform="translate(4.07869,-49.0669)">
				<title>Sheet.101</title>
				<rect x="0" y="524.91" width="65.0922" height="87.0904" class="st11"/>
			</g>
			<g id="group105-121" transform="translate(18.3968,-94.9329)">
				<title>Storage queue (opaque)</title>
				<desc>Queue</desc>
				<g id="shape106-122" transform="translate(0,1192.37) scale(1,-1)">
					<title>Sheet.106</title>
					<path d="M27.39 612 L9.07 612 L0 596.18 L9.16 580.37 L27.39 580.37 L36.46 596.18 L27.39 612 Z" class="st13"/>
				</g>
				<g id="group107-124">
					<title>Sheet.107</title>
					<g id="shape108-125" transform="translate(20.4463,1205.96) scale(1,-1)">
						<title>Sheet.108</title>
						<path d="M7.91 612 L0 612 L3.95 608.91 L7.91 612 Z" class="st14"/>
					</g>
					<g id="shape109-127" transform="translate(8.39069,1207.12) scale(1,-1)">
						<title>Sheet.109</title>
						<path d="M3.95 608.91 C3.86 608.91 3.76 608.91 3.66 609.01 L0 611.9 L0 607.18 L8.39 607.18 L8.39 612 L4.34
									 609.01 C4.24 608.91 4.05 608.91 3.95 608.91 Z" class="st14"/>
					</g>
					<g id="shape110-129" transform="translate(20.2534,1207.12) scale(1,-1)">
						<title>Sheet.110</title>
						<path d="M4.15 608.91 C4.05 608.91 3.86 608.91 3.76 609.01 L0 611.9 L0 607.18 L8.39 607.18 L8.39 612 L4.44
									 609.01 C4.34 608.91 4.24 608.91 4.15 608.91 Z" class="st14"/>
					</g>
					<g id="shape111-131" transform="translate(0,1192.37) scale(1,-1)">
						<title>Sheet.111</title>
						<path d="M27.39 612 L9.07 612 L0 596.18 L9.16 580.37 L27.39 580.37 L36.46 596.18 L27.39 612 ZM30.57 589.43
									 L5.59 589.43 C4.82 589.43 4.24 590.11 4.24 590.88 L4.24 600.43 C4.24 601.2 4.82 601.87 5.59
									 601.87 L30.57 601.87 C30.86 601.87 31.34 601.87 34.62 595.7 L34.72 595.41 L34.62 595.22 C31.34
									 589.43 30.86 589.43 30.57 589.43 Z" class="st14"/>
					</g>
					<g id="shape112-133" transform="translate(8.29425,1205.96) scale(1,-1)">
						<title>Sheet.112</title>
						<path d="M8 612 L0 612 L3.95 608.91 L8 612 Z" class="st14"/>
					</g>
					<g id="shape113-135" transform="translate(5.20801,1203.55) scale(1,-1)">
						<title>Sheet.113</title>
						<path d="M0.39 612 C0.19 612 0 611.81 0 611.61 L0 602.07 C0 601.87 0.19 601.58 0.39 601.58 L25.17 601.58
									 C25.65 602.07 27.1 604.38 28.35 606.6 C27.1 609.01 25.56 611.52 25.17 612 L0.39 612 ZM12.54
									 603.13 C12.54 602.84 12.25 602.55 11.86 602.55 L2.41 602.55 C2.12 602.55 2.03 602.84 2.03 603.13
									 L2.03 610.17 C2.03 610.46 2.12 610.55 2.41 610.55 L11.86 610.55 C12.15 610.55 12.54 610.46 12.54
									 610.17 L12.54 603.13 ZM24.4 603.13 C24.4 602.84 24.21 602.55 23.92 602.55 L14.56 602.55 C14.27
									 602.55 14.08 602.84 14.08 603.13 L14.08 610.17 C14.08 610.46 14.27 610.55 14.56 610.55 L23.92
									 610.55 C24.21 610.55 24.4 610.46 24.4 610.17 L24.4 603.13 Z" class="st14"/>
					</g>
				</g>
				<g id="shape105-137">
					<text x="0.64" y="625.21" class="st9">Queue</text>				</g>
			</g>
		</g>
		<g id="group114-139" transform="translate(421.689,-215.869)">
			<title>Sheet.114</title>
			<g id="shape115-140" transform="translate(10.3935,-49.0669)">
				<title>Sheet.115</title>
				<rect x="0" y="524.91" width="65.0941" height="87.0904" class="st11"/>
			</g>
			<g id="shape120-142" transform="translate(30.6486,-96.3096)">
				<title>Document.225</title>
				<desc>Static content</desc>
				<path d="M4.73 605.38 L4.73 604.44 L19.86 604.44 L19.86 605.38 L4.73 605.38 ZM4.73 601.6 L4.73 600.65 L19.86 600.65
							 L19.86 601.6 L4.73 601.6 ZM4.73 597.82 L4.73 596.87 L19.86 596.87 L19.86 597.82 L4.73 597.82 ZM4.73
							 594.03 L4.73 593.09 L19.86 593.09 L19.86 594.03 L4.73 594.03 ZM4.73 590.25 L4.73 589.31 L14.22 589.31
							 L14.22 590.25 L4.73 590.25 ZM22.69 610.11 L22.69 589.31 L17.02 589.31 L17.02 583.63 L1.89 583.63 L1.89
							 610.11 L22.69 610.11 ZM22.46 588.36 L17.97 583.87 L17.97 588.36 L22.46 588.36 ZM18.67 581.74 L24.58
							 587.65 L24.58 612 L0 612 L0 581.74 L18.67 581.74 Z" class="st15"/>
				<text x="-2.68" y="623.18" class="st6">Static<tspan x="-8.43" dy="1.2em" class="st10">content</tspan></text>			</g>
			<g id="group122-146" transform="translate(68.5646,-39.8407)">
				<title>Sheet.122</title>
				<g id="shape123-147" transform="translate(5.01132,-2.99292)">
					<title>Sheet.123</title>
					<rect x="0" y="596.682" width="14.8922" height="15.3177" class="st16"/>
				</g>
				<g id="group124-149">
					<title>Storage blob</title>
					<desc>Blob</desc>
					<g id="shape125-150">
						<title>Sheet.125</title>
						<path d="M18.44 590.71 L6.15 590.71 L0 601.36 L6.15 612 L18.44 612 L24.58 601.36 L18.44 590.71 ZM18.47 606.11
									 C18.47 607.03 17.73 607.77 16.81 607.77 L7.78 607.77 C6.86 607.77 6.12 607.03 6.12 606.11 L6.12
									 596.59 C6.12 595.68 6.86 594.94 7.78 594.94 L14.47 594.94 C15.14 594.94 15.72 594.94 15.72 594.94
									 L15.9 594.94 L18.47 597.47 L18.47 598.82 L18.47 606.11 Z" class="st8"/>
					</g>
					<g id="shape126-152" transform="translate(10.2869,-6.87279)">
						<title>Sheet.126</title>
						<path d="M1.05 609.94 C1.03 609.84 1 609.76 0.97 609.69 C0.95 609.62 0.91 609.57 0.87 609.53 C0.83 609.49
									 0.78 609.46 0.73 609.44 C0.68 609.43 0.62 609.42 0.56 609.42 C0.45 609.42 0.36 609.45 0.28 609.5
									 C0.21 609.55 0.16 609.63 0.11 609.74 C0.07 609.84 0.04 609.98 0.03 610.13 C0.01 610.29 0 610.48
									 0 610.69 C0 610.95 0.01 611.16 0.03 611.33 C0.05 611.5 0.08 611.63 0.13 611.73 C0.17 611.83
									 0.23 611.9 0.3 611.94 C0.36 611.98 0.45 612 0.54 612 C0.62 612 0.68 611.99 0.74 611.96 C0.79
									 611.94 0.84 611.91 0.88 611.86 C0.93 611.81 0.96 611.76 0.99 611.68 C1.02 611.61 1.04 611.53
									 1.06 611.44 C1.07 611.35 1.09 611.24 1.09 611.12 C1.1 611 1.1 610.88 1.1 610.73 C1.1 610.56
									 1.1 610.41 1.09 610.28 C1.08 610.15 1.07 610.03 1.05 609.94 Z" class="st8"/>
					</g>
					<g id="shape127-154" transform="translate(13.1903,-11.8361)">
						<title>Sheet.127</title>
						<path d="M1.05 609.94 C1.03 609.84 1 609.76 0.97 609.69 C0.95 609.62 0.91 609.57 0.87 609.53 C0.83 609.49
									 0.78 609.46 0.73 609.44 C0.68 609.43 0.62 609.42 0.56 609.42 C0.45 609.42 0.36 609.45 0.28 609.5
									 C0.21 609.55 0.15 609.63 0.11 609.74 C0.07 609.84 0.04 609.98 0.02 610.13 C0.01 610.29 0 610.48
									 0 610.69 C0 610.95 0.01 611.16 0.03 611.33 C0.05 611.5 0.08 611.63 0.13 611.73 C0.17 611.83
									 0.23 611.9 0.3 611.94 C0.36 611.98 0.45 612 0.54 612 C0.62 612 0.68 611.99 0.74 611.96 C0.79
									 611.94 0.84 611.91 0.88 611.86 C0.93 611.81 0.96 611.76 0.99 611.68 C1.02 611.61 1.04 611.53
									 1.06 611.44 C1.07 611.35 1.09 611.24 1.09 611.12 C1.1 611 1.1 610.88 1.1 610.73 C1.1 610.56
									 1.1 610.41 1.09 610.28 C1.08 610.15 1.07 610.03 1.05 609.94 Z" class="st8"/>
					</g>
					<g id="shape128-156" transform="translate(7.02198,-5.13547)">
						<title>Sheet.128</title>
						<path d="M8.49 600.99 C8.26 600.98 7.87 600.98 7.45 600.98 L0.75 600.98 C0.34 600.98 0 601.32 0 601.73 L0
									 611.25 C-0 611.66 0.34 612 0.75 612 L9.79 612 C10.2 612 10.54 611.66 10.54 611.25 L10.54 603.07
									 L8.49 603.07 L8.49 600.99 L8.49 600.99 ZM2.78 602.88 C2.78 602.85 2.79 602.83 2.8 602.81 C2.8
									 602.79 2.81 602.77 2.83 602.76 C2.84 602.74 2.86 602.73 2.88 602.71 L3.66 602.21 C3.67 602.2
									 3.68 602.2 3.69 602.19 C3.71 602.19 3.72 602.18 3.75 602.18 C3.77 602.18 3.8 602.18 3.83 602.18
									 C3.87 602.18 3.92 602.17 3.98 602.17 C4.05 602.17 4.1 602.18 4.15 602.18 C4.19 602.18 4.23 602.19
									 4.25 602.19 C4.27 602.2 4.28 602.21 4.29 602.22 C4.3 602.23 4.3 602.24 4.3 602.26 L4.3 605.25
									 L4.89 605.25 C4.91 605.25 4.93 605.26 4.94 605.27 C4.95 605.28 4.97 605.29 4.98 605.32 C4.99
									 605.34 4.99 605.37 5 605.4 C5 605.44 5 605.49 5 605.54 C5 605.59 5 605.64 5 605.67 C4.99 605.71
									 4.98 605.74 4.97 605.76 C4.96 605.78 4.95 605.8 4.94 605.8 C4.92 605.81 4.91 605.82 4.89 605.82
									 L2.9 605.82 C2.88 605.82 2.87 605.81 2.85 605.8 C2.84 605.8 2.83 605.78 2.82 605.76 C2.81 605.74
									 2.8 605.71 2.8 605.67 C2.79 605.64 2.79 605.59 2.79 605.54 C2.79 605.49 2.79 605.44 2.79 605.4
									 C2.8 605.37 2.81 605.34 2.82 605.32 C2.83 605.29 2.84 605.28 2.85 605.27 C2.86 605.26 2.88 605.25
									 2.9 605.25 L3.57 605.25 L3.57 602.9 L2.99 603.22 C2.95 603.24 2.91 603.25 2.88 603.26 C2.86
									 603.26 2.84 603.26 2.82 603.24 C2.8 603.22 2.79 603.2 2.79 603.16 C2.78 603.12 2.78 603.06 2.78
									 602.99 C2.78 602.95 2.78 602.91 2.78 602.88 ZM5.04 609.74 C4.99 609.98 4.92 610.17 4.81 610.34
									 C4.71 610.5 4.57 610.63 4.4 610.72 C4.23 610.8 4.03 610.85 3.78 610.85 C3.54 610.85 3.33 610.8
									 3.17 610.72 C3.01 610.63 2.88 610.51 2.78 610.35 C2.69 610.19 2.62 610 2.58 609.77 C2.54 609.54
									 2.52 609.28 2.52 608.99 C2.52 608.7 2.55 608.44 2.6 608.2 C2.64 607.97 2.72 607.77 2.83 607.61
									 C2.93 607.44 3.07 607.32 3.24 607.23 C3.41 607.14 3.61 607.1 3.85 607.1 C4.1 607.1 4.31 607.14
									 4.47 607.23 C4.63 607.31 4.76 607.43 4.86 607.59 C4.95 607.75 5.02 607.95 5.06 608.18 C5.09
									 608.41 5.11 608.67 5.11 608.96 C5.11 609.25 5.09 609.51 5.04 609.74 ZM7.9 610.64 C7.89 610.67
									 7.89 610.7 7.88 610.72 C7.87 610.74 7.85 610.76 7.84 610.77 C7.83 610.78 7.81 610.78 7.8 610.78
									 L5.8 610.78 C5.78 610.78 5.77 610.78 5.76 610.77 C5.74 610.76 5.73 610.74 5.72 610.72 C5.71
									 610.7 5.7 610.67 5.7 610.64 C5.69 610.6 5.69 610.56 5.69 610.5 C5.69 610.45 5.69 610.4 5.7 610.37
									 C5.7 610.33 5.71 610.3 5.72 610.28 C5.73 610.26 5.74 610.24 5.75 610.23 C5.77 610.22 5.78 610.21
									 5.8 610.21 L6.47 610.21 L6.47 607.86 L5.89 608.18 C5.85 608.2 5.81 608.21 5.79 608.22 C5.76
									 608.22 5.74 608.22 5.72 608.2 C5.71 608.19 5.7 608.16 5.69 608.12 C5.69 608.08 5.68 608.03 5.68
									 607.96 C5.68 607.91 5.68 607.87 5.69 607.85 C5.69 607.82 5.69 607.79 5.7 607.77 C5.71 607.75
									 5.72 607.73 5.73 607.72 C5.74 607.71 5.76 607.69 5.78 607.68 L6.56 607.18 C6.57 607.17 6.58
									 607.16 6.59 607.16 C6.61 607.15 6.63 607.15 6.65 607.15 C6.67 607.14 6.7 607.14 6.74 607.14
									 C6.77 607.14 6.82 607.14 6.88 607.14 C6.95 607.14 7.01 607.14 7.05 607.14 C7.1 607.15 7.13 607.15
									 7.15 607.16 C7.17 607.16 7.19 607.17 7.2 607.18 C7.2 607.2 7.21 607.21 7.21 607.23 L7.21 610.22
									 L7.8 610.22 C7.81 610.22 7.83 610.22 7.84 610.23 C7.86 610.24 7.87 610.26 7.88 610.28 C7.89
									 610.3 7.9 610.33 7.9 610.37 C7.91 610.4 7.91 610.45 7.91 610.5 C7.91 610.56 7.9 610.6 7.9 610.64
									 ZM7.94 604.78 C7.9 605.01 7.82 605.21 7.72 605.37 C7.61 605.54 7.47 605.66 7.31 605.75 C7.14
									 605.84 6.93 605.88 6.69 605.88 C6.44 605.88 6.23 605.84 6.07 605.76 C5.91 605.67 5.78 605.55
									 5.69 605.39 C5.59 605.23 5.52 605.03 5.48 604.8 C5.45 604.57 5.43 604.31 5.43 604.02 C5.43 603.74
									 5.45 603.47 5.5 603.24 C5.55 603.01 5.62 602.81 5.73 602.64 C5.83 602.48 5.97 602.35 6.14 602.27
									 C6.31 602.18 6.51 602.14 6.76 602.14 C7 602.14 7.21 602.18 7.37 602.26 C7.54 602.35 7.66 602.47
									 7.76 602.63 C7.85 602.79 7.92 602.98 7.96 603.21 C7.99 603.44 8.01 603.7 8.01 604 C8.01 604.28
									 7.99 604.55 7.94 604.78 Z" class="st8"/>
					</g>
					<g id="shape124-158">
						<text x="0.53" y="625.01" class="st17">Blob</text>					</g>
				</g>
			</g>
		</g>
		<g id="shape129-160" transform="translate(314.709,-388.312)">
			<title>Sheet.129</title>
			<desc>App Service plan</desc>
			<rect x="0" y="492.862" width="117.436" height="119.138" class="st11"/>
			<text x="27.5" y="507.66" class="st9">App Service<tspan x="47.29" dy="1.2em" class="st10">plan</tspan></text>		</g>
		<g id="group130-164" transform="translate(317.397,-422.794)">
			<title>Web App (opaque)  (was websites).164</title>
			<desc>API App</desc>
			<g id="shape131-165">
				<title>Sheet.131</title>
				<path d="M41.27 577.49 C37.04 571.97 30.66 569.08 24.21 569.08 C19.68 569.08 15.07 570.53 11.18 573.5 C1.79 580.72
							 0 594.18 7.21 603.59 C11.42 609.11 17.81 612 24.25 612 C28.8 612 33.4 610.57 37.28 607.58 C46.68 600.37
							 48.47 586.9 41.27 577.49 Z" class="st12"/>
			</g>
			<g id="group132-167">
				<title>Sheet.132</title>
				<g id="group133-168">
					<title>Sheet.133</title>
					<g id="shape134-169">
						<title>Sheet.134</title>
						<path d="M35.57 605.36 C32.19 607.95 28.2 609.21 24.25 609.21 C18.63 609.21 13.08 606.69 9.41 601.89 C3.14
									 593.7 4.69 582 12.89 575.72 C16.27 573.12 20.26 571.88 24.21 571.88 C29.84 571.88 35.38 574.4
									 39.06 579.2 C45.33 587.38 43.77 599.1 35.57 605.36 ZM41.27 577.49 C37.04 571.97 30.66 569.08
									 24.21 569.08 C19.68 569.08 15.07 570.52 11.18 573.5 C1.79 580.72 0 594.18 7.21 603.59 C11.42
									 609.11 17.81 612 24.25 612 C28.8 612 33.4 610.57 37.28 607.58 C46.68 600.37 48.47 586.9 41.27
									 577.49 Z" class="st8"/>
					</g>
				</g>
				<g id="group135-171" transform="translate(7.70281,-6.65497)">
					<title>Sheet.135</title>
					<g id="group136-172" transform="translate(0.531297,-0.267209)">
						<title>Sheet.136</title>
						<g id="group137-173" transform="translate(0.679652,4.54747E-13)">
							<title>Sheet.137</title>
							<g id="shape138-174">
								<title>Sheet.138</title>
								<path d="M5.62 601.36 C4.38 600.13 3.38 598.96 2.58 597.8 C0.79 601.46 0.15 605.23 0 608.23 C0.18
											 608.47 0.18 608.66 0.36 608.9 C1.25 610.04 2.38 611.13 3.47 612 C3.31 609.54 3.53 605.53
											 5.62 601.36 Z" class="st8"/>
							</g>
						</g>
						<g id="shape139-176" transform="translate(5.11724,-13.5919)">
							<title>Sheet.139</title>
							<path d="M7.67 600.65 C5.99 601.82 4.25 603.3 2.51 605.16 C1.55 606.17 0.72 607.21 0 608.26 C0.75 609.47
										 1.72 610.71 2.95 612 C3.88 610.7 5 609.39 6.37 608.11 C8.09 606.5 9.71 605.21 11.23 604.17
										 C9.99 603.02 8.79 601.85 7.67 600.65 Z" class="st8"/>
						</g>
						<g id="group140-178" transform="translate(15.4431,-23.0077)">
							<title>Sheet.140</title>
							<g id="shape141-179">
								<title>Sheet.141</title>
								<path d="M15.18 608.86 C14.37 607.82 13.46 606.92 12.5 606.1 C9.61 605.66 5.13 605.7 0 608.43 C1.18
											 609.69 2.34 610.88 3.48 612 C10.32 608.31 15.18 608.86 15.18 608.86 Z" class="st8"/>
							</g>
						</g>
						<g id="group142-181" transform="translate(-3.44724E-14,-14.2023)">
							<title>Sheet.142</title>
							<g id="shape143-182">
								<title>Sheet.143</title>
								<path d="M3.27 612 C3.79 610.96 4.41 609.91 5.12 608.87 C2.18 604.22 2.32 600.39 2.63 598.59 C1.9
											 599.36 1.22 600.16 0.62 601.02 C0.02 603.45 -0 607.33 3.27 612 Z" class="st8"/>
							</g>
						</g>
						<g id="group144-184" transform="translate(6.29756,-1.12074)">
							<title>Sheet.144</title>
							<g id="shape145-185">
								<title>Sheet.145</title>
								<path d="M5.31 602.75 C3.94 601.66 2.77 600.58 1.77 599.52 C1.06 600.51 0.48 601.5 0 602.48 C0.94
											 603.43 2.01 604.38 3.24 605.36 C10.89 611.43 18.5 612 22.77 612 C23.05 612 24.39 610.19
											 25.16 609.06 C23.25 609.45 15.08 610.49 5.31 602.75 Z" class="st8"/>
							</g>
						</g>
						<g id="group146-187" transform="translate(3.26948,-10.6447)">
							<title>Sheet.146</title>
							<g id="shape147-188">
								<title>Sheet.147</title>
								<path d="M0 608.44 C0.8 609.59 1.79 610.77 3.03 612 C3.51 611.03 4.1 610.04 4.8 609.05 C3.57 607.76
											 2.6 606.52 1.85 605.31 C1.13 606.35 0.52 607.4 0 608.44 Z" class="st8"/>
							</g>
						</g>
						<g id="group148-190" transform="translate(16.3514,-8.05994)">
							<title>Sheet.148</title>
							<g id="shape149-191">
								<title>Sheet.149</title>
								<path d="M0 598.64 C6.98 605.08 15.23 610.57 17.34 612 C17.55 611.47 17.69 610.95 17.84 610.4 C15.59
											 608.73 9.66 604.11 2.57 597.06 C1.75 597.5 0.89 598.03 0 598.64 Z" class="st8"/>
							</g>
						</g>
						<g id="group150-193" transform="translate(7.75217,-24.9391)">
							<title>Sheet.150</title>
							<g id="shape151-194">
								<title>Sheet.151</title>
								<path d="M7.69 610.35 C5.98 608.57 4.24 606.65 2.47 604.6 C1.62 604.87 0.8 605.21 0 605.6 C1.3 607.74
											 3.06 609.9 5.04 612 C5.94 611.37 6.81 610.82 7.69 610.35 Z" class="st8"/>
							</g>
						</g>
						<g id="shape152-196" transform="translate(12.649,-21.2734)">
							<title>Sheet.152</title>
							<path d="M2.9 606.64 C2.03 607.11 0.89 607.8 0 608.43 C1.11 609.62 2.25 610.85 3.49 612 C4.39 611.39
										 5.58 610.66 6.4 610.2 C5.26 609.1 4.08 607.9 2.9 606.64 Z" class="st8"/>
						</g>
						<g id="shape153-198" transform="translate(12.6479,-21.2031)">
							<title>Sheet.153</title>
							<path d="M2.59 606.4 C1.71 606.87 0.89 607.48 0 608.11 C1.11 609.3 2.7 610.85 3.94 612 C4.84 611.39 5.58
										 610.78 6.4 610.32 C5.26 609.22 3.77 607.67 2.59 606.4 Z" class="st8"/>
						</g>
					</g>
					<g id="group154-200" transform="translate(23.1008,-9.44279)">
						<title>Sheet.154</title>
						<g id="shape155-201">
							<title>Sheet.155</title>
							<path d="M2.09 604.3 C0.34 605.64 -0 608.16 1.34 609.91 C2.7 611.68 5.22 612 6.98 610.67 C8.73 609.33
										 9.07 606.81 7.73 605.05 C6.37 603.3 3.86 602.94 2.09 604.3 Z" class="st8"/>
						</g>
					</g>
					<g id="group156-203" transform="translate(15.0014,-3.41061E-13)">
						<title>Sheet.156</title>
						<g id="shape157-204">
							<title>Sheet.157</title>
							<path d="M1.93 604.87 C0.3 606.11 0 608.45 1.23 610.07 C2.48 611.7 4.81 612 6.45 610.76 C8.07 609.52
										 8.37 607.19 7.13 605.57 C5.89 603.93 3.56 603.63 1.93 604.87 Z" class="st8"/>
						</g>
					</g>
					<g id="group158-206" transform="translate(0,-8.12206)">
						<title>Sheet.158</title>
						<g id="shape159-207">
							<title>Sheet.159</title>
							<path d="M2.94 601.16 C0.47 603.06 0 606.58 1.89 609.05 C3.79 611.53 7.33 612 9.8 610.1 C12.27 608.21
										 12.74 604.68 10.85 602.19 C8.95 599.74 5.41 599.26 2.94 601.16 Z" class="st8"/>
						</g>
					</g>
				</g>
			</g>
			<g id="shape130-209">
				<text x="2.85" y="631.65" class="st9">API App</text>			</g>
		</g>
		<g id="group161-211" transform="translate(346.878,-388.265)">
			<title>Sheet.161</title>
		</g>
		<g id="shape172-212" transform="translate(936.559,128.656) rotate(81.7043)">
			<title>Sheet.172</title>
			<path d="M0 601.22 A54.4741 33.7898 -19.98 0 0 64.89 604.18 L65.21 604.02" class="st18"/>
		</g>
		<g id="shape205-218" transform="translate(497.177,-314.583)">
			<title>Sheet.205</title>
			<path d="M0 612 C4.45 612 8.61 612 12.7 612 C19.96 612 27 612 34.89 612" class="st20"/>
		</g>
		<g id="group206-224" transform="translate(474.45,-429.347)">
			<title>Azure Cache including Redis (opaque)</title>
			<desc>Redis cache</desc>
			<g id="group207-225">
				<title>Sheet.207</title>
				<g id="group208-226" transform="translate(-1.85851E-13,-0.360814)">
					<title>Sheet.208</title>
					<g id="shape209-227">
						<title>Sheet.209</title>
						<path d="M14.09 609.81 L14.09 585.1 C14.09 582.03 18.91 580.6 25.95 580.6 C27.57 580.6 29.09 580.69 30.51
									 580.88 L30.51 575.41 C30.51 572.76 23.68 570.6 15.25 570.6 C6.83 570.6 0 572.76 0 575.41 L0
									 607.18 C0 609.84 6.83 612 15.25 612 L16.29 611.97 C14.91 611.37 14.09 610.62 14.09 609.81 Z"
								class="st12"/>
					</g>
				</g>
				<g id="group210-229" transform="translate(15.8842,2.27374E-13)">
					<title>Sheet.210</title>
					<g id="shape211-230">
						<title>Sheet.211</title>
						<path d="M10.58 582.19 C4.52 582.19 0 582.03 0 585.59 L0 608.46 C0 610.38 4.52 612 10.58 612 C16.64 612 21.56
									 610.44 21.56 608.53 L21.56 585.66 C21.56 583.74 16.64 582.19 10.58 582.19 Z" class="st12"/>
					</g>
				</g>
			</g>
			<g id="group212-232">
				<title>Sheet.212</title>
				<g id="group213-233" transform="translate(-1.85851E-13,-0.360814)">
					<title>Sheet.213</title>
					<g id="shape214-234">
						<title>Sheet.214</title>
						<path d="M4.95 575.41 C4.95 573.99 9.56 572.82 15.25 572.82 C20.93 572.82 25.53 573.99 25.53 575.41 C25.53
									 576.84 20.93 578 15.25 578 C9.56 578 4.95 576.84 4.95 575.41 ZM14.09 609.81 L14.09 585.1 C14.09
									 582.03 18.91 580.6 25.95 580.6 C27.57 580.6 29.09 580.69 30.51 580.88 L30.51 575.41 C30.51 572.76
									 23.68 570.6 15.25 570.6 C6.83 570.6 0 572.76 0 575.41 L0 607.18 C0 609.84 6.83 612 15.25 612
									 L16.29 611.97 C14.91 611.37 14.09 610.62 14.09 609.81 Z" class="st8"/>
					</g>
				</g>
				<g id="group215-236" transform="translate(15.8842,2.27374E-13)">
					<title>Sheet.215</title>
					<g id="shape216-237">
						<title>Sheet.216</title>
						<path d="M10.58 588.11 C6.5 588.11 3.17 587.27 3.17 586.23 C3.17 585.22 6.5 584.37 10.58 584.37 C14.67 584.37
									 17.98 585.22 17.98 586.23 C17.98 587.27 14.67 588.11 10.58 588.11 ZM17.01 598.45 L3.47 609.67
									 L8.7 601.01 L4.15 601.01 L17.68 589.79 L12.46 598.45 L17.01 598.45 ZM10.58 582.19 C4.52 582.19
									 0 583.67 0 585.59 L0 608.46 C0 610.38 4.52 612 10.58 612 C16.64 612 21.56 610.44 21.56 608.53
									 L21.56 585.66 C21.56 583.74 16.64 582.19 10.58 582.19 Z" class="st8"/>
					</g>
				</g>
			</g>
			<g id="shape206-239">
				<text x="-12.31" y="627.53" class="st9">Redis cache</text>			</g>
		</g>
		<g id="shape217-241" transform="translate(-198.814,184.374) rotate(-80.3093)">
			<title>Sheet.217</title>
			<path d="M-0 600.06 A55.6096 36.9248 -24.58 0 0 65.51 603.26 L65.83 603.08" class="st18"/>
		</g>
		<g id="group221-246" transform="translate(649.7,-468.843)">
			<title>DocumentDB (opaque)</title>
			<desc>Cosmos DB</desc>
			<g id="group222-247">
				<title>MySQL database (stackable)</title>
				<g id="shape223-248">
					<title>Sheet.223</title>
					<path d="M14.92 571.58 C6.68 571.58 0 574.38 0 577.48 L0 605.38 C0 608.47 6.68 612 14.92 612 C23.16 612 29.84
								 608.61 29.84 605.52 L29.84 577.63 C29.84 574.54 23.16 571.58 14.92 571.58 Z" class="st12"/>
				</g>
			</g>
			<g id="group224-250" transform="translate(0,-0.91727)">
				<title>Sheet.224</title>
				<g id="shape225-251">
					<title>Sheet.225</title>
					<path d="M14.92 573.21 C6.63 573.21 0 575.98 0 578.96 L0 606.14 C0 609.13 6.74 612 14.92 612 C23.21 612 29.84
								 609.35 29.84 606.25 L29.84 579.07 C29.84 576.09 23.1 573.21 14.92 573.21 ZM0.33 607.36 L0.33 607.03
								 C0.33 607.14 0.33 607.25 0.33 607.36 ZM10.61 590.45 C9.61 590.45 9.17 590.12 9.17 591.22 L9.17 593.32
								 C9.17 594.87 8.95 595.87 7.85 596.2 L7.85 596.31 C8.95 596.75 9.17 597.97 9.17 599.84 L9.17 602.28
								 C9.17 603.05 9.28 603.05 9.5 603.38 C9.72 603.71 10.06 603.71 10.61 603.71 L10.61 604.38 L10.61
								 605.81 C9.06 605.81 7.96 605.48 7.29 604.93 C6.63 604.38 6.3 603.27 6.3 601.72 L6.3 599.07 C6.3
								 597.63 5.75 597.63 4.86 597.63 L4.86 594.87 C5.86 594.87 6.3 594.87 6.3 593.66 L6.3 591.56 C6.3
								 590.23 6.63 589.35 7.29 588.9 C7.96 588.35 9.06 588.13 10.61 588.13 L10.61 590.45 ZM25.31 595.53
								 L25.31 597.74 C24.31 597.74 23.87 597.74 23.87 599.18 L23.87 601.72 C23.87 603.27 23.54 604.38 22.87
								 605.04 C22.21 605.59 21.11 605.92 19.45 605.92 L19.45 603.82 C19.89 603.82 20.33 603.71 20.55 603.49
								 C20.78 603.16 20.89 603.16 20.89 602.39 L20.89 599.95 C20.89 598.08 21.22 596.97 22.32 596.42 L22.32
								 596.31 C21.22 595.98 20.89 594.98 20.89 593.32 L20.89 591.34 C20.89 590.23 20.33 590.56 19.45 590.56
								 L19.45 588.24 C21 588.24 22.1 588.57 22.76 589.01 C23.43 589.57 23.87 590.45 23.87 591.67 L23.87
								 593.77 C23.87 594.98 24.31 594.87 25.31 594.87 L25.31 595.53 ZM14.92 581.61 C9.06 581.61 4.31 580.17
								 4.31 578.41 C4.31 576.64 9.06 575.2 14.92 575.2 C20.78 575.2 25.53 576.64 25.53 578.41 C25.53 580.28
								 20.78 581.61 14.92 581.61 Z" class="st14"/>
				</g>
			</g>
			<g id="shape221-253">
				<text x="-14.29" y="623.89" class="st9">Cosmos DB</text>			</g>
		</g>
		<g id="group1012-255" transform="translate(374.774,-417.519)">
			<title>Sheet.1012</title>
			<g id="shape1013-256" transform="translate(24.2148,-6.81775)">
				<title>Sheet.1013</title>
				<path d="M1.53 608.71 C1.41 608.59 1.29 608.59 1.18 608.59 L1.18 607.77 L1.18 607.06 C1.18 606.83 0.94 606.59 0.59
							 606.48 C0.24 606.48 0 606.71 0 607.06 L0 609.3 C0 609.41 -0 609.41 0.12 609.41 C0.12 609.53 0.24 609.65
							 0.35 609.77 L2.59 611.76 C2.82 612 3.29 612 3.53 611.76 L3.64 611.65 C3.88 611.41 3.88 610.94 3.64 610.71
							 L1.53 608.71 Z" class="st21"/>
			</g>
			<g id="shape1014-258" transform="translate(20.1006,-9.40379)">
				<title>Sheet.1014</title>
				<path d="M0.24 611.53 C0.12 611.53 0 611.65 0 611.76 C0 611.88 0.12 612 0.24 612 C0.35 612 0.47 611.88 0.47 611.76
							 C0.47 611.65 0.35 611.53 0.24 611.53 Z" class="st21"/>
			</g>
			<g id="shape1015-260" transform="translate(24.5674,-13.8706)">
				<title>Sheet.1015</title>
				<path d="M0.24 612 C0.35 612 0.47 611.88 0.47 611.76 C0.47 611.65 0.35 611.53 0.24 611.53 C0.12 611.53 0 611.65 0
							 611.76 C-0 611.88 0.12 612 0.24 612 Z" class="st21"/>
			</g>
			<g id="shape1016-262" transform="translate(29.3868,-9.63889)">
				<title>Sheet.1016</title>
				<path d="M0 611.76 C0 611.88 0.12 612 0.24 612 C0.35 612 0.47 611.88 0.47 611.76 C0.47 611.65 0.35 611.53 0.24 611.53
							 C0.12 611.53 0 611.65 0 611.76 Z" class="st21"/>
			</g>
			<g id="shape1017-264" transform="translate(24.3323,-4.58435)">
				<title>Sheet.1017</title>
				<path d="M0.24 611.53 C0.12 611.53 0 611.65 0 611.76 C0 611.88 0.12 612 0.24 612 C0.35 612 0.47 611.88 0.47 611.76
							 C0.47 611.65 0.35 611.53 0.24 611.53 Z" class="st21"/>
			</g>
			<g id="shape1018-266" transform="translate(15.6338,0)">
				<title>Sheet.1018</title>
				<path d="M16.69 602.24 C16.69 602.01 16.69 601.89 16.69 601.66 L18.45 600.6 C18.34 600.01 18.22 599.42 17.98 598.83
							 C17.98 598.83 17.98 598.83 17.98 598.83 L15.99 598.95 C15.87 598.72 15.75 598.48 15.52 598.25 C15.52
							 598.25 15.4 598.13 15.4 598.13 C15.4 598.13 15.4 598.13 15.4 598.13 L16.46 596.37 C16.34 596.25 16.1
							 596.01 15.99 595.9 C15.75 595.66 15.4 595.43 15.16 595.19 L13.4 596.25 C13.05 596.01 12.81 595.9 12.46
							 595.78 L12.46 594.84 L12.46 593.78 C12.46 593.78 12.46 593.78 12.46 593.78 C11.87 593.55 11.28 593.43
							 10.7 593.31 L9.76 595.19 C9.64 595.19 9.4 595.19 9.29 595.19 C9.05 595.19 8.93 595.19 8.7 595.19 L7.64
							 593.43 C7.05 593.55 6.47 593.66 5.88 593.9 C5.88 593.9 5.88 593.9 5.88 593.9 L5.99 595.9 C5.64 596.01
							 5.41 596.25 5.05 596.48 L3.29 595.43 C3.06 595.66 2.7 595.9 2.47 596.25 C2.35 596.37 2.12 596.6 2 596.72
							 L2.59 597.78 L3.06 598.48 C2.82 598.83 2.7 599.07 2.59 599.42 L0.47 599.42 C0.24 600.01 0.12 600.6 0
							 601.19 L1.88 602.13 C1.88 602.36 1.88 602.48 1.88 602.71 C1.88 602.95 1.88 603.07 1.88 603.3 L0.12 604.36
							 C0.24 604.95 0.35 605.53 0.59 606.12 C0.59 606.12 0.59 606.12 0.59 606.12 L1.65 606.12 L2.59 606.12
							 C2.7 606.48 2.94 606.71 3.17 607.06 L2.12 608.83 C2.47 609.18 2.7 609.53 3.06 609.77 C3.17 609.88 3.29
							 609.88 3.41 610 L4.47 609.41 L5.17 608.94 C5.52 609.18 5.76 609.3 6.11 609.41 L6.11 611.53 C6.7 611.76
							 7.29 611.88 7.88 612 L8.82 610.24 C9.05 610.24 9.17 610.24 9.4 610.24 C9.64 610.24 9.76 610.24 9.99
							 610.24 L10.46 610.94 L11.05 612 C11.64 611.88 12.22 611.76 12.81 611.53 C12.81 611.53 12.81 611.53 12.81
							 611.53 L12.81 610.47 L12.81 609.53 C13.05 609.41 13.4 609.3 13.64 609.06 C13.64 609.06 13.64 609.06
							 13.64 609.06 C13.64 609.06 13.64 609.06 13.75 609.06 L15.52 610.12 C15.75 610 15.87 609.77 16.1 609.53
							 C16.34 609.3 16.57 609.06 16.81 608.83 L15.75 607.06 C15.75 607.06 15.75 607.06 15.75 606.95 C15.75
							 606.95 15.75 606.95 15.75 606.95 C15.87 606.71 16.1 606.36 16.22 606.12 L17.16 606.12 L18.22 606.12
							 C18.22 606.12 18.22 606.12 18.22 606.12 C18.45 605.53 18.57 604.95 18.69 604.36 L16.81 603.42 C16.69
							 602.6 16.69 602.48 16.69 602.24 ZM10.34 608 C9.99 608.12 9.76 608.12 9.4 608.12 C8.11 608.12 6.82 607.77
							 5.88 606.95 C4.47 605.89 3.64 604.24 3.64 602.48 C3.64 601.19 4.11 599.89 4.82 598.95 C5.88 597.54 7.41
							 596.72 9.29 596.72 C11.4 596.72 13.17 597.78 14.22 599.42 C14.81 600.25 15.05 601.3 15.05 602.36 C15.05
							 605.06 13.05 607.42 10.34 608 Z" class="st21"/>
			</g>
			<g id="shape1019-268" transform="translate(33.1484,-6.7002)">
				<title>Sheet.1019</title>
				<path d="M11.99 606.59 L10.7 605.77 L10.58 604.71 L11.75 603.3 L11.05 602.01 L10.81 602.01 L9.29 602.36 L8.46 601.77
							 L8.35 600.01 L6.94 599.66 L6.82 599.89 L5.99 601.19 L4.94 601.3 L3.53 600.13 L2.35 600.83 L2.35 601.07
							 L2.7 602.6 L2.12 603.42 L0.35 603.54 L0 604.95 L0.24 605.06 L1.53 605.89 L1.65 606.95 L0.59 608.24 C0.71
							 608.47 0.71 608.71 0.82 608.94 L1.18 609.65 L1.41 609.65 L2.94 609.3 L3.76 609.88 L3.88 611.65 L5.29
							 612 L5.41 611.76 L6.23 610.47 L7.29 610.35 L8.7 611.53 L9.87 610.82 L9.87 610.59 L9.52 609.06 L10.11
							 608.24 L11.99 608.12 L12.34 606.71 L11.99 606.59 ZM7.88 606.36 C7.64 607.42 6.47 608 5.41 607.77 C4.35
							 607.53 3.76 606.36 4 605.3 C4.23 604.24 5.41 603.54 6.47 603.89 C7.52 604.24 8.11 605.3 7.88 606.36
							 Z" class="st21"/>
			</g>
			<g id="shape1020-270" transform="translate(0,-5.75982)">
				<title>Sheet.1020</title>
				<desc>WebJob</desc>
				<path d="M44.43 600.83 L45.14 602.01 C46.67 598.83 46.67 597.19 46.9 596.37 C48.19 590.25 46.9 583.55 42.79 578.26
							 C38.44 572.5 31.74 569.57 25.16 569.57 C20.45 569.57 15.63 571.09 11.64 574.15 C1.88 581.67 0 595.54
							 7.52 605.3 C9.76 608.24 12.7 610.47 15.99 612 L15.28 609.65 L16.46 609.06 C15.28 608.47 14.11 607.65
							 12.93 606.83 C12.81 604.71 12.93 601.54 14.22 598.01 C15.16 598.13 15.99 597.89 16.93 597.54 C17.4 598.01
							 17.98 598.48 18.45 598.83 C18.93 599.19 20.34 600.13 21.28 600.72 L21.28 599.19 L23.98 598.36 C22.33
							 597.31 20.92 596.25 20.69 596.13 C20.34 595.9 19.98 595.54 19.63 595.31 C20.69 593.55 20.81 591.31 19.87
							 589.43 C20.1 589.2 20.34 588.96 20.57 588.73 C22.33 587.08 23.98 585.67 25.63 584.61 L33.03 590.84 C32.44
							 592.25 32.44 593.9 33.5 595.07 C34.91 596.95 37.5 597.19 39.38 595.9 C39.5 595.78 39.5 595.78 39.61
							 595.66 C41.14 596.72 42.67 597.78 43.49 598.36 L42.55 601.07 L42.9 601.3 L44.43 600.83 ZM9.29 602.71
							 C4.58 596.01 4.7 587.2 9.17 580.73 C8.7 582.61 8.58 585.32 9.99 588.49 C8.46 590.49 8.35 593.43 9.99
							 595.54 C10.11 595.66 10.23 595.9 10.46 596.01 C9.76 598.36 9.4 600.72 9.29 602.71 ZM21.86 580.85 C20.1
							 582.03 18.34 583.55 16.46 585.55 C16.22 585.79 15.99 586.02 15.75 586.26 C14.69 586.02 13.64 586.14
							 12.58 586.49 C10.81 582.73 10.93 579.79 11.17 578.15 C11.87 577.44 12.46 576.85 13.28 576.27 C14.34
							 575.44 15.4 574.86 16.57 574.27 C17.98 576.5 19.87 578.73 21.86 580.85 ZM24.57 579.2 C24.57 579.2 24.57
							 579.2 24.57 579.2 C24.57 579.2 24.57 579.2 24.57 579.2 C22.8 577.32 21.04 575.44 19.16 573.33 C21.04
							 572.74 23.04 572.39 25.04 572.39 C29.5 572.39 33.85 573.91 37.38 576.85 C34.56 576.27 29.86 576.38 24.57
							 579.2 ZM43.85 596.6 C43.02 596.01 41.96 595.19 40.55 594.02 C41.02 592.72 40.91 591.19 39.97 590.02
							 C38.67 588.37 36.44 587.9 34.56 588.96 C32.56 587.2 30.44 585.2 28.09 582.85 C34.91 579.2 39.73 579.56
							 40.2 579.56 C40.32 579.67 40.32 579.79 40.44 579.79 C44.32 584.85 45.37 590.96 43.85 596.6 Z"
						class="st22"/>
				<path d="M44.43 600.83 L45.14 602.01 C46.67 598.83 46.67 597.19 46.9 596.37 C48.19 590.25 46.9 583.55 42.79 578.26
							 C38.44 572.5 31.74 569.57 25.16 569.57 C20.45 569.57 15.63 571.09 11.64 574.15 C1.88 581.67 0 595.54
							 7.52 605.3 C9.76 608.24 12.7 610.47 15.99 612 L15.28 609.65 L16.46 609.06 C15.28 608.47 14.11 607.65
							 12.93 606.83 C12.81 604.71 12.93 601.54 14.22 598.01 C15.16 598.13 15.99 597.89 16.93 597.54 C17.4 598.01
							 17.98 598.48 18.45 598.83 C18.93 599.19 20.34 600.13 21.28 600.72 L21.28 599.19 L23.98 598.36 C22.33
							 597.31 20.92 596.25 20.69 596.13 C20.34 595.9 19.98 595.54 19.63 595.31 C20.69 593.55 20.81 591.31 19.87
							 589.43 C20.1 589.2 20.34 588.96 20.57 588.73 C22.33 587.08 23.98 585.67 25.63 584.61 L33.03 590.84 C32.44
							 592.25 32.44 593.9 33.5 595.07 C34.91 596.95 37.5 597.19 39.38 595.9 C39.5 595.78 39.5 595.78 39.61
							 595.66 C41.14 596.72 42.67 597.78 43.49 598.36 L42.55 601.07 L42.9 601.3M9.29 602.71 C4.58 596.01 4.7
							 587.2 9.17 580.73 C8.7 582.61 8.58 585.32 9.99 588.49 C8.46 590.49 8.35 593.43 9.99 595.54 C10.11 595.66
							 10.23 595.9 10.46 596.01 C9.76 598.36 9.4 600.72 9.29 602.71M21.86 580.85 C20.1 582.03 18.34 583.55
							 16.46 585.55 C16.22 585.79 15.99 586.02 15.75 586.26 C14.69 586.02 13.64 586.14 12.58 586.49 C10.81
							 582.73 10.93 579.79 11.17 578.15 C11.87 577.44 12.46 576.85 13.28 576.27 C14.34 575.44 15.4 574.86 16.57
							 574.27 C17.98 576.5 19.87 578.73 21.86 580.85M24.57 579.2 C24.57 579.2 24.57 579.2 24.57 579.2 C24.57
							 579.2 24.57 579.2 24.57 579.2 C22.8 577.32 21.04 575.44 19.16 573.33 C21.04 572.74 23.04 572.39 25.04
							 572.39 C29.5 572.39 33.85 573.91 37.38 576.85 C34.56 576.27 29.86 576.38 24.57 579.2M43.85 596.6 C43.02
							 596.01 41.96 595.19 40.55 594.02 C41.02 592.72 40.91 591.19 39.97 590.02 C38.67 588.37 36.44 587.9 34.56
							 588.96 C32.56 587.2 30.44 585.2 28.09 582.85 C34.91 579.2 39.73 579.56 40.2 579.56 C40.32 579.67 40.32
							 579.79 40.44 579.79 C44.32 584.85 45.37 590.96 43.85 596.6" class="st23"/>
				<text x="2.64" y="632.13" class="st9">WebJob</text>			</g>
		</g>
		<g id="shape1024-274" transform="translate(130.5,-444.074)">
			<title>Sheet.1024</title>
			<path d="M0 612 L102.56 612" class="st3"/>
		</g>
		<g id="group1044-279" transform="translate(358.264,-249.456)">
			<title>Storage (Azure) (opaque).421</title>
			<g id="shape1045-280" transform="translate(0,1196.97) scale(1,-1)">
				<title>Sheet.1045</title>
				<path d="M26.84 601.47 L24.77 601.47 L24.77 611.06 C24.77 611.56 24.33 612 23.83 612 L0.94 612 C0.44 612 0 611.56
							 0 611.06 L0 591.81 C-0 591.31 0.44 590.87 0.94 590.87 L13.98 590.87 L17.37 584.97 L26.84 584.97 L31.54
							 593.25 L26.84 601.47 Z" class="st13"/>
			</g>
			<g id="shape1046-282" transform="translate(0,1196.97) scale(1,-1)">
				<title>Sheet.1046</title>
				<path d="M26.84 601.47 L24.77 601.47 L24.77 611.06 C24.77 611.56 24.33 612 23.83 612 L0.94 612 C0.44 612 0 611.56
							 0 611.06 L0 591.81 C-0 591.31 0.44 590.87 0.94 590.87 L13.98 590.87 L17.37 584.97 L26.84 584.97 L31.54
							 593.25 L26.84 601.47 ZM18.37 606.48 L22.95 606.48 L22.95 603.72 L18.37 603.72 L18.37 606.48 ZM22.95
							 602.85 L22.95 601.47 L18.37 601.47 L18.37 602.85 L22.95 602.85 ZM12.92 606.48 L17.49 606.48 L17.49 603.72
							 L12.92 603.72 L12.92 606.48 ZM12.92 602.85 L17.49 602.85 L17.49 601.47 L17.37 601.47 L16.55 600.09 L12.85
							 600.09 L12.85 602.85 L12.92 602.85 ZM12.92 599.15 L16.05 599.15 L14.48 596.39 L12.92 596.39 L12.92 599.15
							 ZM13.92 595.51 L12.85 593.69 L12.85 595.51 L13.92 595.51 ZM6.46 592.75 L1.88 592.75 L1.88 595.51 L6.46
							 595.51 L6.46 592.75 ZM6.46 596.39 L1.88 596.39 L1.88 599.15 L6.46 599.15 L6.46 596.39 ZM6.46 600.09
							 L1.88 600.09 L1.88 602.85 L6.46 602.85 L6.46 600.09 ZM6.46 603.72 L1.88 603.72 L1.88 606.48 L6.46 606.48
							 L6.46 603.72 ZM11.98 592.75 L7.4 592.75 L7.4 595.51 L11.98 595.51 L11.98 592.75 ZM11.98 596.39 L7.4
							 596.39 L7.4 599.15 L11.98 599.15 L11.98 596.39 ZM11.98 600.09 L7.4 600.09 L7.4 602.85 L11.98 602.85
							 L11.98 600.09 ZM11.98 603.72 L7.4 603.72 L7.4 606.48 L11.98 606.48 L11.98 603.72 ZM12.92 592.75 L12.92
							 592.81 L12.92 592.75 Z" class="st14"/>
			</g>
		</g>
		<g id="group1047-284" transform="translate(448.86,-249.456)">
			<title>Storage (Azure) (opaque).1047</title>
			<g id="shape1048-285" transform="translate(0,1196.97) scale(1,-1)">
				<title>Sheet.1048</title>
				<path d="M26.84 601.47 L24.77 601.47 L24.77 611.06 C24.77 611.56 24.33 612 23.83 612 L0.94 612 C0.44 612 0 611.56
							 0 611.06 L0 591.81 C-0 591.31 0.44 590.87 0.94 590.87 L13.98 590.87 L17.37 584.97 L26.84 584.97 L31.54
							 593.25 L26.84 601.47 Z" class="st13"/>
			</g>
			<g id="shape1049-287" transform="translate(0,1196.97) scale(1,-1)">
				<title>Sheet.1049</title>
				<path d="M26.84 601.47 L24.77 601.47 L24.77 611.06 C24.77 611.56 24.33 612 23.83 612 L0.94 612 C0.44 612 0 611.56
							 0 611.06 L0 591.81 C-0 591.31 0.44 590.87 0.94 590.87 L13.98 590.87 L17.37 584.97 L26.84 584.97 L31.54
							 593.25 L26.84 601.47 ZM18.37 606.48 L22.95 606.48 L22.95 603.72 L18.37 603.72 L18.37 606.48 ZM22.95
							 602.85 L22.95 601.47 L18.37 601.47 L18.37 602.85 L22.95 602.85 ZM12.92 606.48 L17.49 606.48 L17.49 603.72
							 L12.92 603.72 L12.92 606.48 ZM12.92 602.85 L17.49 602.85 L17.49 601.47 L17.37 601.47 L16.55 600.09 L12.85
							 600.09 L12.85 602.85 L12.92 602.85 ZM12.92 599.15 L16.05 599.15 L14.48 596.39 L12.92 596.39 L12.92 599.15
							 ZM13.92 595.51 L12.85 593.69 L12.85 595.51 L13.92 595.51 ZM6.46 592.75 L1.88 592.75 L1.88 595.51 L6.46
							 595.51 L6.46 592.75 ZM6.46 596.39 L1.88 596.39 L1.88 599.15 L6.46 599.15 L6.46 596.39 ZM6.46 600.09
							 L1.88 600.09 L1.88 602.85 L6.46 602.85 L6.46 600.09 ZM6.46 603.72 L1.88 603.72 L1.88 606.48 L6.46 606.48
							 L6.46 603.72 ZM11.98 592.75 L7.4 592.75 L7.4 595.51 L11.98 595.51 L11.98 592.75 ZM11.98 596.39 L7.4
							 596.39 L7.4 599.15 L11.98 599.15 L11.98 596.39 ZM11.98 600.09 L7.4 600.09 L7.4 602.85 L11.98 602.85
							 L11.98 600.09 ZM11.98 603.72 L7.4 603.72 L7.4 606.48 L11.98 606.48 L11.98 603.72 ZM12.92 592.75 L12.92
							 592.81 L12.92 592.75 Z" class="st14"/>
			</g>
		</g>
		<g id="shape1069-289" transform="translate(-151.165,377.393) rotate(-90)">
			<title>Left Parenthesis.1069</title>
			<desc>Storage Accounts</desc>
			<path d="M16.58 612 A17.6943 24.8333 0 0 1 0 593.38 L0 444.46 A17.6943 24.8333 0 0 1 16.58 425.84" class="st24"/>
			<text x="474.53" y="11.77" transform="rotate(90)" class="st9">Storage Accounts</text>		</g>
		<g id="shape1070-293" transform="translate(-504.869,144.798) rotate(-90)">
			<title>Sheet.1070</title>
			<desc>Authentication</desc>
			<path d="M0 612 C5 612 9.66 612 14.25 612 C22.5 612 30.49 612 39.47 612" class="st1"/>
			<rect x="619.745" y="-31.54" width="69.9434" height="13.2001" transform="rotate(90)" class="st25"/>
			<text x="619.74" y="-21.64" transform="rotate(90)" class="st26">Authentication</text>		</g>
		<g id="shape1071-300" transform="translate(719.131,180.894) rotate(90)">
			<title>Sheet.1071</title>
			<desc>Name resolution</desc>
			<path d="M0 612 C5 612 9.66 612 14.25 612 C22.5 612 30.49 612 39.47 612" class="st1"/>
			<rect x="-597.119" y="6.75897" width="46.9495" height="26.4001" transform="rotate(-90)" class="st25"/>
			<text x="-588.15" y="16.66" transform="rotate(-90)" class="st26">Name<tspan x="-597.12" dy="1.2em" class="st10">resolution</tspan></text>		</g>
		<g id="shape1072-308" transform="translate(78.9281,-431.757)">
			<title>Internet white (opaque)</title>
			<desc>Internet</desc>
			<path d="M49.03 612 L8.53 612 C3.83 612 0 607.68 0 602.38 C0 597.06 3.83 592.74 8.53 592.74 C8.86 592.74 9.19 592.77
						 9.54 592.82 C10.94 590.31 13.37 588.77 16 588.77 C16.72 588.77 17.44 588.89 18.15 589.14 C18.15 589.02 18.15
						 588.91 18.15 588.8 C18.15 582.57 22.63 577.49 28.15 577.49 C32.02 577.49 35.52 580.08 37.14 584.04 C38.58
						 583.12 40.19 582.63 41.85 582.63 C47.16 582.63 51.48 587.51 51.48 593.5 C51.48 594.09 51.44 594.68 51.35
						 595.29 C54.2 596.65 56.07 599.77 56.07 603.28 C56.07 607.34 53.61 610.79 50.19 611.76 L49.03 612 Z"
					class="st27"/>
			<text x="12.07" y="606.49" class="st28">Internet</text>		</g>
		<g id="group1073-311" transform="translate(89.8785,-515.689)">
			<title>Azure Active Directory (opaque)</title>
			<desc>Azure Active Directory</desc>
			<g id="shape1074-312">
				<title>Sheet.1074</title>
				<path d="M17.29 577.49 L0 597.99 L17.2 612 L34.51 598.06 L17.29 577.49 Z" class="st12"/>
			</g>
			<g id="group1075-314">
				<title>Sheet.1075</title>
				<g id="group1076-315" transform="translate(10.2584,-10.3254)">
					<title>Sheet.1076</title>
					<g id="shape1077-316">
						<title>Sheet.1077</title>
						<path d="M5.74 600.99 L0 606.27 C0.26 606.7 0.4 607.18 0.4 607.67 C0.4 607.93 0.36 608.17 0.29 608.42 L6.22
									 612 L6.22 601.65 C6.14 601.62 5.8 601.03 5.74 600.99 Z" class="st8"/>
					</g>
				</g>
				<g id="group1078-318" transform="translate(17.7657,-10.3213)">
					<title>Sheet.1078</title>
					<g id="shape1079-319">
						<title>Sheet.1079</title>
						<path d="M1.14 600.88 C1.04 600.93 0.1 601.65 0 601.71 L0 612 L5.91 608.21 C5.85 608.02 5.84 607.82 5.84
									 607.63 C5.84 607.3 5.91 606.97 6.02 606.64 L1.14 600.88 Z" class="st8"/>
					</g>
				</g>
				<g id="shape1080-321">
					<title>Sheet.1080</title>
					<path d="M17.29 577.49 L0 597.99 L17.2 612 L34.51 598.06 L17.29 577.49 ZM26.37 600.07 C25.62 600.07 24.89 599.77
								 24.38 599.22 L19.64 602.59 C19.95 603.03 20.1 603.55 20.1 604.1 C20.1 605.63 18.85 606.86 17.32
								 606.86 C15.81 606.86 14.56 605.63 14.56 604.1 C14.56 603.42 14.81 602.8 15.24 602.31 L9.76 599.37
								 C9.26 599.85 8.59 600.11 7.9 600.11 C6.37 600.11 5.12 598.88 5.12 597.35 C5.12 595.82 6.37 594.58
								 7.9 594.58 C8.36 594.58 8.79 594.69 9.19 594.91 L14.92 589.61 C14.52 589.09 14.3 588.45 14.3 587.8
								 C14.3 586.11 15.67 584.76 17.34 584.76 C19.03 584.76 20.39 586.11 20.39 587.8 C20.39 588.36 20.22
								 588.91 19.91 589.39 L24.74 595.09 C25.21 594.73 25.79 594.54 26.39 594.54 C27.92 594.54 29.16 595.77
								 29.16 597.3 C29.14 598.83 27.89 600.07 26.37 600.07 Z" class="st8"/>
				</g>
			</g>
			<g id="shape1073-323">
				<text x="-15.52" y="561.34" class="st9">Azure Active <tspan x="-6.72" dy="1.2em" class="st10">Directory</tspan></text>			</g>
		</g>
		<g id="group1081-326" transform="translate(89.8785,-349.806)">
			<title>DNS (opaque).1055</title>
			<desc>Azure DNS</desc>
			<g id="shape1082-327">
				<title>XMLID_18_</title>
				<path d="M17.25 612 L17.1 612 C12.62 612 8.37 610.2 5.08 606.99 L4.03 605.86 C3.96 605.79 3.88 605.71 3.88 605.64
							 L3.73 605.49 C1.34 602.49 0 598.68 0 594.86 C0 591.04 1.27 587.22 3.66 584.16 L3.73 584.01 L3.81 583.93
							 C3.81 583.86 3.88 583.86 3.96 583.78 L5.08 582.58 C8.29 579.37 12.47 577.57 17.1 577.49 L17.25 577.49
							 C21.88 577.49 26.14 579.29 29.43 582.58 L30.47 583.71 C30.55 583.78 30.62 583.86 30.62 583.93 L30.77
							 584.08 C33.16 587.08 34.51 590.89 34.51 594.71 C34.51 598.6 33.16 602.42 30.77 605.26 L30.62 605.41
							 C30.62 605.49 30.55 605.56 30.47 605.64 L29.43 606.76 C26.14 610.2 21.81 612 17.25 612 Z" class="st29"/>
			</g>
			<g id="group1083-329" transform="translate(0.67219,-0.598799)">
				<title>XMLID_3_</title>
				<g id="shape1084-330">
					<title>XMLID_9_</title>
					<path d="M33.09 595.53 C33.09 591.87 31.82 588.27 29.5 585.35 L29.35 585.2 C29.28 585.13 29.28 585.05 29.2 584.98
								 L28.16 583.86 C25.1 580.71 20.99 578.99 16.58 578.99 L16.43 578.99 C12.1 579.07 8.07 580.71 4.93
								 583.78 L3.81 584.98 C3.73 585.05 3.73 585.13 3.66 585.2 L3.51 585.28 C1.27 588.2 0 591.79 0 595.53
								 C0 599.2 1.27 602.79 3.59 605.71 L3.73 605.86 C3.81 605.94 3.81 606.01 3.88 606.09 L4.93 607.21
								 C7.99 610.28 12.02 612 16.43 612 L16.58 612 C20.91 612 25.1 610.28 28.16 607.21 L29.2 606.01 C29.28
								 605.94 29.28 605.86 29.35 605.79 L29.5 605.64 C31.82 602.87 33.09 599.2 33.09 595.53 ZM26.36 584.75
								 C26.29 584.75 26.22 584.83 26.14 584.83 C25.99 584.9 25.84 584.98 25.84 584.98 C25.54 585.13 25.24
								 585.2 24.95 585.28 C24.87 585.28 24.8 585.35 24.72 585.35 C24.35 585.5 23.97 585.58 23.6 585.65
								 C23.53 585.65 23.38 585.73 23.3 585.73 C22.71 584.16 21.96 582.73 21.14 581.69 C23.08 582.36 24.87
								 583.41 26.36 584.75 ZM16.43 580.94 C18.3 580.94 20.09 582.88 21.44 586.18 C19.94 586.48 18.3 586.55
								 16.58 586.55 C14.86 586.55 13.15 586.4 11.58 586.18 C12.85 582.88 14.64 581.01 16.43 580.94 ZM11.73
								 581.76 C10.9 582.81 10.23 584.16 9.63 585.73 L9.49 585.73 C9.11 585.58 8.66 585.5 8.37 585.43 C8.29
								 585.43 8.22 585.35 8.14 585.35 C7.84 585.2 7.54 585.05 7.32 584.98 C7.17 584.9 7.1 584.9 7.02 584.83
								 C6.95 584.75 6.87 584.75 6.72 584.68 C8.29 583.48 9.93 582.36 11.73 581.76 ZM6.72 606.31 C6.8 606.31
								 6.87 606.24 6.95 606.24 C7.1 606.16 7.17 606.16 7.24 606.09 C7.54 605.94 7.84 605.86 8.14 605.79
								 C8.22 605.79 8.29 605.71 8.37 605.71 C8.74 605.56 9.11 605.49 9.49 605.41 L9.63 605.41 C10.23 606.91
								 10.98 608.33 11.73 609.38 C9.93 608.63 8.22 607.58 6.72 606.31 ZM16.51 610.13 C14.64 610.05 12.85
								 608.18 11.58 604.96 C13.15 604.66 14.86 604.59 16.58 604.59 C18.3 604.59 19.87 604.74 21.44 604.96
								 C20.17 608.18 18.3 610.13 16.51 610.13 ZM21.21 609.31 C22.03 608.26 22.78 606.84 23.38 605.26 C23.45
								 605.26 23.6 605.34 23.68 605.34 C24.05 605.49 24.5 605.56 24.8 605.64 C24.87 605.64 24.95 605.71
								 25.02 605.71 C25.32 605.86 25.62 605.94 25.92 606.01 C26.07 606.09 26.14 606.09 26.22 606.16 C26.29
								 606.16 26.36 606.24 26.51 606.31 C24.87 607.66 23.08 608.71 21.21 609.31 ZM27.86 604.74 C27.63 604.74
								 27.56 604.66 27.34 604.59 C27.11 604.52 26.89 604.37 26.66 604.29 C26.59 604.29 26.51 604.22 26.44
								 604.22 C25.62 603.92 24.8 603.69 23.9 603.39 C24.12 602.57 24.27 601.82 24.42 601 L22.48 601 C22.33
								 601.75 22.18 602.42 22.03 602.94 C20.32 602.64 18.45 602.49 16.58 602.49 C14.64 602.49 12.77 602.72
								 10.98 603.02 C10.76 602.34 10.68 601.67 10.53 601 L8.59 601 C8.74 601.82 8.89 602.64 9.11 603.47
								 C8.29 603.69 7.54 603.92 6.8 604.22 C6.72 604.29 6.57 604.29 6.5 604.37 C6.27 604.44 6.05 604.59
								 5.83 604.66 C5.68 604.66 5.53 604.74 5.38 604.81 C3.44 602.42 2.32 599.5 2.09 596.43 L3.73 596.43
								 L3.73 594.49 L2.09 594.49 C2.32 591.42 3.44 588.57 5.3 586.25 L5.38 586.18 C5.53 586.25 5.68 586.33
								 5.83 586.4 C6.12 586.55 6.27 586.63 6.57 586.7 C6.65 586.7 6.72 586.78 6.8 586.78 C7.54 587.08 8.29
								 587.3 9.19 587.52 C8.96 588.27 8.89 588.95 8.74 589.69 L10.68 589.69 C10.83 589.1 10.98 588.42 11.05
								 587.9 C12.85 588.2 14.71 588.42 16.66 588.42 C18.6 588.42 20.39 588.2 22.11 587.97 C22.26 588.5
								 22.41 589.1 22.48 589.77 L24.42 589.77 C24.27 589.02 24.12 588.35 23.97 587.6 C24.8 587.37 25.62
								 587.15 26.44 586.78 C26.51 586.78 26.66 586.7 26.74 586.7 C27.04 586.63 27.19 586.48 27.49 586.4
								 C27.63 586.33 27.78 586.25 27.93 586.18 C29.88 588.57 31 591.49 31.22 594.49 L29.28 594.49 L29.28
								 596.43 L31.22 596.43 C30.85 599.5 29.73 602.49 27.86 604.74 Z" class="st30"/>
				</g>
				<g id="shape1085-332" transform="translate(5.45221,-12.1257)">
					<title>XMLID_6_</title>
					<path d="M6.95 607.51 C6.95 608.33 6.8 608.93 6.65 609.46 C6.42 609.98 6.12 610.43 5.83 610.88 C5.45 611.18 5
								 611.48 4.41 611.7 C3.88 611.85 3.21 612 2.46 612 L0.45 612 C0.3 612 0.15 611.93 0.07 611.85 C-0
								 611.78 0 611.55 0 611.4 L0 603.92 C0 603.69 0.07 603.62 0.15 603.54 C0.22 603.47 0.37 603.39 0.52
								 603.39 L2.69 603.39 C3.51 603.39 4.11 603.47 4.63 603.69 C5.15 603.92 5.6 604.14 5.98 604.52 C6.35
								 604.89 6.65 605.34 6.8 605.86 C6.87 606.24 6.95 606.84 6.95 607.51 ZM5.15 607.58 C5.15 607.21 5.08
								 606.76 5 606.46 C4.93 606.16 4.71 605.79 4.56 605.56 C4.41 605.34 4.11 605.11 3.73 604.96 C3.44
								 604.81 2.99 604.74 2.39 604.74 L1.64 604.74 L1.64 610.58 L2.54 610.58 C2.99 610.58 3.36 610.5 3.73
								 610.35 C4.03 610.2 4.33 610.05 4.56 609.83 C4.78 609.53 4.93 609.31 5 608.93 C5.15 608.48 5.15 608.03
								 5.15 607.58 Z" class="st30"/>
				</g>
				<g id="shape1086-334" transform="translate(13.5932,-12.1257)">
					<title>XMLID_5_</title>
					<path d="M7.24 611.25 C7.24 611.4 7.24 611.48 7.17 611.55 C7.1 611.63 7.1 611.7 7.02 611.78 C6.95 611.85 6.87
								 611.85 6.8 611.93 C6.72 611.93 6.65 612 6.5 612 L5.75 612 C5.6 612 5.45 612 5.38 611.93 C5.23 611.93
								 5.15 611.85 5.08 611.7 C5 611.63 4.85 611.48 4.78 611.4 C4.71 611.25 4.56 611.1 4.48 610.88 L2.39
								 606.91 C2.24 606.61 2.09 606.46 2.02 606.09 C1.87 605.79 1.72 605.56 1.72 605.26 C1.72 605.56 1.72
								 605.94 1.79 606.16 L1.79 611.63 L1.72 611.78 C1.72 611.85 1.64 611.85 1.57 611.85 C1.49 611.85 1.42
								 611.93 1.27 611.93 L0.45 611.93 C0.3 611.93 0.22 611.93 0.15 611.85 C0.07 611.85 0.07 611.78 0 611.78
								 L0 603.99 C0 603.77 0.07 603.69 0.22 603.54 C0.37 603.39 0.52 603.39 0.67 603.39 L1.57 603.39 C1.79
								 603.39 1.87 603.39 1.94 603.47 C2.09 603.47 2.17 603.54 2.24 603.62 C2.32 603.69 2.46 603.77 2.54
								 603.92 C2.61 604.07 2.69 604.22 2.84 604.37 L4.48 607.43 C4.56 607.66 4.71 607.81 4.78 607.96 C4.85
								 608.18 5 608.33 5.08 608.48 C5.15 608.71 5.3 608.78 5.38 609.01 C5.45 609.23 5.53 609.31 5.68 609.53
								 L5.68 603.62 L5.75 603.47 C5.75 603.39 5.83 603.39 5.9 603.39 C5.98 603.39 6.05 603.32 6.2 603.32
								 L7.02 603.32 C7.17 603.32 7.24 603.32 7.32 603.39 C7.39 603.39 7.39 603.47 7.47 603.47 L7.47 611.25
								 L7.24 611.25 Z" class="st30"/>
				</g>
				<g id="shape1087-336" transform="translate(22.1076,-11.976)">
					<title>XMLID_4_</title>
					<path d="M5.68 609.23 C5.68 609.68 5.6 610.05 5.38 610.43 C5.15 610.8 5 611.03 4.71 611.25 C4.41 611.48 4.11
								 611.63 3.73 611.78 C3.36 611.93 2.91 612 2.46 612 C2.17 612 1.87 612 1.64 611.93 C1.42 611.85 1.2
								 611.78 0.97 611.7 C0.75 611.63 0.67 611.55 0.52 611.48 C0.37 611.4 0.3 611.33 0.22 611.25 C0.15
								 611.18 0.15 611.1 0.07 610.95 C0.07 610.8 0 610.65 0 610.5 L0 610.2 C0 610.13 -0 609.98 0.07 609.98
								 C0.07 609.9 0.15 609.9 0.15 609.83 C0.15 609.83 0.22 609.75 0.3 609.75 C0.37 609.75 0.45 609.83
								 0.6 609.9 C0.75 609.98 0.9 610.05 1.05 610.2 C1.27 610.28 1.42 610.43 1.72 610.5 C2.02 610.58 2.24
								 610.65 2.54 610.65 C2.76 610.65 2.91 610.65 3.14 610.58 C3.36 610.5 3.44 610.43 3.51 610.35 C3.66
								 610.28 3.73 610.13 3.81 610.05 C3.88 609.9 3.88 609.75 3.88 609.6 C3.88 609.38 3.81 609.31 3.73
								 609.08 L3.36 608.71 C3.14 608.56 3.06 608.48 2.76 608.41 C2.54 608.33 2.32 608.18 2.09 608.11 C1.87
								 607.96 1.64 607.88 1.42 607.81 C1.2 607.66 1.05 607.51 0.82 607.36 C0.6 607.13 0.52 606.99 0.45
								 606.69 C0.3 606.39 0.3 606.16 0.3 605.79 C0.3 605.41 0.37 604.96 0.52 604.74 C0.67 604.44 0.82 604.14
								 1.12 603.92 C1.42 603.69 1.64 603.62 2.02 603.47 C2.32 603.32 2.76 603.32 3.14 603.32 C3.36 603.32
								 3.51 603.32 3.73 603.39 C3.96 603.39 4.11 603.47 4.33 603.54 C4.56 603.62 4.63 603.69 4.78 603.77
								 C4.93 603.84 5 603.92 5.08 603.92 L5.15 604.07 C5.15 604.07 5.15 604.14 5.23 604.22 L5.23 605.19
								 C5.23 605.26 5.15 605.26 5.15 605.34 C5.15 605.34 5.08 605.41 5 605.41 C4.93 605.41 4.85 605.41
								 4.78 605.34 L4.41 605.11 C4.26 605.04 4.11 604.96 3.88 604.89 C3.66 604.81 3.51 604.81 3.21 604.81
								 C2.99 604.81 2.91 604.81 2.76 604.89 C2.61 604.96 2.46 605.04 2.46 605.11 C2.39 605.19 2.32 605.34
								 2.24 605.41 C2.17 605.56 2.17 605.71 2.17 605.71 C2.17 605.94 2.24 606.01 2.32 606.16 L2.69 606.54
								 C2.91 606.69 3.06 606.76 3.29 606.84 C3.51 606.91 3.73 607.06 3.96 607.13 C4.18 607.28 4.41 607.36
								 4.63 607.43 C4.85 607.58 5 607.73 5.23 607.88 C5.45 608.11 5.53 608.26 5.6 608.56 C5.6 608.56 5.68
								 608.86 5.68 609.23 Z" class="st30"/>
				</g>
			</g>
			<g id="shape1081-338">
				<text x="-11.48" y="622.8" class="st9">Azure DNS</text>			</g>
		</g>
		<g id="group1088-340" transform="translate(712.237,-185.075)">
			<title>Resource group (opaque).1147</title>
			<desc>Resource group</desc>
			<g id="group1089-341">
				<title>Sheet.1089</title>
				<g id="shape1090-342" transform="translate(5.75927,-13.6048)">
					<title>Sheet.1090</title>
					<path d="M9.37 612 C9.19 612 9.08 611.94 8.96 611.88 L0.41 606.74 C0.17 606.56 0 606.32 0 605.95 C0 605.65 0.17
								 605.35 0.41 605.17 L8.9 600.09 C9.19 599.91 9.48 599.91 9.72 600.09 L18.27 605.23 C18.5 605.41 18.67
								 605.65 18.67 605.95 C18.67 606.26 18.5 606.56 18.27 606.68 L9.77 611.76 C9.66 611.94 9.48 612 9.37
								 612 Z" class="st31"/>
				</g>
				<g id="shape1091-344" transform="translate(4.53761,-1.14885)">
					<title>Sheet.1091</title>
					<path d="M9.37 612 C9.19 612 9.08 611.94 8.96 611.88 L0.41 606.74 C0.17 606.62 0 606.32 0 605.95 L0 595.67 C-0
								 595.37 0.17 595.07 0.41 594.89 C0.64 594.71 0.99 594.71 1.22 594.89 L9.77 600.03 C10.01 600.21 10.18
								 600.45 10.18 600.81 L10.18 611.09 C10.18 611.4 10.01 611.7 9.77 611.82 C9.6 612 9.48 612 9.37 612
								 Z" class="st31"/>
				</g>
				<g id="shape1092-346" transform="translate(15.4744,-1.14885)">
					<title>Sheet.1092</title>
					<path d="M0.81 612 C0.7 612 0.52 611.94 0.41 611.88 C0.12 611.7 0 611.46 0 611.09 L0 600.87 C0 600.57 0.17 600.27
								 0.41 600.15 L8.96 595.01 C9.25 594.83 9.54 594.83 9.77 595.01 C10.06 595.19 10.18 595.49 10.18 595.8
								 L10.18 606.01 C10.18 606.32 10.01 606.62 9.77 606.74 L1.22 611.88 C1.16 611.94 0.99 612 0.81 612
								 Z" class="st31"/>
				</g>
				<g id="shape1093-348">
					<title>Sheet.1093</title>
					<path d="M6.11 612 C5.88 612 5.58 611.94 5.41 611.82 L1.45 609.4 C0.58 608.92 0 607.83 0 606.8 L0 591.56 C0 590.53
								 0.58 589.45 1.45 588.96 L5.41 586.54 C6.11 586.12 6.98 586.36 7.39 587.09 C7.8 587.81 7.56 588.72
								 6.86 589.14 L2.91 591.56 C2.91 591.56 2.91 591.62 2.91 591.62 L2.91 606.8 C2.91 606.8 2.97 606.86
								 2.97 606.86 L6.92 609.22 C7.62 609.64 7.85 610.55 7.45 611.27 C7.1 611.7 6.63 612 6.11 612 Z"
							class="st31"/>
				</g>
				<g id="shape1094-350" transform="translate(22.3972,0)">
					<title>Sheet.1094</title>
					<path d="M1.69 612 C1.16 612 0.7 611.76 0.47 611.27 C0.06 610.55 0.29 609.64 0.99 609.22 L4.94 606.8 C4.94 606.8
								 4.94 606.74 4.94 606.74 L4.94 591.56 C4.94 591.56 4.89 591.5 4.89 591.5 L0.93 589.14 C0.23 588.72
								 0 587.81 0.41 587.09 C0.76 586.42 1.69 586.12 2.39 586.54 L6.34 588.96 C7.21 589.45 7.8 590.53 7.8
								 591.56 L7.8 606.8 C7.8 607.83 7.21 608.92 6.34 609.4 L2.39 611.82 C2.15 611.94 1.92 612 1.69 612
								 Z" class="st31"/>
				</g>
			</g>
			<g id="group1095-352" transform="translate(0.581745,-0.42326)">
				<title>Sheet.1095</title>
				<g id="shape1096-353" transform="translate(5.75927,-13.7862)">
					<title>Sheet.1096</title>
					<path d="M8.78 612 C8.73 612 8.73 612 8.67 611.94 L0.12 606.8 C0.06 606.74 0 606.68 0 606.56 C0 606.44 0.06 606.38
								 0.12 606.32 L8.61 601.24 C8.67 601.18 8.78 601.18 8.84 601.24 L17.39 606.38 C17.45 606.44 17.51
								 606.5 17.51 606.62 C17.51 606.74 17.45 606.8 17.39 606.86 L8.9 611.94 C8.84 612 8.84 612 8.78 612
								 Z" class="st32"/>
				</g>
				<g id="shape1097-355" transform="translate(4.53761,-1.33025)">
					<title>Sheet.1097</title>
					<path d="M8.78 612 C8.73 612 8.67 612 8.67 611.94 L0.12 606.8 C0.06 606.74 0 606.68 0 606.56 L0 596.28 C0 596.16
								 0.06 596.1 0.12 596.04 C0.17 595.98 0.29 595.98 0.35 596.04 L8.9 601.18 C8.96 601.24 9.02 601.3
								 9.02 601.42 L9.02 611.7 C9.02 611.82 8.96 611.88 8.9 611.94 C8.84 612 8.78 612 8.78 612 Z"
							class="st32"/>
				</g>
				<g id="shape1098-357" transform="translate(15.4744,-1.33025)">
					<title>Sheet.1098</title>
					<path d="M0.23 612 C0.17 612 0.12 612 0.12 611.94 C0.06 611.88 0 611.82 0 611.7 L0 601.48 C-0 601.36 0.06 601.3
								 0.12 601.24 L8.67 596.1 C8.73 596.04 8.84 596.04 8.9 596.1 C8.96 596.16 9.02 596.22 9.02 596.34
								 L9.02 606.56 C9.02 606.68 8.96 606.74 8.9 606.8 L0.35 611.94 C0.35 612 0.29 612 0.23 612 Z"
							class="st32"/>
				</g>
				<g id="shape1099-359" transform="translate(1.45384E-13,-0.181397)">
					<title>Sheet.1099</title>
					<path d="M5.53 612 C5.41 612 5.24 611.94 5.12 611.88 L1.16 609.46 C0.47 609.04 0 608.19 0 607.4 L0 592.17 C0
								 591.38 0.47 590.47 1.16 590.11 L5.12 587.69 C5.53 587.45 6.05 587.57 6.28 588 C6.52 588.42 6.4 588.96
								 5.99 589.2 L2.04 591.62 C1.92 591.68 1.75 591.99 1.75 592.17 L1.75 607.4 C1.75 607.59 1.92 607.89
								 2.04 607.95 L5.99 610.37 C6.4 610.61 6.52 611.15 6.28 611.58 C6.11 611.82 5.82 612 5.53 612 Z"
							class="st32"/>
				</g>
				<g id="shape1100-361" transform="translate(22.5135,0)">
					<title>Sheet.1100</title>
					<path d="M0.99 587.45 C1.11 587.45 1.28 587.51 1.4 587.57 L5.35 589.99 C6.05 590.41 6.52 591.26 6.52 592.05 L6.52
								 607.28 C6.52 608.07 6.05 608.98 5.35 609.34 L1.4 611.76 C0.99 612 0.47 611.88 0.23 611.46 C0 611.03
								 0.12 610.49 0.52 610.25 L4.48 607.83 C4.6 607.77 4.77 607.47 4.77 607.28 L4.77 592.05 C4.77 591.86
								 4.6 591.56 4.48 591.5 L0.52 589.08 C0.12 588.84 0 588.3 0.23 587.87 C0.41 587.57 0.7 587.45 0.99
								 587.45 Z" class="st32"/>
				</g>
			</g>
			<g id="shape1088-363">
				<text x="-91.64" y="591.4" class="st9">Resource group</text>			</g>
		</g>
	</g>
</svg>
